<svg version="1.1" id="Feather"
  xmlns="http://www.w3.org/2000/svg"
  xmlns:xlink="http://www.w3.org/1999/xlink" x="0px" y="0px" viewBox="146.5 0 605.185 960" enable-background="new 146.5 0 605.185 960" xml:space="preserve">
  <linearGradient id="SVGID_1_" gradientUnits="userSpaceOnUse" x1="-5269.1543" y1="1103.3634" x2="-4672.1743" y2="405.2993" gradientTransform="matrix(0.096 -0.2059 -0.2059 -0.096 1303.0938 -897.3568)">
    <stop offset="0" style="stop-color:#F69923"/>
    <stop offset="0.3123" style="stop-color:#F79A23"/>
    <stop offset="0.8383" style="stop-color:#E97826"/>
  </linearGradient>
  <path fill="url(#SVGID_1_)" d="M616.882,4.565c-15.059,8.881-40.066,34.047-69.934,70.502l27.438,51.786
	c19.261-27.551,38.817-52.331,58.555-73.5c1.522-1.681,2.317-2.476,2.317-2.476c-0.772,0.818-1.544,1.658-2.317,2.476
	c-6.382,7.041-25.757,29.641-54.989,74.522c28.142-1.408,71.388-7.155,106.662-13.196c10.494-58.782-10.289-85.697-10.289-85.697
	S647.908-13.764,616.882,4.565z"/>
  <path fill="none" d="M570.433,299.974c0.204-0.045,0.409-0.068,0.613-0.114l-3.952,0.432c-0.25,0.114-0.454,0.227-0.704,0.318
	C567.753,300.406,569.093,300.179,570.433,299.974z"/>
  <path fill="none" d="M542.427,392.736c-2.249,0.5-4.543,0.886-6.859,1.227C537.885,393.621,540.179,393.212,542.427,392.736z"/>
  <path fill="none" d="M352.09,600.812c0.295-0.772,0.591-1.544,0.863-2.317c6.042-15.945,12.015-31.435,17.944-46.539
	c6.655-16.944,13.219-33.343,19.715-49.242c6.837-16.762,13.583-32.957,20.238-48.606c6.973-16.422,13.855-32.23,20.601-47.448
	c5.497-12.379,10.902-24.371,16.24-35.978c1.772-3.861,3.543-7.7,5.315-11.493c3.498-7.518,6.973-14.9,10.38-22.1
	c3.157-6.655,6.292-13.151,9.403-19.533c1.022-2.135,2.067-4.225,3.089-6.337c0.159-0.341,0.341-0.681,0.5-1.022l-3.362,0.363
	l-2.68-5.269c-0.25,0.522-0.522,1.022-0.795,1.545c-4.815,9.562-9.585,19.215-14.309,28.959c-2.726,5.633-5.451,11.289-8.154,16.967
	c-7.495,15.74-14.877,31.617-22.123,47.607c-7.336,16.149-14.514,32.389-21.555,48.652c-6.928,15.967-13.696,31.958-20.351,47.902
	c-6.632,15.922-13.106,31.799-19.443,47.562c-6.61,16.467-13.037,32.775-19.261,48.902c-1.408,3.634-2.816,7.268-4.202,10.902
	c-4.997,13.015-9.858,25.848-14.605,38.522l4.225,8.336l3.77-0.409c0.136-0.386,0.273-0.772,0.409-1.136
	C340.052,632.906,346.094,616.643,352.09,600.812z"/>
  <path fill="none" d="M533.819,394.235L533.819,394.235c0.023,0,0.023-0.023,0.045-0.023
	C533.865,394.212,533.842,394.212,533.819,394.235z"/>
  <path fill="#BE202E" d="M524.734,439.457c-3.498,0.636-7.109,1.249-10.812,1.885c-0.023,0-0.045,0.023-0.068,0.023
	c1.862-0.273,3.702-0.545,5.519-0.863S522.962,439.843,524.734,439.457z"/>
  <path opacity="0.35" fill="#BE202E" enable-background="new    " d="M524.734,439.457c-3.498,0.636-7.109,1.249-10.812,1.885
	c-0.023,0-0.045,0.023-0.068,0.023c1.862-0.273,3.702-0.545,5.519-0.863S522.962,439.843,524.734,439.457z"/>
  <path fill="#BE202E" d="M533.91,394.189c0,0-0.023,0-0.023,0.023c-0.023,0-0.023,0.023-0.045,0.023
	c0.591-0.068,1.158-0.182,1.726-0.25c2.339-0.341,4.634-0.75,6.859-1.227C539.634,393.212,536.795,393.712,533.91,394.189
	L533.91,394.189L533.91,394.189z"/>
  <path opacity="0.35" fill="#BE202E" enable-background="new    " d="M533.91,394.189c0,0-0.023,0-0.023,0.023
	c-0.023,0-0.023,0.023-0.045,0.023c0.591-0.068,1.158-0.182,1.726-0.25c2.339-0.341,4.634-0.75,6.859-1.227
	C539.634,393.212,536.795,393.712,533.91,394.189L533.91,394.189L533.91,394.189z"/>
  <linearGradient id="SVGID_2_" gradientUnits="userSpaceOnUse" x1="-9687.459" y1="1180.4685" x2="-5428.3262" y2="1180.4685" gradientTransform="matrix(0.096 -0.2059 -0.2059 -0.096 1303.0938 -897.3568)">
    <stop offset="0.3233" style="stop-color:#9E2064"/>
    <stop offset="0.6302" style="stop-color:#C92037"/>
    <stop offset="0.7514" style="stop-color:#CD2335"/>
    <stop offset="1" style="stop-color:#E97826"/>
  </linearGradient>
  <path fill="url(#SVGID_2_)" d="M493.503,260.658c8.336-15.581,16.785-30.822,25.325-45.654c8.858-15.4,17.83-30.345,26.893-44.745
	c0.522-0.84,1.068-1.704,1.59-2.567c8.949-14.173,17.989-27.801,27.097-40.838L546.97,75.067c-2.067,2.521-4.134,5.088-6.246,7.7
	c-7.904,9.858-16.126,20.465-24.553,31.708c-9.494,12.674-19.261,26.211-29.187,40.407c-9.153,13.128-18.443,26.87-27.733,41.088
	c-7.904,12.106-15.854,24.576-23.735,37.363c-0.295,0.477-0.591,0.954-0.886,1.431l35.705,70.525
	C477.967,290.185,485.69,275.285,493.503,260.658z"/>
  <linearGradient id="SVGID_3_" gradientUnits="userSpaceOnUse" x1="-9173.3242" y1="753.2125" x2="-6635.2954" y2="753.2125" gradientTransform="matrix(0.096 -0.2059 -0.2059 -0.096 1303.0938 -897.3568)">
    <stop offset="0" style="stop-color:#282662"/>
    <stop offset="0.0955" style="stop-color:#662E8D"/>
    <stop offset="0.7882" style="stop-color:#9F2064"/>
    <stop offset="0.9487" style="stop-color:#CD2032"/>
  </linearGradient>
  <path fill="url(#SVGID_3_)" d="M330.876,658.027c-4.724,12.992-9.471,26.211-14.241,39.726c-0.068,0.204-0.136,0.386-0.204,0.591
	c-0.681,1.908-1.34,3.816-2.021,5.724c-3.203,9.108-5.996,17.307-12.379,35.955c10.516,4.793,18.966,17.421,26.961,31.753
	c-0.84-14.832-6.996-28.778-18.648-39.567c51.854,2.339,96.531-10.766,119.631-48.675c2.067-3.384,3.952-6.928,5.656-10.721
	c-10.494,13.31-23.508,18.966-48.016,17.58c-0.045,0.023-0.114,0.045-0.159,0.068c0.045-0.023,0.114-0.045,0.159-0.068
	c36.069-16.149,54.171-31.64,70.161-57.328c3.793-6.087,7.473-12.742,11.243-20.124c-31.549,32.389-68.094,41.611-106.594,34.615
	l-28.869,3.157C332.648,653.143,331.762,655.574,330.876,658.027z"/>
  <linearGradient id="SVGID_4_" gradientUnits="userSpaceOnUse" x1="-9448.2432" y1="1220.2843" x2="-5189.1113" y2="1220.2843" gradientTransform="matrix(0.096 -0.2059 -0.2059 -0.096 1303.0938 -897.3568)">
    <stop offset="0.3233" style="stop-color:#9E2064"/>
    <stop offset="0.6302" style="stop-color:#C92037"/>
    <stop offset="0.7514" style="stop-color:#CD2335"/>
    <stop offset="1" style="stop-color:#E97826"/>
  </linearGradient>
  <path fill="url(#SVGID_4_)" d="M344.345,593.362c6.246-16.126,12.674-32.435,19.261-48.902c6.314-15.763,12.81-31.617,19.443-47.562
	c6.632-15.945,13.424-31.912,20.351-47.902c7.041-16.263,14.241-32.503,21.555-48.652c7.246-15.967,14.627-31.867,22.123-47.607
	c2.703-5.678,5.428-11.334,8.154-16.967c4.724-9.744,9.494-19.397,14.309-28.959c0.25-0.522,0.522-1.022,0.795-1.545l-35.705-70.525
	c-0.591,0.954-1.158,1.908-1.749,2.862c-8.313,13.583-16.603,27.483-24.735,41.679c-8.222,14.332-16.285,28.937-24.167,43.746
	c-6.655,12.492-13.151,25.098-19.465,37.818c-1.272,2.589-2.521,5.133-3.77,7.7c-7.791,16.013-14.809,31.481-21.169,46.358
	c-7.2,16.853-13.537,32.957-19.079,48.22c-3.657,10.039-6.973,19.738-10.017,29.05c-2.498,7.95-4.883,15.922-7.132,23.849
	c-5.338,18.693-9.926,37.341-13.696,55.92l35.887,70.843c4.747-12.674,9.608-25.507,14.605-38.522
	C341.528,600.653,342.937,596.996,344.345,593.362z"/>
  <linearGradient id="SVGID_5_" gradientUnits="userSpaceOnUse" x1="-9137.6201" y1="1162.5199" x2="-6899.3184" y2="1162.5199" gradientTransform="matrix(0.096 -0.2059 -0.2059 -0.096 1303.0938 -897.3568)">
    <stop offset="0" style="stop-color:#282662"/>
    <stop offset="0.0955" style="stop-color:#662E8D"/>
    <stop offset="0.7882" style="stop-color:#9F2064"/>
    <stop offset="0.9487" style="stop-color:#CD2032"/>
  </linearGradient>
  <path fill="url(#SVGID_5_)" d="M289.174,574.465c-4.497,22.668-7.7,45.245-9.312,67.686c-0.045,0.795-0.136,1.567-0.182,2.362
	c-11.198-17.943-41.179-35.455-41.111-35.296c21.464,31.117,37.749,62.007,40.18,92.33c-11.493,2.362-27.233-1.045-45.427-7.745
	c18.966,17.421,33.207,22.236,38.749,23.531c-17.421,1.09-35.569,13.06-53.853,26.847c26.734-10.902,48.334-15.218,63.802-11.72
	c-24.53,69.457-49.129,146.137-73.727,227.542c7.541-2.226,12.038-7.291,14.559-14.15c4.384-14.741,33.479-111.454,79.065-238.58
	c1.295-3.611,2.612-7.246,3.929-10.902c0.363-1.022,0.75-2.044,1.113-3.044c4.815-13.333,9.812-26.938,14.968-40.816
	c1.181-3.157,2.362-6.314,3.543-9.494c0.023-0.068,0.045-0.136,0.068-0.182l-35.842-70.82
	C289.538,572.806,289.333,573.624,289.174,574.465z"/>
  <linearGradient id="SVGID_6_" gradientUnits="userSpaceOnUse" x1="-9448.2432" y1="779.3007" x2="-5189.1113" y2="779.3007" gradientTransform="matrix(0.096 -0.2059 -0.2059 -0.096 1303.0938 -897.3568)">
    <stop offset="0.3233" style="stop-color:#9E2064"/>
    <stop offset="0.6302" style="stop-color:#C92037"/>
    <stop offset="0.7514" style="stop-color:#CD2335"/>
    <stop offset="1" style="stop-color:#E97826"/>
  </linearGradient>
  <path fill="url(#SVGID_6_)" d="M475.878,311.24c-1.022,2.09-2.044,4.202-3.089,6.337c-3.089,6.382-6.223,12.878-9.403,19.533
	c-3.43,7.2-6.882,14.559-10.38,22.1c-1.772,3.793-3.521,7.609-5.315,11.493c-5.338,11.607-10.743,23.599-16.24,35.978
	c-6.746,15.218-13.628,31.026-20.601,47.448c-6.655,15.649-13.401,31.844-20.238,48.606c-6.496,15.899-13.06,32.321-19.715,49.242
	c-5.928,15.104-11.902,30.595-17.944,46.539c-0.295,0.772-0.591,1.545-0.863,2.317c-5.996,15.831-12.038,32.094-18.125,48.765
	c-0.136,0.386-0.273,0.772-0.409,1.136l28.869-3.157c-0.568-0.114-1.158-0.182-1.726-0.295
	c34.524-4.293,80.405-30.095,110.069-61.939c13.673-14.673,26.075-31.98,37.545-52.241c8.54-15.082,16.558-31.799,24.19-50.31
	c6.678-16.172,13.083-33.684,19.261-52.672c-7.927,4.179-17.012,7.246-27.029,9.381c-1.749,0.363-3.543,0.727-5.36,1.045
	s-3.657,0.613-5.519,0.863l0,0l0,0c0.023,0,0.045-0.023,0.068-0.023c32.185-12.379,52.49-36.296,67.254-65.573
	c-8.472,5.769-22.236,13.333-38.726,16.967c-2.249,0.5-4.543,0.886-6.859,1.227c-0.591,0.091-1.158,0.182-1.726,0.25l0,0l0,0
	c0.023,0,0.023-0.023,0.045-0.023c0,0,0.023,0,0.023-0.023l0,0c11.175-4.679,20.601-9.903,28.778-16.081
	c1.749-1.317,3.452-2.68,5.088-4.111c2.498-2.158,4.861-4.429,7.132-6.814c1.454-1.522,2.862-3.089,4.225-4.724
	c3.203-3.816,6.201-7.927,9.017-12.401c0.863-1.363,1.703-2.748,2.544-4.179c1.068-2.067,2.09-4.088,3.089-6.087
	c4.497-9.04,8.086-17.103,10.948-24.19c1.431-3.543,2.68-6.814,3.748-9.858c0.432-1.204,0.84-2.385,1.227-3.521
	c1.136-3.407,2.067-6.428,2.794-9.085c1.09-3.975,1.749-7.132,2.112-9.426l0,0l0,0c-1.09,0.863-2.339,1.726-3.748,2.567
	c-9.721,5.815-26.393,11.084-39.839,13.56l26.506-2.907l-26.506,2.907c-0.204,0.045-0.409,0.068-0.613,0.114
	c-1.34,0.227-2.703,0.432-4.066,0.659c0.25-0.114,0.454-0.227,0.704-0.318l-90.694,9.948
	C476.218,310.582,476.059,310.9,475.878,311.24z"/>
  <linearGradient id="SVGID_7_" gradientUnits="userSpaceOnUse" x1="-9712.4512" y1="801.0811" x2="-5453.3188" y2="801.0811" gradientTransform="matrix(0.096 -0.2059 -0.2059 -0.096 1303.0938 -897.3568)">
    <stop offset="0.3233" style="stop-color:#9E2064"/>
    <stop offset="0.6302" style="stop-color:#C92037"/>
    <stop offset="0.7514" style="stop-color:#CD2335"/>
    <stop offset="1" style="stop-color:#E97826"/>
  </linearGradient>
  <path fill="url(#SVGID_7_)" d="M577.974,127.899c-8.063,12.379-16.876,26.438-26.347,42.36c-0.5,0.818-0.999,1.681-1.499,2.521
	c-8.177,13.787-16.876,28.914-26.007,45.495c-7.904,14.309-16.126,29.664-24.667,46.176c-7.45,14.378-15.15,29.641-23.054,45.79
	l90.694-9.948c26.416-12.152,38.226-23.145,49.697-39.044c3.044-4.384,6.11-8.972,9.154-13.719
	c9.312-14.536,18.443-30.549,26.62-46.471c7.882-15.377,14.832-30.618,20.169-44.359c3.384-8.745,6.11-16.876,7.995-24.008
	c1.658-6.292,2.953-12.265,3.952-17.966C649.362,120.744,606.116,126.513,577.974,127.899z"/>
  <path fill="#BE202E" d="M519.373,440.502c-1.817,0.318-3.657,0.613-5.519,0.863l0,0C515.717,441.115,517.556,440.82,519.373,440.502
	z"/>
  <path opacity="0.35" fill="#BE202E" enable-background="new    " d="M519.373,440.502c-1.817,0.318-3.657,0.613-5.519,0.863l0,0
	C515.717,441.115,517.556,440.82,519.373,440.502z"/>
  <linearGradient id="SVGID_8_" gradientUnits="userSpaceOnUse" x1="-9448.2432" y1="648.2098" x2="-5189.1113" y2="648.2098" gradientTransform="matrix(0.096 -0.2059 -0.2059 -0.096 1303.0938 -897.3568)">
    <stop offset="0.3233" style="stop-color:#9E2064"/>
    <stop offset="0.6302" style="stop-color:#C92037"/>
    <stop offset="0.7514" style="stop-color:#CD2335"/>
    <stop offset="1" style="stop-color:#E97826"/>
  </linearGradient>
  <path fill="url(#SVGID_8_)" d="M519.373,440.502c-1.817,0.318-3.657,0.613-5.519,0.863l0,0
	C515.717,441.115,517.556,440.82,519.373,440.502z"/>
  <path fill="#BE202E" d="M533.819,394.235c0.591-0.068,1.158-0.182,1.726-0.25C534.978,394.053,534.41,394.144,533.819,394.235
	L533.819,394.235z"/>
  <path opacity="0.35" fill="#BE202E" enable-background="new    " d="M533.819,394.235c0.591-0.068,1.158-0.182,1.726-0.25
	C534.978,394.053,534.41,394.144,533.819,394.235L533.819,394.235z"/>
  <linearGradient id="SVGID_9_" gradientUnits="userSpaceOnUse" x1="-9448.2432" y1="663.2331" x2="-5189.1113" y2="663.2331" gradientTransform="matrix(0.096 -0.2059 -0.2059 -0.096 1303.0938 -897.3568)">
    <stop offset="0.3233" style="stop-color:#9E2064"/>
    <stop offset="0.6302" style="stop-color:#C92037"/>
    <stop offset="0.7514" style="stop-color:#CD2335"/>
    <stop offset="1" style="stop-color:#E97826"/>
  </linearGradient>
  <path fill="url(#SVGID_9_)" d="M533.819,394.235c0.591-0.068,1.158-0.182,1.726-0.25
	C534.978,394.053,534.41,394.144,533.819,394.235L533.819,394.235z"/>
  <path fill="#BE202E" d="M533.887,394.212c0,0,0.023,0,0.023-0.023l0,0l0,0l0,0C533.91,394.189,533.887,394.189,533.887,394.212z"/>
  <path opacity="0.35" fill="#BE202E" enable-background="new    " d="M533.887,394.212c0,0,0.023,0,0.023-0.023l0,0l0,0l0,0
	C533.91,394.189,533.887,394.189,533.887,394.212z"/>
  <linearGradient id="SVGID_10_" gradientUnits="userSpaceOnUse" x1="-7055.5244" y1="666.1908" x2="-6114.1167" y2="666.1908" gradientTransform="matrix(0.096 -0.2059 -0.2059 -0.096 1303.0938 -897.3568)">
    <stop offset="0.3233" style="stop-color:#9E2064"/>
    <stop offset="0.6302" style="stop-color:#C92037"/>
    <stop offset="0.7514" style="stop-color:#CD2335"/>
    <stop offset="1" style="stop-color:#E97826"/>
  </linearGradient>
  <path fill="url(#SVGID_10_)" d="M533.887,394.212c0,0,0.023,0,0.023-0.023l0,0l0,0l0,0
	C533.91,394.189,533.887,394.189,533.887,394.212z"/>
</svg>
