<svg version="1.1" xmlns="http://www.w3.org/2000/svg" x="0px" y="0px"
	 width="400.685px" height="400.668px" viewBox="0 0 400.685 400.668" enable-background="new 0 0 400.685 400.668"
	 xml:space="preserve">
<path fill="#F05133" d="M393.13,182.488L218.177,7.557c-10.066-10.075-26.406-10.075-36.485,0l-36.327,36.331l46.08,46.08
	c10.712-3.617,22.991-1.192,31.526,7.345c8.579,8.59,10.987,20.973,7.279,31.722l44.413,44.413
	c10.745-3.703,23.142-1.311,31.722,7.284c11.995,11.992,11.995,31.423,0,43.417c-11.997,11.999-31.428,11.999-43.431,0
	c-9.019-9.026-11.25-22.278-6.682-33.391l-41.42-41.42l-0.004,108.995c2.924,1.448,5.684,3.38,8.121,5.806
	c11.992,11.99,11.992,31.418,0,43.428c-11.995,11.99-31.435,11.99-43.417,0c-11.993-12.009-11.993-31.437,0-43.428
	c2.964-2.959,6.394-5.198,10.053-6.699V147.431c-3.661-1.495-7.087-3.717-10.055-6.7c-9.084-9.077-11.272-22.41-6.613-33.566
	L127.51,61.733L7.559,181.68c-10.079,10.083-10.079,26.423,0,36.499l174.943,174.932c10.072,10.076,26.406,10.076,36.492,0
	l174.134-174.106c10.076-10.08,10.076-26.425,0-36.503"/>
</svg>
