<svg version="1.1"
  xmlns="http://www.w3.org/2000/svg" viewBox="0 363.472 960 392.387" enable-background="new 0 363.472 960 392.387" xml:space="preserve">
  <path fill="#3484D2" d="M249.73,585.349c-13.633,9.711-22.28,15.609-25.936,17.697c-19.542,11.65-37.392,17.473-53.55,17.473
	c-9.02,0-17.85-2.069-26.493-6.2c-8.643-4.135-15.127-9.491-19.448-16.068c-4.321-6.577-6.484-13.999-6.484-22.265
	c0-11.65,3.944-26.493,11.836-44.533c11.272-26.306,17.286-40.398,18.04-42.277c-0.377-1.505-0.564-3.197-0.564-5.076
	c-5.259,2.256-8.83,3.948-10.708,5.076c-10.522,6.768-20.86,14.47-31.005,23.113c-7.892,7.141-17.099,16.162-27.621,27.06
	c-2.256,13.528-3.384,26.87-3.384,40.025c0,10.148,0.564,20.293,1.692,30.441L7.892,620.522C2.629,599.479,0,579.373,0,560.205
	c0-11.65,1.128-23.486,3.384-35.513c2.256-12.027,6.391-25.555,12.4-40.589c4.135-10.522,9.961-23.673,17.473-39.457l78.358-12.964
	c-4.885,12.027-8.46,21.047-10.712,27.061c-4.135,10.148-7.515,19.351-10.148,27.621c18.791-17.286,37.582-30.627,56.373-40.021
	c15.034-7.515,28.562-11.276,40.585-11.276c6.764,0,13.719,1.315,20.86,3.948c7.138,2.629,12.307,6.764,15.501,12.404
	c3.193,5.636,4.792,12.4,4.792,20.293c0,11.272-3.193,25.178-9.584,41.717c-7.515,18.791-14.843,37.582-21.981,56.37
	c0,2.63,0.938,4.228,2.816,4.792c1.879,0.564,3.761,0.844,5.64,0.844c7.541,0,18.757-3.937,33.649-11.818
	c-1.389-5.423-2.084-11.067-2.084-16.931c0-9.02,1.315-17.659,3.948-25.929c2.629-8.266,6.577-16.912,11.836-25.929
	c9.394-15.407,22.549-28.562,39.457-39.461c16.912-10.899,34.762-17.85,53.553-20.857c6.764-0.751,12.027-1.128,15.784-1.128
	c12.4,0,23.486,2.069,33.257,6.2c9.771,4.135,17.85,10.899,24.241,20.296c3.761,6.01,5.64,12.023,5.64,18.037
	c0,9.397-4.699,18.601-14.092,27.625c-6.764,6.387-15.878,12.404-27.337,18.04c-11.463,5.636-22.832,10.331-34.109,14.089
	c-8.269,2.63-19.915,5.827-34.949,9.584c4.885,10.148,11.84,18.32,20.857,24.521c9.02,6.2,18.604,9.304,28.749,9.304
	c15.411,0,30.818-3.948,46.225-11.84c0.721-0.359,12.486-7.799,35.304-22.313c0.131-1.804,0.291-3.668,0.493-5.591
	c0.564-5.449,1.688-12.12,3.384-20.009c0.669-3.111,1.289-5.961,1.868-8.55l81.402-4.859c-1.946,6.802-3.959,13.805-6.043,21.021
	c-2.443,8.452-3.664,15.501-3.664,21.137c0,9.02,1.785,15.314,5.356,18.884c3.571,3.571,8.736,5.356,15.504,5.356
	c9.771,0,22.549-4.135,38.329-12.404c7.515-4.546,13.569-8.198,18.16-10.951c0.134-3.025,0.374-6.234,0.725-9.625
	c0.564-5.449,1.692-12.12,3.384-20.009c0.665-3.104,1.285-5.943,1.864-8.523l81.402-4.859c-1.942,6.79-3.955,13.79-6.036,20.995
	c-2.443,8.452-3.664,15.5-3.664,21.137c0,9.02,1.785,15.314,5.356,18.884c3.571,3.571,8.736,5.356,15.5,5.356
	c9.771,0,22.552-4.135,38.333-12.404l11.736-7.089c-0.306-2.663-0.463-5.375-0.463-8.135c0-9.02,1.315-17.659,3.944-25.929
	c2.629-8.266,6.577-16.909,11.836-25.929c9.394-15.407,22.549-28.562,39.461-39.461c16.909-10.899,34.762-17.85,53.55-20.857
	c6.764-0.751,12.027-1.128,15.784-1.128c12.404,0,23.486,2.069,33.257,6.2c9.771,4.135,17.85,10.899,24.237,20.296
	c3.757,6.01,5.636,12.023,5.636,18.037c0,9.397-4.699,18.601-14.092,27.625c-6.764,6.387-15.878,12.404-27.341,18.04
	c-11.463,5.636-22.832,10.331-34.105,14.089c-8.269,2.63-19.919,5.827-34.953,9.584c4.885,10.148,11.836,18.32,20.86,24.521
	c9.02,6.2,18.601,9.304,28.749,9.304c15.411,0,30.818-3.948,46.225-11.84c0.751-0.377,13.528-8.456,38.333-24.237v25.369
	c-2.252,1.501-11.276,7.892-27.057,19.168c-11.65,8.266-21.234,14.092-28.749,17.473c-18.791,8.269-39.461,12.404-62.009,12.404
	c-15.034,0-28.372-1.785-40.021-5.352c-11.65-3.571-22.362-9.868-32.133-18.884c-6.04-5.405-10.802-11.478-14.287-18.227
	c-16.569,11.978-29.283,20.494-38.139,25.555c-19.919,11.272-37.956,16.912-54.114,16.912c-9.069,0-16.393-0.583-24.805-4.508
	c-14.279-6.013-24.237-13.812-29.877-23.393c-2.794-4.751-4.897-10.04-6.308-15.852c-17.443,12.658-30.747,21.604-39.917,26.844
	c-19.919,11.272-37.956,16.912-54.114,16.912c-9.072,0-16.389-0.583-24.805-4.508c-14.279-6.013-24.237-13.812-29.877-23.393
	c-3.403-5.786-5.778-12.363-7.126-19.729c-3.926,2.734-12.258,8.65-25.003,17.753c-11.65,8.266-21.234,14.092-28.749,17.473
	c-18.791,8.269-39.457,12.404-62.006,12.404c-15.03,0-28.375-1.785-40.021-5.352c-11.653-3.571-22.362-9.868-32.133-18.884
	C255.332,592.102,252.326,588.834,249.73,585.349L249.73,585.349z M363.029,482.415c0.374-1.501,0.56-3.757,0.56-6.764
	c0-9.771-4.135-14.656-12.4-14.656c-1.128,0-3.193,0.377-6.204,1.124c-11.276,2.633-20.106,9.771-26.493,21.421
	c-6.391,11.65-9.584,23.863-9.584,36.641c15.784-4.135,27.247-8.269,34.385-12.404C354.95,501.393,361.528,492.936,363.029,482.415
	L363.029,482.415z M440.823,484.103l11.272-44.533l23.113-1.124l21.985-60.318l83.43-14.656l-23.677,71.026l37.769-1.688
	l-10.148,42.277C536.668,478.321,488.748,481.287,440.823,484.103L440.823,484.103z M595.843,484.103l11.276-44.533l23.109-1.124
	l21.988-60.318l83.423-14.656l-23.677,71.026l37.769-1.688l-10.148,42.277C691.531,478.332,643.271,481.317,595.843,484.103z
	 M874.31,482.415c0.377-1.501,0.568-3.757,0.568-6.764c0-9.771-4.135-14.656-12.404-14.656c-1.128,0-3.193,0.377-6.2,1.124
	c-11.272,2.633-20.106,9.771-26.497,21.421c-6.387,11.65-9.584,23.863-9.584,36.641c15.784-4.135,27.247-8.269,34.389-12.404
	C866.235,501.393,872.809,492.936,874.31,482.415L874.31,482.415z"/>
  <path fill="#3484D2" d="M48.709,754.768h8.688v-30.112h25.077v-7.108H57.397v-22.115h27.15v-7.209H48.709
	C48.709,688.228,48.709,754.768,48.709,754.768z M136.655,754.768h8.591v-28.827h8.094c2.585,0.082,4.755,0.56,6.514,1.449
	c1.744,0.874,3.175,2.252,4.295,4.112c1.102,1.875,1.976,4.329,2.615,7.373c0.889,4.165,1.711,7.601,2.435,10.316
	c0.725,2.715,1.367,4.576,1.909,5.58h8.886c-0.676-1.3-1.431-3.503-2.271-6.615c-0.825-3.111-1.778-6.992-2.865-11.65
	c-0.773-3.47-1.957-6.353-3.537-8.639c-1.58-2.29-3.638-3.884-6.137-4.788v-0.295c2.338-0.788,4.426-1.957,6.301-3.503
	c1.86-1.531,3.358-3.421,4.441-5.659c1.102-2.252,1.662-4.822,1.696-7.717c-0.015-2.633-0.478-5.035-1.397-7.224
	c-0.904-2.17-2.189-4.015-3.832-5.513c-1.991-1.826-4.557-3.193-7.702-4.082c-3.126-0.904-6.977-1.348-11.553-1.348
	c-1.957,0-3.918,0.067-5.89,0.179c-1.976,0.116-3.884,0.28-5.692,0.493c-1.808,0.198-3.44,0.444-4.904,0.706L136.655,754.768
	L136.655,754.768z M145.245,695.138c0.74-0.198,1.826-0.362,3.242-0.493c1.431-0.131,3.175-0.198,5.248-0.198
	c3.044-0.019,5.711,0.43,8.015,1.285c2.286,0.874,4.064,2.222,5.349,4.03c1.266,1.826,1.924,4.165,1.942,7.026
	c-0.019,2.551-0.627,4.773-1.845,6.648c-1.218,1.894-2.947,3.358-5.184,4.411c-2.252,1.038-4.904,1.561-7.978,1.58h-8.785
	C145.245,719.423,145.245,695.138,145.245,695.138z M264.39,733.84l7.108,20.931h9.181l-22.709-66.544h-10.268l-22.705,66.544h8.886
	l6.91-20.931H264.39z M242.57,727.125l6.514-19.25c0.691-2.039,1.3-4.064,1.826-6.103c0.542-2.024,1.053-4.015,1.531-5.943h0.198
	c0.478,1.909,1.005,3.884,1.546,5.89c0.542,2.006,1.184,4.079,1.909,6.252l6.615,19.153H242.57L242.57,727.125z M387.483,754.768
	h8.49l-4.146-66.544h-10.959l-11.848,32.185c-1.483,4.18-2.813,8.128-4,11.833c-1.184,3.701-2.222,7.239-3.111,10.581h-0.198
	c-0.889-3.44-1.875-7.026-2.977-10.727c-1.117-3.701-2.353-7.601-3.735-11.683l-11.355-32.185h-10.959l-4.639,66.544h8.195
	l1.778-28.532c0.198-3.391,0.377-6.798,0.56-10.268c0.164-3.455,0.314-6.813,0.444-10.088c0.116-3.257,0.213-6.286,0.28-9.065h0.198
	c0.938,3.933,2.039,8.045,3.324,12.341c1.266,4.277,2.7,8.785,4.277,13.525l10.862,31.692h6.514l11.75-32.282
	c1.677-4.59,3.193-8.983,4.575-13.196c1.367-4.213,2.652-8.228,3.817-12.075h0.198c0,2.058,0.034,4.277,0.097,6.63
	c0.067,2.368,0.149,4.803,0.265,7.321c0.097,2.517,0.213,5.02,0.344,7.519c0.131,2.503,0.247,4.919,0.377,7.257L387.483,754.768
	L387.483,754.768z M483.328,716.461H457.56v-21.028h27.348v-7.209h-36.036v66.544h37.515v-7.209H457.56v-23.99h25.768V716.461
	L483.328,716.461z M558.044,754.768l9.48-34.654c0.822-2.846,1.546-5.513,2.189-7.982c0.642-2.469,1.199-4.837,1.677-7.074
	c0.493-2.252,0.904-4.475,1.266-6.663h0.198c0.295,2.222,0.642,4.46,1.072,6.731c0.411,2.252,0.889,4.624,1.43,7.074
	c0.542,2.454,1.15,5.102,1.841,7.915l8.393,34.654h8.983l18.858-66.544h-8.789l-8.785,33.567c-1.038,4.131-2.024,8.079-2.928,11.881
	c-0.904,3.784-1.711,7.485-2.402,11.123h-0.198c-0.508-3.522-1.169-7.209-1.991-11.074c-0.807-3.851-1.696-7.765-2.648-11.732
	l-8.098-33.765h-8.983l-8.886,33.567c-1.15,4.31-2.204,8.408-3.16,12.292c-0.952,3.884-1.711,7.489-2.271,10.809h-0.198
	c-0.396-2.155-0.855-4.475-1.367-6.977c-0.512-2.503-1.068-5.102-1.677-7.799c-0.594-2.715-1.236-5.446-1.894-8.228l-7.9-33.668
	h-9.084l16.882,66.544L558.044,754.768L558.044,754.768z M688.349,687.04c-4.46,0.019-8.572,0.84-12.307,2.484
	c-3.754,1.647-6.996,4-9.756,7.059c-2.764,3.078-4.904,6.746-6.417,11.026c-1.531,4.295-2.305,9.084-2.319,14.38
	c0.019,5.054,0.74,9.644,2.189,13.79c1.449,4.131,3.489,7.702,6.137,10.697c2.648,2.996,5.808,5.296,9.461,6.929
	c3.653,1.614,7.683,2.435,12.128,2.454c3.406,0,6.663-0.493,9.741-1.464c3.078-0.956,5.905-2.402,8.475-4.31
	c2.566-1.909,4.803-4.262,6.697-7.093c1.894-2.813,3.373-6.073,4.411-9.775c1.038-3.701,1.565-7.851,1.58-12.408
	c-0.015-4.986-0.725-9.528-2.122-13.64c-1.397-4.131-3.406-7.683-6.04-10.678c-2.615-3.01-5.774-5.33-9.461-6.962
	C697.07,687.895,692.921,687.059,688.349,687.04z M688.05,694.051c2.861,0.015,5.431,0.527,7.702,1.546
	c2.29,1.005,4.262,2.402,5.957,4.165c1.696,1.778,3.111,3.817,4.228,6.122c1.117,2.305,1.957,4.773,2.517,7.373
	c0.542,2.615,0.822,5.266,0.822,7.948c0,3.802-0.478,7.373-1.416,10.697c-0.938,3.324-2.32,6.252-4.131,8.785
	c-1.826,2.536-4.049,4.527-6.697,5.972c-2.652,1.431-5.677,2.155-9.084,2.189c-2.73-0.015-5.218-0.493-7.455-1.43
	c-2.237-0.952-4.213-2.271-5.939-3.967c-1.729-1.696-3.175-3.687-4.344-5.939c-1.184-2.271-2.073-4.74-2.682-7.407
	c-0.594-2.663-0.904-5.431-0.904-8.31c0-2.913,0.28-5.745,0.855-8.456c0.56-2.715,1.416-5.248,2.566-7.586
	c1.135-2.319,2.566-4.363,4.277-6.122c1.711-1.744,3.72-3.111,6.006-4.079C682.62,694.562,685.189,694.066,688.05,694.051
	L688.05,694.051z M769.284,754.768h8.591v-28.827h8.094c2.585,0.082,4.755,0.56,6.514,1.449c1.744,0.874,3.175,2.252,4.295,4.112
	c1.102,1.875,1.976,4.329,2.615,7.373c0.889,4.165,1.711,7.601,2.435,10.316c0.725,2.715,1.367,4.576,1.909,5.58h8.886
	c-0.676-1.3-1.43-3.503-2.271-6.615c-0.825-3.111-1.778-6.992-2.865-11.65c-0.773-3.47-1.957-6.353-3.537-8.639
	c-1.58-2.29-3.638-3.884-6.137-4.788v-0.295c2.338-0.788,4.426-1.957,6.301-3.503c1.86-1.531,3.358-3.421,4.441-5.659
	c1.102-2.252,1.662-4.822,1.696-7.717c-0.015-2.633-0.478-5.035-1.397-7.224c-0.904-2.17-2.189-4.015-3.832-5.513
	c-1.991-1.826-4.557-3.193-7.702-4.082c-3.126-0.904-6.977-1.348-11.553-1.348c-1.957,0-3.918,0.067-5.89,0.179
	c-1.976,0.116-3.884,0.28-5.692,0.493c-1.808,0.198-3.44,0.444-4.904,0.706L769.284,754.768L769.284,754.768z M777.875,695.138
	c0.74-0.198,1.826-0.362,3.242-0.493c1.43-0.131,3.175-0.198,5.248-0.198c3.044-0.019,5.711,0.43,8.015,1.285
	c2.286,0.874,4.064,2.222,5.349,4.03c1.266,1.826,1.924,4.165,1.942,7.026c-0.019,2.551-0.628,4.773-1.845,6.648
	c-1.218,1.894-2.947,3.358-5.184,4.411c-2.256,1.038-4.904,1.561-7.978,1.58h-8.785L777.875,695.138L777.875,695.138z
	 M862.168,754.768h8.591v-25.372l6.417-7.306l21.82,32.678h10.167l-25.966-38.307l24.091-28.237h-10.664l-20.337,24.98
	c-0.84,1.087-1.696,2.222-2.585,3.406c-0.874,1.184-1.759,2.42-2.652,3.701h-0.295v-32.088h-8.591v66.544H862.168z"/>
</svg>
