<svg xmlns="http://www.w3.org/2000/svg" xmlns:xlink="http://www.w3.org/1999/xlink" xmlns:rdf="http://www.w3.org/1999/02/22-rdf-syntax-ns#" xmlns:svg="http://www.w3.org/2000/svg" xmlns:dc="http://purl.org/dc/elements/1.1/" xmlns:cc="http://creativecommons.org/ns#"><defs><style>
    .sprite-symbol-usage {display: none;}
    .sprite-symbol-usage:target {display: inline;}
  </style><symbol viewBox="146.5 0 605.185 960" id="apache">

<path fill="url(#apache_SVGID_1_)" d="M616.882,4.565c-15.059,8.881-40.066,34.047-69.934,70.502l27.438,51.786
	c19.261-27.551,38.817-52.331,58.555-73.5c1.522-1.681,2.317-2.476,2.317-2.476c-0.772,0.818-1.544,1.658-2.317,2.476
	c-6.382,7.041-25.757,29.641-54.989,74.522c28.142-1.408,71.388-7.155,106.662-13.196c10.494-58.782-10.289-85.697-10.289-85.697
	S647.908-13.764,616.882,4.565z" />
<path fill="none" d="M570.433,299.974c0.204-0.045,0.409-0.068,0.613-0.114l-3.952,0.432c-0.25,0.114-0.454,0.227-0.704,0.318
	C567.753,300.406,569.093,300.179,570.433,299.974z" />
<path fill="none" d="M542.427,392.736c-2.249,0.5-4.543,0.886-6.859,1.227C537.885,393.621,540.179,393.212,542.427,392.736z" />
<path fill="none" d="M352.09,600.812c0.295-0.772,0.591-1.544,0.863-2.317c6.042-15.945,12.015-31.435,17.944-46.539
	c6.655-16.944,13.219-33.343,19.715-49.242c6.837-16.762,13.583-32.957,20.238-48.606c6.973-16.422,13.855-32.23,20.601-47.448
	c5.497-12.379,10.902-24.371,16.24-35.978c1.772-3.861,3.543-7.7,5.315-11.493c3.498-7.518,6.973-14.9,10.38-22.1
	c3.157-6.655,6.292-13.151,9.403-19.533c1.022-2.135,2.067-4.225,3.089-6.337c0.159-0.341,0.341-0.681,0.5-1.022l-3.362,0.363
	l-2.68-5.269c-0.25,0.522-0.522,1.022-0.795,1.545c-4.815,9.562-9.585,19.215-14.309,28.959c-2.726,5.633-5.451,11.289-8.154,16.967
	c-7.495,15.74-14.877,31.617-22.123,47.607c-7.336,16.149-14.514,32.389-21.555,48.652c-6.928,15.967-13.696,31.958-20.351,47.902
	c-6.632,15.922-13.106,31.799-19.443,47.562c-6.61,16.467-13.037,32.775-19.261,48.902c-1.408,3.634-2.816,7.268-4.202,10.902
	c-4.997,13.015-9.858,25.848-14.605,38.522l4.225,8.336l3.77-0.409c0.136-0.386,0.273-0.772,0.409-1.136
	C340.052,632.906,346.094,616.643,352.09,600.812z" />
<path fill="none" d="M533.819,394.235L533.819,394.235c0.023,0,0.023-0.023,0.045-0.023
	C533.865,394.212,533.842,394.212,533.819,394.235z" />
<path fill="#BE202E" d="M524.734,439.457c-3.498,0.636-7.109,1.249-10.812,1.885c-0.023,0-0.045,0.023-0.068,0.023
	c1.862-0.273,3.702-0.545,5.519-0.863S522.962,439.843,524.734,439.457z" />
<path opacity="0.35" fill="#BE202E" enable-background="new    " d="M524.734,439.457c-3.498,0.636-7.109,1.249-10.812,1.885
	c-0.023,0-0.045,0.023-0.068,0.023c1.862-0.273,3.702-0.545,5.519-0.863S522.962,439.843,524.734,439.457z" />
<path fill="#BE202E" d="M533.91,394.189c0,0-0.023,0-0.023,0.023c-0.023,0-0.023,0.023-0.045,0.023
	c0.591-0.068,1.158-0.182,1.726-0.25c2.339-0.341,4.634-0.75,6.859-1.227C539.634,393.212,536.795,393.712,533.91,394.189
	L533.91,394.189L533.91,394.189z" />
<path opacity="0.35" fill="#BE202E" enable-background="new    " d="M533.91,394.189c0,0-0.023,0-0.023,0.023
	c-0.023,0-0.023,0.023-0.045,0.023c0.591-0.068,1.158-0.182,1.726-0.25c2.339-0.341,4.634-0.75,6.859-1.227
	C539.634,393.212,536.795,393.712,533.91,394.189L533.91,394.189L533.91,394.189z" />

<path fill="url(#apache_SVGID_2_)" d="M493.503,260.658c8.336-15.581,16.785-30.822,25.325-45.654c8.858-15.4,17.83-30.345,26.893-44.745
	c0.522-0.84,1.068-1.704,1.59-2.567c8.949-14.173,17.989-27.801,27.097-40.838L546.97,75.067c-2.067,2.521-4.134,5.088-6.246,7.7
	c-7.904,9.858-16.126,20.465-24.553,31.708c-9.494,12.674-19.261,26.211-29.187,40.407c-9.153,13.128-18.443,26.87-27.733,41.088
	c-7.904,12.106-15.854,24.576-23.735,37.363c-0.295,0.477-0.591,0.954-0.886,1.431l35.705,70.525
	C477.967,290.185,485.69,275.285,493.503,260.658z" />

<path fill="url(#apache_SVGID_3_)" d="M330.876,658.027c-4.724,12.992-9.471,26.211-14.241,39.726c-0.068,0.204-0.136,0.386-0.204,0.591
	c-0.681,1.908-1.34,3.816-2.021,5.724c-3.203,9.108-5.996,17.307-12.379,35.955c10.516,4.793,18.966,17.421,26.961,31.753
	c-0.84-14.832-6.996-28.778-18.648-39.567c51.854,2.339,96.531-10.766,119.631-48.675c2.067-3.384,3.952-6.928,5.656-10.721
	c-10.494,13.31-23.508,18.966-48.016,17.58c-0.045,0.023-0.114,0.045-0.159,0.068c0.045-0.023,0.114-0.045,0.159-0.068
	c36.069-16.149,54.171-31.64,70.161-57.328c3.793-6.087,7.473-12.742,11.243-20.124c-31.549,32.389-68.094,41.611-106.594,34.615
	l-28.869,3.157C332.648,653.143,331.762,655.574,330.876,658.027z" />

<path fill="url(#apache_SVGID_4_)" d="M344.345,593.362c6.246-16.126,12.674-32.435,19.261-48.902c6.314-15.763,12.81-31.617,19.443-47.562
	c6.632-15.945,13.424-31.912,20.351-47.902c7.041-16.263,14.241-32.503,21.555-48.652c7.246-15.967,14.627-31.867,22.123-47.607
	c2.703-5.678,5.428-11.334,8.154-16.967c4.724-9.744,9.494-19.397,14.309-28.959c0.25-0.522,0.522-1.022,0.795-1.545l-35.705-70.525
	c-0.591,0.954-1.158,1.908-1.749,2.862c-8.313,13.583-16.603,27.483-24.735,41.679c-8.222,14.332-16.285,28.937-24.167,43.746
	c-6.655,12.492-13.151,25.098-19.465,37.818c-1.272,2.589-2.521,5.133-3.77,7.7c-7.791,16.013-14.809,31.481-21.169,46.358
	c-7.2,16.853-13.537,32.957-19.079,48.22c-3.657,10.039-6.973,19.738-10.017,29.05c-2.498,7.95-4.883,15.922-7.132,23.849
	c-5.338,18.693-9.926,37.341-13.696,55.92l35.887,70.843c4.747-12.674,9.608-25.507,14.605-38.522
	C341.528,600.653,342.937,596.996,344.345,593.362z" />

<path fill="url(#apache_SVGID_5_)" d="M289.174,574.465c-4.497,22.668-7.7,45.245-9.312,67.686c-0.045,0.795-0.136,1.567-0.182,2.362
	c-11.198-17.943-41.179-35.455-41.111-35.296c21.464,31.117,37.749,62.007,40.18,92.33c-11.493,2.362-27.233-1.045-45.427-7.745
	c18.966,17.421,33.207,22.236,38.749,23.531c-17.421,1.09-35.569,13.06-53.853,26.847c26.734-10.902,48.334-15.218,63.802-11.72
	c-24.53,69.457-49.129,146.137-73.727,227.542c7.541-2.226,12.038-7.291,14.559-14.15c4.384-14.741,33.479-111.454,79.065-238.58
	c1.295-3.611,2.612-7.246,3.929-10.902c0.363-1.022,0.75-2.044,1.113-3.044c4.815-13.333,9.812-26.938,14.968-40.816
	c1.181-3.157,2.362-6.314,3.543-9.494c0.023-0.068,0.045-0.136,0.068-0.182l-35.842-70.82
	C289.538,572.806,289.333,573.624,289.174,574.465z" />

<path fill="url(#apache_SVGID_6_)" d="M475.878,311.24c-1.022,2.09-2.044,4.202-3.089,6.337c-3.089,6.382-6.223,12.878-9.403,19.533
	c-3.43,7.2-6.882,14.559-10.38,22.1c-1.772,3.793-3.521,7.609-5.315,11.493c-5.338,11.607-10.743,23.599-16.24,35.978
	c-6.746,15.218-13.628,31.026-20.601,47.448c-6.655,15.649-13.401,31.844-20.238,48.606c-6.496,15.899-13.06,32.321-19.715,49.242
	c-5.928,15.104-11.902,30.595-17.944,46.539c-0.295,0.772-0.591,1.545-0.863,2.317c-5.996,15.831-12.038,32.094-18.125,48.765
	c-0.136,0.386-0.273,0.772-0.409,1.136l28.869-3.157c-0.568-0.114-1.158-0.182-1.726-0.295
	c34.524-4.293,80.405-30.095,110.069-61.939c13.673-14.673,26.075-31.98,37.545-52.241c8.54-15.082,16.558-31.799,24.19-50.31
	c6.678-16.172,13.083-33.684,19.261-52.672c-7.927,4.179-17.012,7.246-27.029,9.381c-1.749,0.363-3.543,0.727-5.36,1.045
	s-3.657,0.613-5.519,0.863l0,0l0,0c0.023,0,0.045-0.023,0.068-0.023c32.185-12.379,52.49-36.296,67.254-65.573
	c-8.472,5.769-22.236,13.333-38.726,16.967c-2.249,0.5-4.543,0.886-6.859,1.227c-0.591,0.091-1.158,0.182-1.726,0.25l0,0l0,0
	c0.023,0,0.023-0.023,0.045-0.023c0,0,0.023,0,0.023-0.023l0,0c11.175-4.679,20.601-9.903,28.778-16.081
	c1.749-1.317,3.452-2.68,5.088-4.111c2.498-2.158,4.861-4.429,7.132-6.814c1.454-1.522,2.862-3.089,4.225-4.724
	c3.203-3.816,6.201-7.927,9.017-12.401c0.863-1.363,1.703-2.748,2.544-4.179c1.068-2.067,2.09-4.088,3.089-6.087
	c4.497-9.04,8.086-17.103,10.948-24.19c1.431-3.543,2.68-6.814,3.748-9.858c0.432-1.204,0.84-2.385,1.227-3.521
	c1.136-3.407,2.067-6.428,2.794-9.085c1.09-3.975,1.749-7.132,2.112-9.426l0,0l0,0c-1.09,0.863-2.339,1.726-3.748,2.567
	c-9.721,5.815-26.393,11.084-39.839,13.56l26.506-2.907l-26.506,2.907c-0.204,0.045-0.409,0.068-0.613,0.114
	c-1.34,0.227-2.703,0.432-4.066,0.659c0.25-0.114,0.454-0.227,0.704-0.318l-90.694,9.948
	C476.218,310.582,476.059,310.9,475.878,311.24z" />

<path fill="url(#apache_SVGID_7_)" d="M577.974,127.899c-8.063,12.379-16.876,26.438-26.347,42.36c-0.5,0.818-0.999,1.681-1.499,2.521
	c-8.177,13.787-16.876,28.914-26.007,45.495c-7.904,14.309-16.126,29.664-24.667,46.176c-7.45,14.378-15.15,29.641-23.054,45.79
	l90.694-9.948c26.416-12.152,38.226-23.145,49.697-39.044c3.044-4.384,6.11-8.972,9.154-13.719
	c9.312-14.536,18.443-30.549,26.62-46.471c7.882-15.377,14.832-30.618,20.169-44.359c3.384-8.745,6.11-16.876,7.995-24.008
	c1.658-6.292,2.953-12.265,3.952-17.966C649.362,120.744,606.116,126.513,577.974,127.899z" />
<path fill="#BE202E" d="M519.373,440.502c-1.817,0.318-3.657,0.613-5.519,0.863l0,0C515.717,441.115,517.556,440.82,519.373,440.502
	z" />
<path opacity="0.35" fill="#BE202E" enable-background="new    " d="M519.373,440.502c-1.817,0.318-3.657,0.613-5.519,0.863l0,0
	C515.717,441.115,517.556,440.82,519.373,440.502z" />

<path fill="url(#apache_SVGID_8_)" d="M519.373,440.502c-1.817,0.318-3.657,0.613-5.519,0.863l0,0
	C515.717,441.115,517.556,440.82,519.373,440.502z" />
<path fill="#BE202E" d="M533.819,394.235c0.591-0.068,1.158-0.182,1.726-0.25C534.978,394.053,534.41,394.144,533.819,394.235
	L533.819,394.235z" />
<path opacity="0.35" fill="#BE202E" enable-background="new    " d="M533.819,394.235c0.591-0.068,1.158-0.182,1.726-0.25
	C534.978,394.053,534.41,394.144,533.819,394.235L533.819,394.235z" />

<path fill="url(#apache_SVGID_9_)" d="M533.819,394.235c0.591-0.068,1.158-0.182,1.726-0.25
	C534.978,394.053,534.41,394.144,533.819,394.235L533.819,394.235z" />
<path fill="#BE202E" d="M533.887,394.212c0,0,0.023,0,0.023-0.023l0,0l0,0l0,0C533.91,394.189,533.887,394.189,533.887,394.212z" />
<path opacity="0.35" fill="#BE202E" enable-background="new    " d="M533.887,394.212c0,0,0.023,0,0.023-0.023l0,0l0,0l0,0
	C533.91,394.189,533.887,394.189,533.887,394.212z" />

<path fill="url(#apache_SVGID_10_)" d="M533.887,394.212c0,0,0.023,0,0.023-0.023l0,0l0,0l0,0
	C533.91,394.189,533.887,394.189,533.887,394.212z" />
</symbol><linearGradient id="apache_SVGID_1_" gradientUnits="userSpaceOnUse" x1="-5269.1543" y1="1103.3634" x2="-4672.1743" y2="405.2993" gradientTransform="matrix(0.096 -0.2059 -0.2059 -0.096 1303.0938 -897.3568)">
	<stop offset="0" style="stop-color:#F69923" />
	<stop offset="0.3123" style="stop-color:#F79A23" />
	<stop offset="0.8383" style="stop-color:#E97826" />
</linearGradient><linearGradient id="apache_SVGID_2_" gradientUnits="userSpaceOnUse" x1="-9687.459" y1="1180.4685" x2="-5428.3262" y2="1180.4685" gradientTransform="matrix(0.096 -0.2059 -0.2059 -0.096 1303.0938 -897.3568)">
	<stop offset="0.3233" style="stop-color:#9E2064" />
	<stop offset="0.6302" style="stop-color:#C92037" />
	<stop offset="0.7514" style="stop-color:#CD2335" />
	<stop offset="1" style="stop-color:#E97826" />
</linearGradient><linearGradient id="apache_SVGID_3_" gradientUnits="userSpaceOnUse" x1="-9173.3242" y1="753.2125" x2="-6635.2954" y2="753.2125" gradientTransform="matrix(0.096 -0.2059 -0.2059 -0.096 1303.0938 -897.3568)">
	<stop offset="0" style="stop-color:#282662" />
	<stop offset="0.0955" style="stop-color:#662E8D" />
	<stop offset="0.7882" style="stop-color:#9F2064" />
	<stop offset="0.9487" style="stop-color:#CD2032" />
</linearGradient><linearGradient id="apache_SVGID_4_" gradientUnits="userSpaceOnUse" x1="-9448.2432" y1="1220.2843" x2="-5189.1113" y2="1220.2843" gradientTransform="matrix(0.096 -0.2059 -0.2059 -0.096 1303.0938 -897.3568)">
	<stop offset="0.3233" style="stop-color:#9E2064" />
	<stop offset="0.6302" style="stop-color:#C92037" />
	<stop offset="0.7514" style="stop-color:#CD2335" />
	<stop offset="1" style="stop-color:#E97826" />
</linearGradient><linearGradient id="apache_SVGID_5_" gradientUnits="userSpaceOnUse" x1="-9137.6201" y1="1162.5199" x2="-6899.3184" y2="1162.5199" gradientTransform="matrix(0.096 -0.2059 -0.2059 -0.096 1303.0938 -897.3568)">
	<stop offset="0" style="stop-color:#282662" />
	<stop offset="0.0955" style="stop-color:#662E8D" />
	<stop offset="0.7882" style="stop-color:#9F2064" />
	<stop offset="0.9487" style="stop-color:#CD2032" />
</linearGradient><linearGradient id="apache_SVGID_6_" gradientUnits="userSpaceOnUse" x1="-9448.2432" y1="779.3007" x2="-5189.1113" y2="779.3007" gradientTransform="matrix(0.096 -0.2059 -0.2059 -0.096 1303.0938 -897.3568)">
	<stop offset="0.3233" style="stop-color:#9E2064" />
	<stop offset="0.6302" style="stop-color:#C92037" />
	<stop offset="0.7514" style="stop-color:#CD2335" />
	<stop offset="1" style="stop-color:#E97826" />
</linearGradient><linearGradient id="apache_SVGID_7_" gradientUnits="userSpaceOnUse" x1="-9712.4512" y1="801.0811" x2="-5453.3188" y2="801.0811" gradientTransform="matrix(0.096 -0.2059 -0.2059 -0.096 1303.0938 -897.3568)">
	<stop offset="0.3233" style="stop-color:#9E2064" />
	<stop offset="0.6302" style="stop-color:#C92037" />
	<stop offset="0.7514" style="stop-color:#CD2335" />
	<stop offset="1" style="stop-color:#E97826" />
</linearGradient><linearGradient id="apache_SVGID_8_" gradientUnits="userSpaceOnUse" x1="-9448.2432" y1="648.2098" x2="-5189.1113" y2="648.2098" gradientTransform="matrix(0.096 -0.2059 -0.2059 -0.096 1303.0938 -897.3568)">
	<stop offset="0.3233" style="stop-color:#9E2064" />
	<stop offset="0.6302" style="stop-color:#C92037" />
	<stop offset="0.7514" style="stop-color:#CD2335" />
	<stop offset="1" style="stop-color:#E97826" />
</linearGradient><linearGradient id="apache_SVGID_9_" gradientUnits="userSpaceOnUse" x1="-9448.2432" y1="663.2331" x2="-5189.1113" y2="663.2331" gradientTransform="matrix(0.096 -0.2059 -0.2059 -0.096 1303.0938 -897.3568)">
	<stop offset="0.3233" style="stop-color:#9E2064" />
	<stop offset="0.6302" style="stop-color:#C92037" />
	<stop offset="0.7514" style="stop-color:#CD2335" />
	<stop offset="1" style="stop-color:#E97826" />
</linearGradient><linearGradient id="apache_SVGID_10_" gradientUnits="userSpaceOnUse" x1="-7055.5244" y1="666.1908" x2="-6114.1167" y2="666.1908" gradientTransform="matrix(0.096 -0.2059 -0.2059 -0.096 1303.0938 -897.3568)">
	<stop offset="0.3233" style="stop-color:#9E2064" />
	<stop offset="0.6302" style="stop-color:#C92037" />
	<stop offset="0.7514" style="stop-color:#CD2335" />
	<stop offset="1" style="stop-color:#E97826" />
</linearGradient><symbol viewBox="0 0 87.041 108.445" id="debian">
<g>
	<path fill="#A80030" d="M51.986,57.297c-1.797,0.025,0.34,0.926,2.686,1.287c0.648-0.506,1.236-1.018,1.76-1.516
		C54.971,57.426,53.484,57.434,51.986,57.297" />
	<path fill="#A80030" d="M61.631,54.893c1.07-1.477,1.85-3.094,2.125-4.766c-0.24,1.192-0.887,2.221-1.496,3.307
		c-3.359,2.115-0.316-1.256-0.002-2.537C58.646,55.443,61.762,53.623,61.631,54.893" />
	<path fill="#A80030" d="M65.191,45.629c0.217-3.236-0.637-2.213-0.924-0.978C64.602,44.825,64.867,46.932,65.191,45.629" />
	<path fill="#A80030" d="M45.172,1.399c0.959,0.172,2.072,0.304,1.916,0.533C48.137,1.702,48.375,1.49,45.172,1.399" />
	<path fill="#A80030" d="M47.088,1.932l-0.678,0.14l0.631-0.056L47.088,1.932" />
	<path fill="#A80030" d="M76.992,46.856c0.107,2.906-0.85,4.316-1.713,6.812l-1.553,0.776c-1.271,2.468,0.123,1.567-0.787,3.53
		c-1.984,1.764-6.021,5.52-7.313,5.863c-0.943-0.021,0.639-1.113,0.846-1.541c-2.656,1.824-2.131,2.738-6.193,3.846l-0.119-0.264
		c-10.018,4.713-23.934-4.627-23.751-17.371c-0.107,0.809-0.304,0.607-0.526,0.934c-0.517-6.557,3.028-13.143,9.007-15.832
		c5.848-2.895,12.704-1.707,16.893,2.197c-2.301-3.014-6.881-6.209-12.309-5.91c-5.317,0.084-10.291,3.463-11.951,7.131
		c-2.724,1.715-3.04,6.611-4.227,7.507C31.699,56.271,36.3,61.342,44.083,67.307c1.225,0.826,0.345,0.951,0.511,1.58
		c-2.586-1.211-4.954-3.039-6.901-5.277c1.033,1.512,2.148,2.982,3.589,4.137c-2.438-0.826-5.695-5.908-6.646-6.115
		c4.203,7.525,17.052,13.197,23.78,10.383c-3.113,0.115-7.068,0.064-10.566-1.229c-1.469-0.756-3.467-2.322-3.11-2.615
		c9.182,3.43,18.667,2.598,26.612-3.771c2.021-1.574,4.229-4.252,4.867-4.289c-0.961,1.445,0.164,0.695-0.574,1.971
		c2.014-3.248-0.875-1.322,2.082-5.609l1.092,1.504c-0.406-2.696,3.348-5.97,2.967-10.234c0.861-1.304,0.961,1.403,0.047,4.403
		c1.268-3.328,0.334-3.863,0.66-6.609c0.352,0.923,0.814,1.904,1.051,2.878c-0.826-3.216,0.848-5.416,1.262-7.285
		c-0.408-0.181-1.275,1.422-1.473-2.377c0.029-1.65,0.459-0.865,0.625-1.271c-0.324-0.186-1.174-1.451-1.691-3.877
		c0.375-0.57,1.002,1.478,1.512,1.562c-0.328-1.929-0.893-3.4-0.916-4.88c-1.49-3.114-0.527,0.415-1.736-1.337
		c-1.586-4.947,1.316-1.148,1.512-3.396c2.404,3.483,3.775,8.881,4.404,11.117c-0.48-2.726-1.256-5.367-2.203-7.922
		c0.73,0.307-1.176-5.609,0.949-1.691c-2.27-8.352-9.715-16.156-16.564-19.818c0.838,0.767,1.896,1.73,1.516,1.881
		c-3.406-2.028-2.807-2.186-3.295-3.043c-2.775-1.129-2.957,0.091-4.795,0.002c-5.23-2.774-6.238-2.479-11.051-4.217l0.219,1.023
		c-3.465-1.154-4.037,0.438-7.782,0.004c-0.228-0.178,1.2-0.644,2.375-0.815c-3.35,0.442-3.193-0.66-6.471,0.122
		c0.808-0.567,1.662-0.942,2.524-1.424c-2.732,0.166-6.522,1.59-5.352,0.295c-4.456,1.988-12.37,4.779-16.811,8.943l-0.14-0.933
		c-2.035,2.443-8.874,7.296-9.419,10.46l-0.544,0.127c-1.059,1.793-1.744,3.825-2.584,5.67c-1.385,2.36-2.03,0.908-1.833,1.278
		c-2.724,5.523-4.077,10.164-5.246,13.97c0.833,1.245,0.02,7.495,0.335,12.497c-1.368,24.704,17.338,48.69,37.785,54.228
		c2.997,1.072,7.454,1.031,11.245,1.141c-4.473-1.279-5.051-0.678-9.408-2.197c-3.143-1.48-3.832-3.17-6.058-5.102l0.881,1.557
		c-4.366-1.545-2.539-1.912-6.091-3.037l0.941-1.229c-1.415-0.107-3.748-2.385-4.386-3.646l-1.548,0.061
		c-1.86-2.295-2.851-3.949-2.779-5.23l-0.5,0.891c-0.567-0.973-6.843-8.607-3.587-6.83c-0.605-0.553-1.409-0.9-2.281-2.484
		l0.663-0.758c-1.567-2.016-2.884-4.6-2.784-5.461c0.836,1.129,1.416,1.34,1.99,1.533c-3.957-9.818-4.179-0.541-7.176-9.994
		l0.634-0.051c-0.486-0.732-0.781-1.527-1.172-2.307l0.276-2.75C4.667,58.121,6.719,47.409,7.13,41.534
		c0.285-2.389,2.378-4.932,3.97-8.92l-0.97-0.167c1.854-3.234,10.586-12.988,14.63-12.486c1.959-2.461-0.389-0.009-0.772-0.629
		c4.303-4.453,5.656-3.146,8.56-3.947c3.132-1.859-2.688,0.725-1.203-0.709c5.414-1.383,3.837-3.144,10.9-3.846
		c0.745,0.424-1.729,0.655-2.35,1.205c4.511-2.207,14.275-1.705,20.617,1.225c7.359,3.439,15.627,13.605,15.953,23.17l0.371,0.1
		c-0.188,3.802,0.582,8.199-0.752,12.238L76.992,46.856" />
	<path fill="#A80030" d="M32.372,59.764l-0.252,1.26c1.181,1.604,2.118,3.342,3.626,4.596
		C34.661,63.502,33.855,62.627,32.372,59.764" />
	<path fill="#A80030" d="M35.164,59.654c-0.625-0.691-0.995-1.523-1.409-2.352c0.396,1.457,1.207,2.709,1.962,3.982L35.164,59.654" />
	<path fill="#A80030" d="M84.568,48.916l-0.264,0.662c-0.484,3.438-1.529,6.84-3.131,9.994
		C82.943,56.244,84.088,52.604,84.568,48.916" />
	<path fill="#A80030" d="M45.527,0.537C46.742,0.092,48.514,0.293,49.803,0c-1.68,0.141-3.352,0.225-5.003,0.438L45.527,0.537" />
	<path fill="#A80030" d="M2.872,23.219c0.28,2.592-1.95,3.598,0.494,1.889C4.676,22.157,2.854,24.293,2.872,23.219" />
	<path fill="#A80030" d="M0,35.215c0.563-1.728,0.665-2.766,0.88-3.766C-0.676,33.438,0.164,33.862,0,35.215" />
</g>
</symbol><symbol viewBox="0 0 400.685 400.668" id="git">
<path fill="#F05133" d="M393.13,182.488L218.177,7.557c-10.066-10.075-26.406-10.075-36.485,0l-36.327,36.331l46.08,46.08
	c10.712-3.617,22.991-1.192,31.526,7.345c8.579,8.59,10.987,20.973,7.279,31.722l44.413,44.413
	c10.745-3.703,23.142-1.311,31.722,7.284c11.995,11.992,11.995,31.423,0,43.417c-11.997,11.999-31.428,11.999-43.431,0
	c-9.019-9.026-11.25-22.278-6.682-33.391l-41.42-41.42l-0.004,108.995c2.924,1.448,5.684,3.38,8.121,5.806
	c11.992,11.99,11.992,31.418,0,43.428c-11.995,11.99-31.435,11.99-43.417,0c-11.993-12.009-11.993-31.437,0-43.428
	c2.964-2.959,6.394-5.198,10.053-6.699V147.431c-3.661-1.495-7.087-3.717-10.055-6.7c-9.084-9.077-11.272-22.41-6.613-33.566
	L127.51,61.733L7.559,181.68c-10.079,10.083-10.079,26.423,0,36.499l174.943,174.932c10.072,10.076,26.406,10.076,36.492,0
	l174.134-174.106c10.076-10.08,10.076-26.425,0-36.503" />
</symbol><symbol viewBox="139.937 0 680.126 960" id="html5">
<polygon fill="#E44D26" points="201.832,882.894 139.937,188.663 820.063,188.663 758.102,882.786 479.584,960 " />
<polygon fill="#F16529" points="480,900.981 705.056,838.586 758.006,245.426 480,245.426 " />
<polygon fill="#EBEBEB" points="480,502.907 367.331,502.907 359.55,415.717 480,415.717 480,330.572 479.706,330.572 
	266.497,330.572 268.536,353.415 289.462,588.051 480,588.051 " />
<polygon fill="#EBEBEB" points="480,724.037 479.627,724.136 384.801,698.531 378.739,630.624 332.661,630.624 293.267,630.624 
	305.196,764.314 479.608,812.732 480,812.623 " />
<path d="M203.216,0h43.269v42.75h39.581V0h43.271v129.458h-43.269v-43.35h-39.581v43.35h-43.269V0H203.216z" />
<path d="M386.239,42.93h-38.092V0h119.475v42.93h-38.109v86.528h-43.271V42.93H386.239z" />
<path d="M486.583,0h45.118l27.754,45.487L587.181,0h45.135v129.458h-43.091V65.291l-29.769,46.029h-0.744l-29.79-46.029v64.166
	h-42.337V0z" />
<path d="M653.85,0h43.283v86.666h60.849v42.791H653.85V0z" />
<polygon fill="#FFFFFF" points="479.706,502.907 479.706,588.051 584.552,588.051 574.669,698.477 479.706,724.108 479.706,812.691 
	654.257,764.314 655.537,749.929 675.546,525.771 677.623,502.907 654.679,502.907 " />
<polygon fill="#FFFFFF" points="479.706,330.572 479.706,383.454 479.706,415.509 479.706,415.717 685.097,415.717 685.097,415.717 
	685.371,415.717 687.079,396.579 690.958,353.415 692.994,330.572 " />
</symbol><symbol viewBox="0 0 147.668 200.222" id="java">
<g>
	<path fill="#5382A1" d="M47.558,154.842c0,0-7.651,4.449,5.445,5.955c15.865,1.811,23.975,1.551,41.459-1.758
		c0,0,4.597,2.881,11.017,5.378C66.284,181.216,16.772,163.445,47.558,154.842" />
	<path fill="#5382A1" d="M42.768,132.921c0,0-8.581,6.353,4.524,7.708c16.949,1.749,30.334,1.891,53.494-2.568
		c0,0,3.204,3.248,8.241,5.023C61.637,156.942,8.854,144.178,42.768,132.921" />
	<path fill="#E76F00" d="M83.145,95.736c9.658,11.119-2.537,21.125-2.537,21.125s24.522-12.659,13.261-28.512
		C83.35,73.565,75.284,66.22,118.952,40.895C118.952,40.895,50.408,58.014,83.145,95.736" />
	<path fill="#5382A1" d="M134.985,171.056c0,0,5.661,4.666-6.236,8.274c-22.624,6.854-94.164,8.924-114.038,0.273
		c-7.144-3.107,6.253-7.421,10.468-8.326c4.395-0.953,6.906-0.775,6.906-0.775c-7.944-5.596-51.353,10.99-22.049,15.74
		C89.952,199.203,155.714,180.407,134.985,171.056" />
	<path fill="#5382A1" d="M51.238,110.208c0,0-36.391,8.643-12.887,11.782c9.924,1.329,29.706,1.028,48.134-0.516
		c15.06-1.271,30.182-3.971,30.182-3.971s-5.31,2.274-9.152,4.897c-36.953,9.719-108.34,5.197-87.789-4.744
		C37.106,109.256,51.238,110.208,51.238,110.208" />
	<path fill="#5382A1" d="M116.516,146.697c37.566-19.52,20.197-38.279,8.073-35.751c-2.971,0.618-4.296,1.154-4.296,1.154
		s1.104-1.728,3.21-2.476c23.982-8.432,42.427,24.868-7.742,38.057C115.762,147.682,116.344,147.162,116.516,146.697" />
	<path fill="#E76F00" d="M93.869,0c0,0,20.804,20.811-19.732,52.813c-32.505,25.67-7.412,40.307-0.013,57.03
		c-18.975-17.12-32.899-32.189-23.557-46.215C64.278,43.039,102.262,33.057,93.869,0" />
	<path fill="#5382A1" d="M54.928,199.592c36.058,2.309,91.428-1.281,92.739-18.342c0,0-2.52,6.467-29.8,11.604
		c-30.775,5.792-68.732,5.115-91.246,1.404C26.623,194.258,31.23,198.073,54.928,199.592" />
</g>
</symbol><symbol viewBox="0 0 256 283" preserveAspectRatio="xMidYMid" id="jest">
	<g>
		<path d="M239.972557,139.203 C239.972557,124.669 228.190557,112.887 213.656557,112.887 C212.721557,112.887 211.799557,112.937 210.890557,113.032 L247.035557,6.427 L93.431557,6.427 L129.525557,112.94 C128.996557,112.908 128.464557,112.887 127.926557,112.887 C113.392557,112.887 101.610557,124.669 101.610557,139.203 C101.610557,150.951 109.309557,160.897 119.936557,164.281 C114.323557,174.003 107.261557,182.759 99.243557,190.323 C88.340557,200.609 75.862557,208.408 62.367557,213.214 C46.299557,204.96 38.711557,186.602 45.558557,170.507 C46.331557,168.69 47.120557,166.847 47.875557,165.013 C59.515557,162.296 68.189557,151.86 68.189557,139.392 C68.189557,124.858 56.407557,113.076 41.873557,113.076 C27.338557,113.076 15.556557,124.858 15.556557,139.392 C15.556557,148.305 19.991557,156.176 26.769557,160.937 C20.255557,175.768 10.681557,191.288 7.69855701,209.276 C4.12355701,230.835 7.68755701,253.719 26.332557,266.642 C69.756557,296.738 116.892557,247.985 166.591557,235.729 C184.602557,231.287 204.373557,232.003 220.242557,222.812 C232.159557,215.91 240.015557,204.472 242.245557,191.63 C244.447557,178.944 241.236557,166.313 233.852557,156.071 C237.671557,151.503 239.972557,145.623 239.972557,139.203 L239.972557,139.203 Z M154.240557,139.296 C154.240557,139.265 154.243557,139.234 154.243557,139.203 C154.243557,129.659 149.161557,121.301 141.557557,116.688 L170.285557,58.597 L199.063557,117.304 C191.996557,122.022 187.339557,130.068 187.339557,139.203 C187.339557,139.395 187.350557,139.584 187.354557,139.775 L154.240557,139.296 L154.240557,139.296 Z" fill="#C63D14" />
		<path d="M246.399036,139.203 C246.399036,123.218 234.882036,109.88 219.711036,107.031 L256.000036,0 L84.4660355,0 L120.810036,107.248 C106.167036,110.507 95.1830355,123.593 95.1830355,139.203 C95.1830355,150.926 101.378036,161.223 110.663036,167.009 C106.197036,173.662 100.901036,179.923 94.8320355,185.648 C85.2080355,194.728 74.4850355,201.614 62.9250355,206.144 C51.2820355,198.83 46.3600355,185.038 51.4720355,173.022 L51.8720355,172.082 C52.1220355,171.494 52.3730355,170.904 52.6230355,170.314 C65.4110355,165.855 74.6160355,153.682 74.6160355,139.392 C74.6160355,121.337 59.9270355,106.649 41.8720355,106.649 C23.8170355,106.649 9.12903553,121.337 9.12903553,139.392 C9.12903553,148.505 12.8740355,156.757 18.9020355,162.699 C17.8090355,165.029 16.6600355,167.397 15.4790355,169.823 C9.96703553,181.144 3.72003553,193.976 1.35703553,208.225 C-3.33596447,236.524 4.23303553,259.146 22.6700355,271.924 C33.8580355,279.678 45.2190355,282.728 56.6520355,282.727 C78.1810355,282.726 99.9580355,271.911 121.258036,261.331 C136.599036,253.712 152.461036,245.833 168.130036,241.969 C173.960036,240.531 179.959036,239.666 186.310036,238.75 C198.904036,236.933 211.928036,235.055 223.464036,228.374 C236.835036,220.629 245.989036,207.637 248.577036,192.73 C250.799036,179.933 248.124036,167.117 241.602036,156.247 C244.643036,151.279 246.399036,145.443 246.399036,139.203 L246.399036,139.203 Z M233.545036,139.203 C233.545036,150.17 224.623036,159.093 213.655036,159.093 C202.689036,159.093 193.766036,150.17 193.766036,139.203 C193.766036,128.236 202.689036,119.314 213.655036,119.314 C224.623036,119.314 233.545036,128.236 233.545036,139.203 L233.545036,139.203 Z M238.069036,12.854 L206.024036,107.367 C204.635036,107.7 203.281036,108.12 201.966036,108.625 L170.310036,44.047 L138.562036,108.243 C137.190036,107.77 135.778036,107.381 134.330036,107.093 L102.395036,12.854 L238.069036,12.854 L238.069036,12.854 Z M127.926036,119.314 C138.893036,119.314 147.815036,128.236 147.815036,139.203 C147.815036,150.17 138.893036,159.093 127.926036,159.093 C116.960036,159.093 108.037036,150.17 108.037036,139.203 C108.037036,128.236 116.960036,119.314 127.926036,119.314 L127.926036,119.314 Z M41.8720355,119.503 C52.8400355,119.503 61.7620355,128.425 61.7620355,139.392 C61.7620355,150.359 52.8400355,159.282 41.8720355,159.282 C30.9060355,159.282 21.9830355,150.359 21.9830355,139.392 C21.9830355,128.425 30.9060355,119.503 41.8720355,119.503 L41.8720355,119.503 Z M235.912036,190.531 C233.977036,201.679 227.091036,211.418 217.021036,217.25 C207.634036,222.687 196.385036,224.31 184.475036,226.027 C178.095036,226.947 171.497036,227.899 165.052036,229.489 C148.010036,233.691 131.503036,241.89 115.540036,249.819 C83.5950355,265.686 56.0060355,279.388 29.9930355,261.359 C10.9380355,248.153 11.8180355,223.718 14.0380355,210.328 C16.0950355,197.923 21.6570355,186.498 27.0360355,175.449 C27.9670355,173.537 28.8710355,171.664 29.7580355,169.803 C32.4260355,170.87 35.2630355,171.597 38.2200355,171.927 C32.7450355,189.998 41.3560355,209.646 59.4290355,218.931 L61.9020355,220.202 L64.5220355,219.269 C78.8100355,214.181 91.9750355,206.015 103.653036,194.998 C111.202036,187.877 117.689036,179.998 123.023036,171.579 C124.623036,171.82 126.260036,171.947 127.926036,171.947 C145.981036,171.947 160.670036,157.259 160.670036,139.203 C160.670036,129.493 156.417036,120.761 149.681036,114.759 L170.259036,73.147 L191.046036,115.552 C184.809036,121.518 180.912036,129.911 180.912036,139.203 C180.912036,157.259 195.600036,171.947 213.655036,171.947 C220.592036,171.947 227.027036,169.773 232.327036,166.079 C236.007036,173.612 237.378036,182.088 235.912036,190.531 L235.912036,190.531 Z" fill="#FFFFFF" />
	</g>
</symbol><symbol viewBox="89.995 -1.575 190.55 198.613" id="jquery">
<g>
	<g>
		<path fill="#131B28" d="M144.439,164.327l0-0.002l-1.522,5.395L144.439,164.327L144.439,164.327z" />
		<path fill="#131B28" d="M152.269,176.039l-1.678-0.01L152.269,176.039z" />
		<path fill="#131B28" d="M151.837,184.096h0.002l-10.051,0.037L151.837,184.096L151.837,184.096z" />
		<path fill="#131B28" d="M153.944,176.049l-1.678-0.01L153.944,176.049z" />
		<path fill="#131B28" d="M152.718,183.411l1.751-6.677l-1.751,6.678V183.411L152.718,183.411z" />
		<path fill="#131B28" d="M189.722,152.664l-3.261,15.332C186.461,167.996,189.722,152.664,189.722,152.664z" />
		<path fill="#131B28" d="M181.338,152.664l-2.476,11.454L181.338,152.664L181.338,152.664z" />
		<path fill="#131B28" d="M189.163,151.974h-6.974c-0.387,0-0.771,0.31-0.854,0.689l-2.476,11.454l-2.476,11.454
			c-0.082,0.378-0.466,0.687-0.853,0.687H171.3h-0.705c-4.883,0-4.319-3.377-3.318-8.005c0.01-0.047,0.02-0.092,0.03-0.14
			l0.11-0.583c0.007-0.038,0.014-0.075,0.02-0.11l0.223-1.188l0.239-1.273c0.073-0.384,0.183-0.945,0.255-1.297l1.125-5.499
			l1.126-5.499c0.078-0.379-0.176-0.691-0.563-0.691h-7.158c-0.387,0-0.77,0.312-0.849,0.69l-1.539,7.302l-1.539,7.301
			c-0.001,0.003-0.002,0.008-0.002,0.011l-0.143,0.679c-1.773,8.094-1.303,15.812,8.332,16.054c0.157,0.005,0.279,0.006,0.279,0.006
			h15.124c0.387,0,0.77-0.31,0.851-0.69l3.261-15.331l3.261-15.332C189.801,152.285,189.55,151.974,189.163,151.974L189.163,151.974
			z" />
		<path fill="#131B28" d="M216.984,176.339c0.388,0,0.641,0.31,0.563,0.69l-0.677,3.31" />
		<path fill="#131B28" d="M216.194,183.649l0.677-3.312l-0.677,3.313C216.193,183.65,216.194,183.65,216.194,183.649
			L216.194,183.649z" />
		<path fill="#131B28" d="M215.345,184.346c0.001,0,0.002-0.001,0.003-0.001c-2.052,0.017-8.22,0.063-12.855,0.063
			C208.134,184.408,215.344,184.346,215.345,184.346L215.345,184.346z" />
		<path fill="#131B28" d="M198.333,172.076c-0.006-0.363,0.407-0.987,0.794-0.987l-0.871-0.014
			C197.864,175.022,198.333,172.076,198.333,172.076L198.333,172.076z" />
		<path fill="#131B28" d="M203.128,184.407c-0.044,0-0.09,0-0.134,0.001C203.038,184.407,203.084,184.407,203.128,184.407z" />
		<path fill="#131B28" d="M216.984,176.339c0.388,0,0.641,0.31,0.563,0.69l-0.677,3.31l-0.11,0.54" />
		<path fill="#131B28" d="M206.43,184.399h-0.028H206.43z" />
		<path fill="#131B28" d="M204.718,184.405h-0.099H204.718z" />
		<path fill="#131B28" d="M204.196,184.406c-0.055,0-0.11,0-0.164,0.001C204.086,184.406,204.14,184.406,204.196,184.406z" />
		<path fill="#131B28" d="M203.664,184.407h-0.144H203.664z" />
		<path fill="#131B28" d="M204.618,184.405c-0.141,0-0.283,0.001-0.422,0.001C204.335,184.406,204.477,184.405,204.618,184.405z" />
		<path fill="#131B28" d="M206.403,184.399c-0.564,0.002-1.128,0.005-1.683,0.006C205.275,184.404,205.839,184.402,206.403,184.399z
			" />
		<path fill="#131B28" d="M215.349,184.345L215.349,184.345c-1.504,0.012-5.218,0.04-8.922,0.054
			C210.13,184.386,213.845,184.357,215.349,184.345z" />
		<path fill="#131B28" d="M216.194,183.651l0.567-2.773l-0.568,2.775C216.193,183.652,216.194,183.652,216.194,183.651
			L216.194,183.651z" />
		<path fill="#131B28" d="M204.032,184.407h-0.368H204.032z" />
		<path fill="#131B28" d="M202.992,184.408h-0.498H202.992z" />
		<path fill="#131B28" d="M203.519,184.407h-0.393H203.519z" />
		<path fill="#131B28" d="M101.504,172.159l1.083-4.802l-1.238,5.489l-1.189,5.591l1.042-4.902
			C101.283,173.156,101.419,172.537,101.504,172.159L101.504,172.159z" />
		<path fill="#131B28" d="M114.47,151.893h-7.659c-0.388,0-0.774,0.309-0.86,0.686l-0.726,3.205l-0.726,3.207
			c-0.085,0.377,0.161,0.686,0.549,0.686h7.718c0.387,0,0.772-0.309,0.855-0.687l0.702-3.205l0.702-3.203v-0.001
			C115.107,152.202,114.858,151.893,114.47,151.893L114.47,151.893z" />
		<path fill="#131B28" d="M112.804,162.556L112.804,162.556l-2.246,10.391L112.804,162.556z" />
		<path fill="#131B28" d="M103.671,162.554l-1.084,4.802L103.671,162.554z" />
		<path fill="#131B28" d="M112.249,161.867h-7.719c-0.387,0-0.774,0.309-0.859,0.687l-1.084,4.802l-1.083,4.802
			c-0.085,0.378-0.222,0.998-0.302,1.377l-1.042,4.902l-1.041,4.902c-0.081,0.378-0.247,0.989-0.371,1.356
			c0,0-1.442,4.291-3.866,4.242c-0.103-0.002-0.203-0.003-0.303-0.006c-1.175-0.022-2.098-0.039-2.098-0.039h-0.002
			c-0.386-0.006-0.775,0.296-0.865,0.672l-0.801,3.365l-0.799,3.364c-0.09,0.376,0.153,0.686,0.538,0.693
			c1.375,0.017,4.454,0.051,6.318,0.051c6.056,0,9.248-3.355,11.294-13.01l2.395-11.081l2.246-10.392
			C112.886,162.177,112.636,161.867,112.249,161.867L112.249,161.867z" />
		<path fill="#131B28" d="M221.903,184.015c-0.387,0-0.638-0.31-0.557-0.69l5.807-27.199" />
		<path fill="#131B28" d="M229.973,183.325l2.348-11.609L229.973,183.325z" />
		<path fill="#131B28" d="M221.43,183.671c-0.047-0.19-0.019-0.654,0.063-1.033l2.756-12.91l-2.903,13.599
			c-0.081,0.379,0.17,0.69,0.557,0.69h0.705C222.22,184.016,221.477,183.86,221.43,183.671L221.43,183.671z" />
		<path fill="#131B28" d="M229.514,183.86c-0.211,0.085-0.701,0.155-1.088,0.155h0.705c0.387,0,0.767-0.31,0.844-0.691l0.14-0.69
			C230.037,183.014,229.725,183.775,229.514,183.86L229.514,183.86z" />
		<path fill="#131B28" d="M231.149,177.52l1.037-5.124c0,0.003-0.001,0.008-0.002,0.01L231.149,177.52L231.149,177.52z" />
		<path fill="#131B28" d="M254.061,157.949l0.32,1.322c0.088,0.378-0.156,0.685-0.543,0.686" />
		<path fill="#131B28" d="M230.114,182.635l1.034-5.115L230.114,182.635z" />
		<path fill="#131B28" d="M253.743,156.595l0.317,1.354L253.743,156.595z" />
		<path fill="#131B28" d="M232.184,172.397c0.077-0.379,0.205-0.993,0.285-1.369l1.107-5.187l-1.254,5.875L232.184,172.397
			L232.184,172.397z" />
		<path fill="#131B28" d="M227.248,155.681c-0.077,0.366-0.176,0.828-0.241,1.134l-2.756,12.911l2.903-13.6L227.248,155.681
			L227.248,155.681z" />
		<path fill="#131B28" d="M254.378,159.271l-0.32-1.322l-0.317-1.354l-0.16-0.685c-0.627-2.436-2.468-3.842-6.464-3.842
			l-6.222-0.007l-5.73-0.007h-0.492h-5.956c-0.387,0-0.77,0.309-0.85,0.689h0l-0.285,1.347l-0.337,1.591l-0.094,0.446l-2.903,13.6
			l-2.756,12.91c-0.082,0.379-0.11,0.844-0.063,1.033c0.047,0.19,0.789,0.345,1.177,0.345h5.817c0.388,0,0.878-0.07,1.088-0.155
			c0.211-0.085,0.523-0.846,0.6-1.225l1.034-5.115l1.035-5.114c0-0.002,0.001-0.007,0.002-0.01l0.138-0.681l1.254-5.875l1.108-5.189
			c0.082-0.377,0.463-0.685,0.85-0.686l18.302-0.009C254.223,159.956,254.467,159.648,254.378,159.271L254.378,159.271z" />
		<path fill="#131B28" d="M277.939,147.32c-0.388,0.003-1.021,0.005-1.409,0.005h-5.858c-0.388,0-0.884,0.262-1.102,0.582
			l-12.954,18.977c-0.219,0.32-0.468,0.273-0.554-0.104l-0.953-4.181c-0.086-0.378-0.474-0.686-0.861-0.686h-8.328
			c-0.388,0-0.617,0.304-0.511,0.676l3.732,13.072c0.106,0.373,0.114,0.985,0.018,1.359l-1.627,6.327
			c-0.096,0.376,0.142,0.683,0.529,0.683h8.23c0.387,0,0.783-0.307,0.879-0.683l1.627-6.327c0.096-0.375,0.365-0.936,0.599-1.245
			l21.03-27.911c0.233-0.309,0.107-0.561-0.28-0.558L277.939,147.32L277.939,147.32z" />
		<path fill="#131B28" d="M211.78,163.692l0-0.008c-0.049,0.42-0.436,0.728-0.823,0.728h-10.558c-0.365,0-0.551-0.248-0.497-0.554
			c0.003-0.009,0.005-0.017,0.01-0.024c0,0-0.004,0.001-0.007,0.003c0.002-0.012,0.002-0.023,0.006-0.035c0,0,0.02-0.074,0.048-0.18
			c1.008-2.681,3.062-4.441,6.923-4.441C211.227,159.182,212.075,161.305,211.78,163.692L211.78,163.692z M208.682,151.506
			c-13.552,0-16.763,8.226-18.565,16.528c-1.802,8.462-1.646,16.374,12.377,16.374h0.498c0.044-0.001,0.09-0.001,0.134-0.001h0.392
			h0.144h0.368c0.054-0.001,0.109-0.001,0.164-0.001c0.14,0,0.281-0.001,0.422-0.001h0.099c0.555-0.001,1.118-0.004,1.683-0.006
			h0.028c3.704-0.014,7.418-0.042,8.923-0.054c0.385-0.006,0.761-0.316,0.84-0.692l0.568-2.775l0.11-0.54l0.677-3.31
			c0.078-0.379-0.176-0.69-0.563-0.69h-12.607c-5.014,0-6.503-1.333-5.955-5.25h20.154l-0.002,0.002
			c0.005,0,0.009-0.002,0.014-0.002c0.32-0.006,0.616-0.226,0.734-0.52c0.022-0.057,0.041-0.115,0.049-0.176l-0.002,0.002
			C222.359,159.108,221.501,151.506,208.682,151.506L208.682,151.506z" />
		<path fill="#131B28" d="M144.63,163.649l-0.191,0.675c0,0.002,0,0.002,0,0.002l-1.522,5.393l-1.521,5.392
			c-0.105,0.373-0.508,0.677-0.896,0.677h-8.055c-6.11,0-7.597-4.779-6.11-11.827c1.487-7.209,4.404-11.691,10.417-12.144
			C144.97,151.198,146.614,156.978,144.63,163.649L144.63,163.649z M150.154,175.374c0,0,3.797-9.22,4.66-14.547
			c1.176-7.13-2.393-17.469-16.181-17.469c-13.709,0-19.662,9.872-21.934,20.603c-2.271,10.809,0.705,20.289,14.336,20.211
			l10.754-0.04l10.051-0.037c0.387-0.003,0.783-0.31,0.881-0.684l1.751-6.678c0.098-0.375-0.139-0.683-0.526-0.685l-1.678-0.01
			l-1.678-0.01c-0.329-0.002-0.518-0.215-0.478-0.498c0.007-0.051,0.019-0.103,0.041-0.157L150.154,175.374z" />
		<path fill="#131B28" d="M218.02,169.203c0,0.255-0.207,0.462-0.462,0.462c-0.255,0-0.462-0.207-0.462-0.462
			c0-0.255,0.207-0.461,0.462-0.461C217.813,168.741,218.02,168.948,218.02,169.203z" />
	</g>
	<g>
		<path fill="#0868AC" d="M127.452,28.095c-11.61,16.687-10.165,38.397-1.296,56.128c0.211,0.425,0.432,0.843,0.65,1.262
			c0.139,0.265,0.27,0.537,0.415,0.799c0.082,0.156,0.173,0.309,0.258,0.459c0.151,0.282,0.306,0.551,0.462,0.826
			c0.275,0.486,0.558,0.969,0.847,1.452c0.16,0.265,0.318,0.53,0.483,0.796c0.32,0.517,0.648,1.027,0.983,1.537
			c0.139,0.218,0.275,0.435,0.418,0.646c0.463,0.69,0.935,1.377,1.423,2.054c0.012,0.017,0.025,0.037,0.041,0.054
			c0.077,0.109,0.162,0.214,0.24,0.323c0.422,0.582,0.857,1.156,1.297,1.724c0.162,0.207,0.325,0.415,0.488,0.622
			c0.393,0.493,0.792,0.983,1.199,1.472c0.151,0.184,0.304,0.367,0.457,0.548c0.546,0.643,1.102,1.282,1.67,1.908
			c0.01,0.01,0.024,0.024,0.034,0.034c0.024,0.027,0.044,0.044,0.065,0.071c0.554,0.605,1.122,1.197,1.697,1.789
			c0.179,0.184,0.36,0.367,0.544,0.548c0.445,0.449,0.898,0.891,1.355,1.33c0.185,0.177,0.369,0.357,0.554,0.527
			c0.61,0.575,1.228,1.139,1.857,1.69c0.01,0.01,0.019,0.017,0.029,0.024c0.107,0.095,0.218,0.184,0.323,0.275
			c0.554,0.479,1.119,0.956,1.687,1.425c0.231,0.187,0.466,0.371,0.699,0.558c0.464,0.371,0.933,0.738,1.406,1.098
			c0.25,0.19,0.5,0.381,0.752,0.571c0.522,0.384,1.047,0.762,1.578,1.132c0.194,0.139,0.381,0.275,0.575,0.408
			c0.054,0.037,0.104,0.075,0.158,0.112c0.503,0.347,1.018,0.68,1.532,1.013c0.221,0.146,0.44,0.299,0.663,0.442
			c0.789,0.5,1.59,0.993,2.399,1.469c0.219,0.126,0.442,0.248,0.663,0.374c0.595,0.343,1.194,0.68,1.801,1.01
			c0.328,0.177,0.665,0.343,0.996,0.514c0.428,0.224,0.854,0.452,1.289,0.67c0.099,0.048,0.201,0.095,0.298,0.143
			c0.175,0.085,0.352,0.167,0.527,0.255c0.675,0.323,1.355,0.639,2.042,0.945c0.146,0.065,0.287,0.129,0.432,0.194
			c0.787,0.343,1.581,0.673,2.382,0.99c0.192,0.078,0.386,0.153,0.58,0.228c0.741,0.286,1.493,0.568,2.248,0.833
			c0.095,0.034,0.187,0.065,0.282,0.098c0.828,0.289,1.665,0.558,2.506,0.82c0.201,0.058,0.403,0.122,0.605,0.18
			c0.857,0.258,1.704,0.568,2.588,0.731c56.149,10.239,72.458-33.742,72.458-33.742c-13.698,17.846-38.013,22.553-61.05,17.313
			c-0.872-0.197-1.719-0.469-2.571-0.721c-0.216-0.065-0.428-0.129-0.641-0.194c-0.831-0.255-1.656-0.524-2.476-0.806
			c-0.112-0.041-0.226-0.082-0.34-0.122c-0.735-0.258-1.461-0.531-2.183-0.809c-0.204-0.082-0.408-0.16-0.612-0.241
			c-0.792-0.313-1.58-0.639-2.357-0.979c-0.16-0.068-0.313-0.139-0.471-0.207c-0.668-0.303-1.33-0.609-1.988-0.925
			c-0.19-0.092-0.381-0.18-0.575-0.275c-0.517-0.252-1.028-0.521-1.538-0.783c-0.341-0.18-0.688-0.35-1.027-0.538
			c-0.623-0.333-1.234-0.68-1.843-1.034c-0.206-0.116-0.415-0.227-0.623-0.347c-0.809-0.476-1.609-0.969-2.4-1.47
			c-0.219-0.139-0.432-0.288-0.648-0.432c-0.574-0.371-1.145-0.748-1.708-1.135c-0.187-0.127-0.366-0.262-0.55-0.387
			c-0.543-0.384-1.081-0.773-1.614-1.167c-0.242-0.18-0.481-0.361-0.716-0.54c-0.489-0.375-0.975-0.752-1.457-1.139
			c-0.218-0.173-0.435-0.347-0.65-0.52c-0.612-0.503-1.217-1.01-1.814-1.53c-0.063-0.054-0.131-0.109-0.199-0.167
			c-0.646-0.568-1.28-1.149-1.908-1.734c-0.182-0.173-0.359-0.343-0.537-0.517c-0.464-0.442-0.922-0.888-1.37-1.343
			c-0.18-0.18-0.36-0.357-0.537-0.537c-0.571-0.585-1.132-1.177-1.682-1.778c-0.027-0.031-0.056-0.058-0.083-0.088
			c-0.582-0.636-1.149-1.285-1.705-1.942c-0.151-0.18-0.298-0.354-0.447-0.53c-0.415-0.5-0.826-1.007-1.228-1.517
			c-0.15-0.184-0.301-0.372-0.45-0.561c-0.483-0.627-0.956-1.252-1.418-1.887c-12.79-17.446-17.385-41.509-7.162-61.27" />
		<path fill="#0868AC" d="M163.491,14.036c-8.396,12.083-7.941,28.257-1.391,41.035c1.098,2.142,2.333,4.22,3.714,6.199
			c1.258,1.802,2.653,3.948,4.322,5.397c0.605,0.667,1.238,1.316,1.884,1.955c0.163,0.167,0.33,0.326,0.497,0.49
			c0.627,0.609,1.265,1.207,1.925,1.789c0.027,0.02,0.051,0.047,0.078,0.068c0.007,0.007,0.014,0.01,0.019,0.017
			c0.729,0.639,1.483,1.255,2.248,1.86c0.17,0.129,0.338,0.265,0.51,0.398c0.767,0.588,1.549,1.166,2.352,1.717
			c0.024,0.017,0.044,0.034,0.068,0.051c0.354,0.245,0.714,0.473,1.073,0.707c0.172,0.112,0.335,0.231,0.508,0.337
			c0.573,0.367,1.153,0.724,1.743,1.068c0.083,0.051,0.165,0.095,0.247,0.143c0.508,0.292,1.024,0.582,1.541,0.86
			c0.18,0.102,0.364,0.19,0.548,0.286c0.357,0.187,0.714,0.377,1.078,0.558c0.054,0.027,0.111,0.051,0.163,0.075
			c0.74,0.364,1.486,0.714,2.248,1.047c0.163,0.071,0.332,0.136,0.496,0.204c0.609,0.258,1.224,0.51,1.843,0.748
			c0.262,0.099,0.527,0.194,0.789,0.289c0.561,0.207,1.124,0.398,1.692,0.588c0.257,0.082,0.508,0.167,0.765,0.245
			c0.808,0.252,1.605,0.568,2.447,0.707c43.352,7.182,53.36-26.195,53.36-26.195c-9.022,12.994-26.493,19.193-45.138,14.354
			c-0.828-0.218-1.644-0.456-2.455-0.711c-0.248-0.075-0.491-0.156-0.738-0.238c-0.576-0.187-1.149-0.384-1.717-0.592
			c-0.26-0.095-0.52-0.19-0.775-0.289c-0.622-0.238-1.238-0.486-1.848-0.745c-0.167-0.071-0.335-0.136-0.498-0.211
			c-0.765-0.333-1.518-0.684-2.261-1.051c-0.383-0.187-0.758-0.384-1.134-0.578c-0.218-0.112-0.437-0.224-0.655-0.337
			c-0.483-0.262-0.962-0.534-1.435-0.809c-0.112-0.065-0.23-0.126-0.343-0.194c-0.587-0.343-1.165-0.697-1.738-1.061
			c-0.177-0.112-0.347-0.235-0.524-0.35c-0.377-0.245-0.755-0.493-1.126-0.745c-0.799-0.551-1.576-1.129-2.343-1.714
			c-0.177-0.139-0.354-0.275-0.527-0.415c-8.161-6.444-14.63-15.248-17.705-25.233c-3.223-10.355-2.528-21.979,3.056-31.412" />
		<path fill="#0868AC" d="M193.803,3.532c-4.95,7.284-5.436,16.331-2.001,24.376c3.622,8.539,11.044,15.239,19.706,18.414
			c0.357,0.133,0.714,0.252,1.076,0.374c0.158,0.048,0.315,0.102,0.474,0.15c0.51,0.16,1.017,0.347,1.544,0.445
			c23.937,4.625,30.43-12.283,32.158-14.772c-5.688,8.189-15.246,10.154-26.973,7.308c-0.926-0.226-1.945-0.56-2.837-0.876
			c-1.145-0.408-2.273-0.873-3.369-1.4c-2.082-1-4.067-2.215-5.907-3.605c-10.494-7.962-17.013-23.152-10.166-35.522" />
	</g>
</g>
</symbol><symbol viewBox="0 0 229.559 265.103" id="magento">
<title>Asset 2</title>
<path fill="#F26322" d="M114.887,0L0,66.316v132.525l32.81,18.924L32.595,85.294l82.077-47.445l82.077,47.445v132.417l32.81-18.871
	V66.209L114.887,0z M131.184,217.765l-16.405,9.489l-16.458-9.435V85.294l-32.81,18.924l0.054,132.471l49.214,28.413l49.214-28.413
	V104.218l-32.81-18.924V217.765z" />
</symbol><symbol viewBox="0 0 388.12 264.29" preserveAspectRatio="xMinYMin meet" id="mysql">
 <g display="inline" transform="matrix(1.8189257,0,0,1.8237746,-82.14211,-64.843651)">
  <g transform="matrix(1.2699241,0,0,-1.2699241,3.3662307,208.12494)">
   <g transform="scale(0.1,0.1)">
    <path fill-rule="nonzero" fill="#00758F" d="m733.07,319.32-64.832,0c-2.28,109.43-8.6,212.33-18.93,308.72h-0.57104l-98.711-308.72h-49.363l-98.113,308.72h-0.578c-7.28-92.57-11.86-195.47-13.77-308.72h-59.113c3.82,137.73,13.38,266.84,28.68,387.36h80.356l93.535-284.62h0.57397l94.109,284.62h76.887c16.836-141.15,26.778-270.3,29.832-387.36" />
    <path fill-rule="nonzero" fill="#00758F" d="m1014.3,605.11c-26.401-143.25-61.225-247.35-104.45-312.29-33.679-50.039-70.574-75.058-110.75-75.058-10.71,0-23.917,3.226-39.589,9.636v34.532c7.656-1.121,16.64-1.719,26.972-1.719,18.743,0,33.848,5.18,45.34,15.519,13.762,12.598,20.649,26.758,20.649,42.45,0,10.718-5.372,32.711-16.067,65.98l-71.152,220.95h63.691l51.067-165.25c11.472-37.519,16.257-63.711,14.343-78.64,27.93,74.601,47.442,155.9,58.543,243.89h61.401" />
    <path fill-rule="nonzero" fill="#F29111" d="m1298.3,426.69c0-32.851-12.07-59.82-36.13-80.921-24.08-21.008-56.43-31.54-96.94-31.54-37.89,0-74.61,12.122-110.18,36.168l16.64,33.274c30.61-15.301,58.31-22.942,83.18-22.942,23.33,0,41.59,5.192,54.8,15.45,13.18,10.332,21.08,24.742,21.08,43.019,0,23-16.04,42.66-45.47,59.153-27.17,14.91-81.47,46.039-81.47,46.039-29.42,21.461-44.17,44.488-44.17,82.429,0,31.379,11,56.742,32.97,76.039,22.02,19.336,50.43,29.004,85.22,29.004,35.96,0,68.66-9.597,98.11-28.722l-14.96-33.243c-25.2,10.684-50.05,16.047-74.55,16.047-19.88,0-35.2-4.773-45.88-14.375-10.74-9.519-17.38-21.769-17.38-36.699,0-22.941,16.39-42.84,46.65-59.652,27.51-14.918,83.14-46.649,83.14-46.649,30.26-21.422,45.34-44.261,45.34-81.879" />
    <path fill-rule="evenodd" fill="#F29111" d="m1414.2,396.81c-15.69,25.25-23.55,65.769-23.55,121.64,0,97.539,29.66,146.34,88.95,146.34,31,0,53.75-11.672,68.3-34.992,15.67-25.262,23.53-65.43,23.53-120.52,0-98.32-29.66-147.5-88.95-147.5-30.99,0-53.75,11.66-68.28,35.028m230.68-86.829-71.2,35.11c6.3401,5.199,12.36,10.808,17.81,17.301,30.23,35.539,45.36,88.14,45.36,157.78,0,128.15-50.31,192.26-150.92,192.26-49.35,0-87.81-16.25-115.35-48.797-30.24-35.582-45.34-87.985-45.34-157.23,0-68.089,13.38-118.04,40.16-149.77,24.4-28.68,61.3-43.04,110.7-43.04,18.43,0,35.34,2.269,50.71,6.808l92.72-53.957,25.28,43.539" />
    <path fill-rule="nonzero" fill="#F29111" d="m1877.3,319.32-184.19,0,0,387.36,61.98,0,0-339.71,122.21,0,0-47.649" />
    <path fill-rule="nonzero" fill="#F29111" d="m1921.5,319.36,10.27,0,0,39.411,13.44,0,0,8.05-37.67,0,0-8.05,13.96,0,0-39.411zm78.15,0,9.6801,0,0,47.461-14.56,0-11.85-32.351-12.9,32.351-14.03,0,0-47.461,9.1599,0,0,36.121,0.5201,0,13.51-36.121,6.9799,0,13.49,36.121,0-36.121" />
    <path fill-rule="evenodd" fill="#00758F" d="m1955.1,836.43c-37.46,0.93695-66.47-2.801-90.8-13.106-7.02-2.805-18.24-2.805-19.2-11.699,3.77-3.738,4.2201-9.817,7.52-14.988,5.6-9.36,15.41-21.977,24.32-28.547,9.8299-7.492,19.66-14.953,29.97-21.504,18.24-11.281,38.84-17.805,56.6-29.043,10.33-6.543,20.59-14.961,30.92-22,5.13-3.742,8.38-9.836,14.96-12.152v1.417c-3.3001,4.2-4.22,10.286-7.48,14.993-4.67,4.644-9.36,8.883-14.05,13.543-13.58,18.25-30.45,34.148-48.66,47.254-14.99,10.324-47.77,24.367-53.83,41.632,0,0-0.49,0.49597-0.95,0.95697,10.3,0.95001,22.49,4.7,32.31,7.539,15.89,4.2,30.4,3.25,46.78,7.45,7.5,1.886,14.99,4.242,22.51,6.543v4.242c-8.47,8.4059-14.53,19.656-23.42,27.605-23.85,20.586-50.09,40.696-77.23,57.571-14.53,9.363-33.25,15.418-48.7,23.394-5.5899,2.813-14.94,4.199-18.23,8.906-8.4301,10.293-13.13,23.848-19.2,36.036-13.56,25.713-26.69,54.253-38.37,81.443-8.4199,18.24-13.57,36.48-23.87,53.34-48.23,79.58-100.63,127.76-181.13,175.04-17.32,9.84-37.91,14.05-59.89,19.2-11.72,0.49-23.41,1.4-35.11,1.86-7.5,3.29-15,12.19-21.54,16.4-26.69,16.84-95.46,53.34-115.13,5.14-12.64-30.44,18.72-60.38,29.49-75.83,7.9499-10.75,18.26-22.94,23.85-35.09,3.2801-7.96,4.22-16.4,7.51-24.81,7.48-20.59,14.49-43.53,24.34-62.73,5.13-9.8299,10.74-20.14,17.29-28.99,3.7799-5.1799,10.31-7.49,11.72-15.94-6.53-9.35-7.04-23.39-10.78-35.1-16.84-52.89-10.3-118.41,13.58-157.25,7.47-11.699,25.28-37.449,49.15-27.597,21.06,8.4098,16.38,35.089,22.46,58.476,1.3999,5.6562,0.4599,9.3668,3.26,13.106v-0.94592c6.5499-13.086,13.12-25.691,19.2-38.84,14.53-22.91,39.78-46.785,60.86-62.683,11.2-8.457,20.1-22.942,34.14-28.106v1.414h-0.92c-2.82,4.1998-7.0199,6.086-10.77,9.3478-8.4201,8.4299-17.76,18.731-24.34,28.086-19.65,26.199-36.99,55.234-52.4,85.184-7.5099,14.543-14.05,30.441-20.14,44.941-2.8001,5.5901-2.8001,14.039-7.4901,16.84-7.0399-10.285-17.31-19.191-22.45-31.789-8.9-20.149-9.8299-44.949-13.13-70.703-1.86-0.48895-0.92,0-1.86-0.92999-14.96,3.7419-20.11,19.184-25.74,32.246-14.04,33.274-16.4,86.627-4.2099,125.01,3.26,9.8101,17.34,40.7,11.7,50.06-2.8299,8.9299-12.18,14.03-17.32,21.08-6.0701,8.89-12.66,20.1-16.83,29.95-11.24,26.2-16.89,55.23-29.02,81.43-5.62,12.19-15.47,24.83-23.4,36.04-8.91,12.64-18.73,21.53-25.76,36.49-2.3201,5.16-5.6001,13.59-1.87,19.19,0.9199,3.75,2.8199,5.1601,6.5699,6.1001,6.0501,5.1499,23.39-1.39,29.46-4.2,17.33-7,31.84-13.59,46.33-23.4,6.5599-4.6899,13.58-13.58,21.99-15.94h9.8499c14.97-3.25,31.83-0.91,45.88-5.14,24.79-7.95,47.25-19.65,67.39-32.29,61.29-38.85,111.84-94.09,145.99-160.07,5.63-10.75,7.99-20.59,13.13-31.8,9.83-22.98,22.01-46.38,31.82-68.823,9.8201-22,19.2-44.446,33.26-62.727,7-9.812,35.09-14.961,47.73-20.113,9.3401-4.199,23.87-7.949,32.3-13.09,15.91-9.812,31.79-21.062,46.79-31.844,7.4699-5.617,30.88-17.304,32.29-26.679" />
    <path fill-rule="evenodd" fill="#00758F" d="m1477.7,1243.2c-7.9399,0-13.54-0.96-19.19-2.3501v-0.9399h0.91c3.7799-7.47,10.34-12.66,14.98-19.2,3.77-7.4902,7.0499-14.95,10.79-22.45,0.4599,0.4599,0.9099,0.9501,0.9099,0.9501,6.5999,4.6599,9.87,12.14,9.87,23.39-2.83,3.3001-3.2701,6.5501-5.63,9.8401-2.8,4.6699-8.89,7.01-12.64,10.76" />
   </g>
  </g>
 </g>
</symbol><symbol viewBox="0 0 257.024 149.027" id="nette">
<g>
	<path fill="#3484D2" d="M66.861,102.719c-3.65,2.6-5.965,4.179-6.944,4.738c-5.232,3.119-10.011,4.678-14.337,4.678
		c-2.415,0-4.779-0.554-7.093-1.66c-2.314-1.107-4.05-2.541-5.207-4.302s-1.736-3.748-1.736-5.961c0-3.119,1.056-7.093,3.169-11.923
		c3.018-7.043,4.628-10.816,4.83-11.319c-0.101-0.403-0.151-0.856-0.151-1.359c-1.408,0.604-2.364,1.057-2.867,1.359
		c-2.817,1.812-5.585,3.874-8.301,6.188c-2.113,1.912-4.578,4.327-7.395,7.245c-0.604,3.622-0.906,7.194-0.906,10.716
		c0,2.717,0.151,5.433,0.453,8.15l-18.263,2.867C0.704,106.502,0,101.119,0,95.987c0-3.119,0.302-6.288,0.906-9.508
		s1.711-6.842,3.32-10.867c1.107-2.817,2.667-6.338,4.678-10.564l20.979-3.471c-1.308,3.22-2.265,5.635-2.868,7.245
		c-1.107,2.717-2.012,5.181-2.717,7.395c5.031-4.628,10.062-8.2,15.093-10.715c4.025-2.012,7.647-3.019,10.866-3.019
		c1.811,0,3.673,0.352,5.585,1.057c1.911,0.704,3.295,1.811,4.15,3.321c0.855,1.509,1.283,3.32,1.283,5.433
		c0,3.018-0.855,6.741-2.566,11.169c-2.012,5.031-3.974,10.062-5.885,15.092c0,0.704,0.251,1.132,0.754,1.283
		c0.503,0.151,1.007,0.226,1.51,0.226c2.019,0,5.022-1.054,9.009-3.164c-0.372-1.452-0.558-2.963-0.558-4.533
		c0-2.415,0.352-4.728,1.057-6.942c0.704-2.213,1.761-4.528,3.169-6.942c2.515-4.125,6.037-7.647,10.564-10.565
		c4.528-2.918,9.307-4.779,14.338-5.584c1.811-0.201,3.22-0.302,4.226-0.302c3.32,0,6.288,0.554,8.904,1.66
		c2.616,1.107,4.779,2.918,6.49,5.434c1.007,1.609,1.51,3.219,1.51,4.829c0,2.516-1.258,4.98-3.773,7.396
		c-1.811,1.71-4.251,3.321-7.319,4.83c-3.069,1.509-6.113,2.766-9.132,3.772c-2.214,0.704-5.332,1.56-9.357,2.566
		c1.308,2.717,3.17,4.905,5.584,6.565c2.415,1.66,4.981,2.491,7.697,2.491c4.126,0,8.251-1.057,12.376-3.17
		c0.193-0.096,3.343-2.088,9.452-5.974c0.035-0.483,0.078-0.982,0.132-1.497c0.151-1.459,0.452-3.245,0.906-5.357
		c0.179-0.833,0.345-1.596,0.5-2.289l21.794-1.301c-0.521,1.821-1.06,3.696-1.618,5.628c-0.654,2.263-0.981,4.15-0.981,5.659
		c0,2.415,0.478,4.1,1.434,5.056c0.956,0.956,2.339,1.434,4.151,1.434c2.616,0,6.037-1.107,10.262-3.321
		c2.012-1.217,3.633-2.195,4.862-2.932c0.036-0.81,0.1-1.669,0.194-2.577c0.151-1.459,0.453-3.245,0.906-5.357
		c0.178-0.831,0.344-1.591,0.499-2.282l21.794-1.301c-0.52,1.818-1.059,3.692-1.616,5.621c-0.654,2.263-0.981,4.15-0.981,5.659
		c0,2.415,0.478,4.1,1.434,5.056c0.956,0.956,2.339,1.434,4.15,1.434c2.616,0,6.038-1.107,10.263-3.321l3.142-1.898
		c-0.082-0.713-0.124-1.439-0.124-2.178c0-2.415,0.352-4.728,1.056-6.942c0.704-2.213,1.761-4.527,3.169-6.942
		c2.515-4.125,6.037-7.647,10.565-10.565c4.527-2.918,9.307-4.779,14.337-5.584c1.811-0.201,3.22-0.302,4.226-0.302
		c3.321,0,6.288,0.554,8.904,1.66c2.616,1.107,4.779,2.918,6.489,5.434c1.006,1.609,1.509,3.219,1.509,4.829
		c0,2.516-1.258,4.98-3.773,7.396c-1.811,1.71-4.251,3.321-7.32,4.83c-3.069,1.509-6.113,2.766-9.131,3.772
		c-2.214,0.704-5.333,1.56-9.358,2.566c1.308,2.717,3.169,4.905,5.585,6.565c2.415,1.66,4.98,2.491,7.697,2.491
		c4.126,0,8.251-1.057,12.376-3.17c0.201-0.101,3.622-2.264,10.263-6.489v6.792c-0.603,0.402-3.019,2.113-7.244,5.132
		c-3.119,2.213-5.685,3.773-7.697,4.678c-5.031,2.214-10.565,3.321-16.602,3.321c-4.025,0-7.596-0.478-10.715-1.433
		c-3.119-0.956-5.987-2.642-8.603-5.056c-1.617-1.447-2.892-3.073-3.825-4.88c-4.436,3.207-7.84,5.487-10.211,6.842
		c-5.333,3.018-10.162,4.528-14.488,4.528c-2.428,0-4.389-0.156-6.641-1.207c-3.823-1.61-6.489-3.698-7.999-6.263
		c-0.748-1.272-1.311-2.688-1.689-4.244c-4.67,3.389-8.232,5.784-10.687,7.187c-5.333,3.018-10.162,4.528-14.488,4.528
		c-2.429,0-4.388-0.156-6.641-1.207c-3.823-1.61-6.489-3.698-7.999-6.263c-0.911-1.549-1.547-3.31-1.908-5.282
		c-1.051,0.732-3.282,2.316-6.694,4.753c-3.119,2.213-5.685,3.773-7.697,4.678c-5.031,2.214-10.564,3.321-16.601,3.321
		c-4.024,0-7.597-0.478-10.715-1.433c-3.12-0.956-5.987-2.642-8.603-5.056C68.361,104.527,67.556,103.652,66.861,102.719
		L66.861,102.719z M97.195,75.16c0.1-0.402,0.15-1.006,0.15-1.811c0-2.616-1.107-3.924-3.32-3.924c-0.302,0-0.855,0.101-1.661,0.301
		c-3.019,0.705-5.383,2.616-7.093,5.735c-1.711,3.119-2.566,6.389-2.566,9.81c4.226-1.107,7.295-2.214,9.206-3.321
		C95.032,80.241,96.793,77.977,97.195,75.16L97.195,75.16z M118.023,75.612l3.018-11.923l6.188-0.301l5.886-16.149l22.337-3.924
		l-6.339,19.016l10.112-0.452l-2.717,11.319C143.684,74.064,130.854,74.858,118.023,75.612L118.023,75.612z M159.527,75.612
		l3.019-11.923l6.187-0.301l5.887-16.149l22.335-3.924l-6.339,19.016l10.112-0.452l-2.717,11.319
		C185.146,74.067,172.225,74.866,159.527,75.612z M234.082,75.16c0.101-0.402,0.152-1.006,0.152-1.811
		c0-2.616-1.107-3.924-3.321-3.924c-0.302,0-0.855,0.101-1.66,0.301c-3.018,0.705-5.383,2.616-7.094,5.735
		c-1.71,3.119-2.566,6.389-2.566,9.81c4.226-1.107,7.295-2.214,9.207-3.321C231.92,80.241,233.68,77.977,234.082,75.16
		L234.082,75.16z" />
	<path fill="#3484D2" d="M13.041,148.078h2.326v-8.062h6.714v-1.903h-6.714v-5.921h7.269v-1.93h-9.595
		C13.041,130.263,13.041,148.078,13.041,148.078z M36.587,148.078h2.3v-7.718h2.167c0.692,0.022,1.273,0.15,1.744,0.388
		c0.467,0.234,0.85,0.603,1.15,1.101c0.295,0.502,0.529,1.159,0.7,1.974c0.238,1.115,0.458,2.035,0.652,2.762
		c0.194,0.727,0.366,1.225,0.511,1.494h2.379c-0.181-0.348-0.383-0.938-0.608-1.771c-0.221-0.833-0.476-1.872-0.767-3.119
		c-0.207-0.929-0.524-1.701-0.947-2.313c-0.423-0.613-0.974-1.04-1.643-1.282v-0.079c0.626-0.211,1.185-0.524,1.687-0.938
		c0.498-0.41,0.899-0.916,1.189-1.515c0.295-0.603,0.445-1.291,0.454-2.066c-0.004-0.705-0.128-1.348-0.374-1.934
		c-0.242-0.581-0.586-1.075-1.026-1.476c-0.533-0.489-1.22-0.855-2.062-1.093c-0.837-0.242-1.868-0.361-3.093-0.361
		c-0.524,0-1.049,0.018-1.577,0.048c-0.529,0.031-1.04,0.075-1.524,0.132c-0.484,0.053-0.921,0.119-1.313,0.189L36.587,148.078
		L36.587,148.078z M38.887,132.113c0.198-0.053,0.489-0.097,0.868-0.132c0.383-0.035,0.85-0.053,1.405-0.053
		c0.815-0.005,1.529,0.115,2.146,0.344c0.612,0.234,1.088,0.595,1.432,1.079c0.339,0.489,0.515,1.115,0.52,1.881
		c-0.005,0.683-0.168,1.278-0.494,1.78c-0.326,0.507-0.789,0.899-1.388,1.181c-0.603,0.278-1.313,0.418-2.136,0.423h-2.352
		C38.887,138.615,38.887,132.113,38.887,132.113z M70.786,142.475l1.903,5.604h2.458l-6.08-17.816h-2.749l-6.079,17.816h2.379
		l1.85-5.604H70.786z M64.944,140.677l1.744-5.154c0.185-0.546,0.348-1.088,0.489-1.634c0.145-0.542,0.282-1.075,0.41-1.591h0.053
		c0.128,0.511,0.269,1.04,0.414,1.577c0.145,0.537,0.317,1.092,0.511,1.674l1.771,5.128H64.944L64.944,140.677z M103.742,148.078
		h2.273l-1.11-17.816h-2.934l-3.172,8.617c-0.397,1.119-0.753,2.176-1.071,3.168c-0.317,0.991-0.595,1.938-0.833,2.833h-0.053
		c-0.238-0.921-0.502-1.881-0.797-2.872c-0.299-0.991-0.63-2.035-1-3.128l-3.04-8.617h-2.934l-1.242,17.816h2.194l0.476-7.639
		c0.053-0.908,0.101-1.82,0.15-2.749c0.044-0.925,0.084-1.824,0.119-2.701c0.031-0.872,0.057-1.683,0.075-2.427h0.053
		c0.251,1.053,0.546,2.154,0.89,3.304c0.339,1.145,0.723,2.352,1.145,3.621l2.908,8.485h1.744l3.146-8.643
		c0.449-1.229,0.855-2.405,1.225-3.533c0.366-1.128,0.71-2.203,1.022-3.233h0.053c0,0.551,0.009,1.145,0.026,1.775
		c0.018,0.634,0.04,1.286,0.071,1.96c0.026,0.674,0.057,1.344,0.092,2.013c0.035,0.67,0.066,1.317,0.101,1.943L103.742,148.078
		L103.742,148.078z M129.403,137.822h-6.899v-5.63h7.322v-1.93h-9.648v17.816h10.044v-1.93h-7.718v-6.423h6.899V137.822
		L129.403,137.822z M149.407,148.078l2.538-9.278c0.22-0.762,0.414-1.476,0.586-2.137c0.172-0.661,0.321-1.295,0.449-1.894
		c0.132-0.603,0.242-1.198,0.339-1.784h0.053c0.079,0.595,0.172,1.194,0.287,1.802c0.11,0.603,0.238,1.238,0.383,1.894
		c0.145,0.657,0.308,1.366,0.493,2.119l2.247,9.278h2.405l5.049-17.816h-2.353l-2.352,8.987c-0.278,1.106-0.542,2.163-0.784,3.181
		c-0.242,1.013-0.458,2.004-0.643,2.978h-0.053c-0.136-0.943-0.313-1.93-0.533-2.965c-0.216-1.031-0.454-2.079-0.709-3.141
		l-2.168-9.04h-2.405l-2.379,8.987c-0.308,1.154-0.59,2.251-0.846,3.291c-0.255,1.04-0.458,2.005-0.608,2.894h-0.053
		c-0.106-0.577-0.229-1.198-0.366-1.868s-0.286-1.366-0.449-2.088c-0.159-0.727-0.331-1.458-0.507-2.203l-2.115-9.014h-2.432
		l4.52,17.816L149.407,148.078L149.407,148.078z M184.294,129.945c-1.194,0.005-2.295,0.225-3.295,0.665
		c-1.005,0.441-1.873,1.071-2.612,1.89c-0.74,0.824-1.313,1.806-1.718,2.952c-0.41,1.15-0.617,2.432-0.621,3.85
		c0.005,1.353,0.198,2.582,0.586,3.692c0.388,1.106,0.934,2.062,1.643,2.864s1.555,1.418,2.533,1.855
		c0.978,0.432,2.057,0.652,3.247,0.657c0.912,0,1.784-0.132,2.608-0.392c0.824-0.256,1.581-0.643,2.269-1.154
		c0.687-0.511,1.286-1.141,1.793-1.899c0.507-0.753,0.903-1.626,1.181-2.617s0.419-2.102,0.423-3.322
		c-0.004-1.335-0.194-2.551-0.568-3.652c-0.374-1.106-0.912-2.057-1.617-2.859c-0.7-0.806-1.546-1.427-2.533-1.864
		C186.629,130.174,185.518,129.95,184.294,129.945z M184.214,131.822c0.766,0.004,1.454,0.141,2.062,0.414
		c0.613,0.269,1.141,0.643,1.595,1.115c0.454,0.476,0.833,1.022,1.132,1.639c0.299,0.617,0.524,1.278,0.674,1.974
		c0.145,0.7,0.22,1.41,0.22,2.128c0,1.018-0.128,1.974-0.379,2.864c-0.251,0.89-0.621,1.674-1.106,2.352
		c-0.489,0.679-1.084,1.212-1.793,1.599c-0.71,0.383-1.52,0.577-2.432,0.586c-0.731-0.004-1.397-0.132-1.996-0.383
		c-0.599-0.255-1.128-0.608-1.59-1.062c-0.463-0.454-0.85-0.987-1.163-1.59c-0.317-0.608-0.555-1.269-0.718-1.983
		c-0.159-0.713-0.242-1.454-0.242-2.225c0-0.78,0.075-1.538,0.229-2.264c0.15-0.727,0.379-1.405,0.687-2.031
		c0.304-0.621,0.687-1.168,1.145-1.639c0.458-0.467,0.996-0.833,1.608-1.092C182.76,131.959,183.448,131.826,184.214,131.822
		L184.214,131.822z M205.963,148.078h2.3v-7.718h2.167c0.692,0.022,1.273,0.15,1.744,0.388c0.467,0.234,0.85,0.603,1.15,1.101
		c0.295,0.502,0.529,1.159,0.7,1.974c0.238,1.115,0.458,2.035,0.652,2.762c0.194,0.727,0.366,1.225,0.511,1.494h2.379
		c-0.181-0.348-0.383-0.938-0.608-1.771c-0.221-0.833-0.476-1.872-0.767-3.119c-0.207-0.929-0.524-1.701-0.947-2.313
		c-0.423-0.613-0.974-1.04-1.643-1.282v-0.079c0.626-0.211,1.185-0.524,1.687-0.938c0.498-0.41,0.899-0.916,1.189-1.515
		c0.295-0.603,0.445-1.291,0.454-2.066c-0.004-0.705-0.128-1.348-0.374-1.934c-0.242-0.581-0.586-1.075-1.026-1.476
		c-0.533-0.489-1.22-0.855-2.062-1.093c-0.837-0.242-1.868-0.361-3.093-0.361c-0.524,0-1.049,0.018-1.577,0.048
		c-0.529,0.031-1.04,0.075-1.524,0.132c-0.484,0.053-0.921,0.119-1.313,0.189L205.963,148.078L205.963,148.078z M208.263,132.113
		c0.198-0.053,0.489-0.097,0.868-0.132c0.383-0.035,0.85-0.053,1.405-0.053c0.815-0.005,1.529,0.115,2.146,0.344
		c0.612,0.234,1.088,0.595,1.432,1.079c0.339,0.489,0.515,1.115,0.52,1.881c-0.005,0.683-0.168,1.278-0.494,1.78
		c-0.326,0.507-0.789,0.899-1.388,1.181c-0.604,0.278-1.313,0.418-2.136,0.423h-2.352L208.263,132.113L208.263,132.113z
		 M230.831,148.078h2.3v-6.793l1.718-1.956l5.842,8.749h2.722l-6.952-10.256l6.45-7.56h-2.855l-5.445,6.688
		c-0.225,0.291-0.454,0.595-0.692,0.912c-0.234,0.317-0.471,0.648-0.71,0.991h-0.079v-8.591h-2.3v17.816H230.831z" />
</g>
</symbol><symbol viewBox="0 0 711.201 408.299" id="php">
<g id="php_g3438" transform="matrix(1.25,0,0,-1.25,-4.4,394.29875)">
	<g id="php_g3440">
		<g>
			<g>
				<defs>
					<path id="php_SVGID_1_" d="M11.52,142.8C11.52,62.477,135.307-2.639,288-2.639l0,0c152.693,0,276.481,65.116,276.481,145.439l0,0
						c0,80.322-123.788,145.439-276.481,145.439l0,0C135.307,288.239,11.52,223.122,11.52,142.8" />
				</defs>
				
				<g id="php_g3442" clip-path="url(#php_SVGID_2_)">
					<g id="php_g3448">
						<g id="php_g3450">
							
								
							<path id="php_path3462" fill="url(#php_path3462_1_)" d="M11.52,142.8C11.52,62.477,135.307-2.639,288-2.639l0,0
								c152.693,0,276.481,65.116,276.481,145.439l0,0c0,80.322-123.788,145.439-276.481,145.439l0,0
								C135.307,288.239,11.52,223.122,11.52,142.8" />
						</g>
					</g>
				</g>
			</g>
		</g>
	</g>
	<g id="php_g3464">
		<g>
			<g>
				<defs>
					<rect id="php_SVGID_3_" x="-162" y="-110.325" width="900" height="506.25" />
				</defs>
				
				<g id="php_g3466" clip-path="url(#php_SVGID_4_)">
					<g id="php_g3472" transform="translate(288,27.3594)">
						<path id="php_path3474" fill="#777BB3" d="M0-19.2c146.729,0,265.68,60.281,265.68,134.641
							C265.68,189.8,146.729,250.082,0,250.082S-265.68,189.8-265.68,115.441C-265.68,41.081-146.729-19.2,0-19.2" />
					</g>
				</g>
			</g>
		</g>
	</g>
	<g id="php_g3476">
		<g>
			<g>
				<defs>
					<rect id="php_SVGID_5_" x="-162" y="-110.325" width="900" height="506.25" />
				</defs>
				
				<g id="php_g3478" clip-path="url(#php_SVGID_6_)">
					<g id="php_g3484" transform="translate(161.7344,145.3066)">
						<path id="php_path3486" d="M0-19.2c12.065,0,21.072,2.225,26.771,6.611c5.638,4.341,9.532,11.862,11.573,22.353
							c1.903,9.806,1.178,16.653-2.154,20.348C32.783,33.886,25.417,35.8,14.297,35.8H-4.984l-10.689-55H0z M-63.063-86.95
							c-0.895,0-1.745,0.4-2.314,1.092c-0.57,0.691-0.801,1.601-0.63,2.48l28.328,145.751c0.274,1.409,1.509,2.427,2.945,2.427
							H26.32c19.188,0,33.47-5.21,42.447-15.487c9.025-10.331,11.812-24.772,8.283-42.921c-1.436-7.394-3.906-14.261-7.341-20.409
							c-3.439-6.155-7.984-11.85-13.511-16.93c-6.616-6.192-14.104-10.682-22.236-13.324C25.959-46.878,15.681-48.2,3.414-48.2
							h-24.722l-7.06-36.322c-0.274-1.41-1.508-2.428-2.944-2.428H-63.063z" />
					</g>
					<g id="php_g3488" transform="translate(159.2236,197.3071)">
						<path id="php_path3490" fill="#FFFFFF" d="M0-19.2h16.808c13.421,0,18.083-2.945,19.667-4.7c2.628-2.914,3.124-9.058,1.435-17.767
							c-1.898-9.75-5.416-16.663-10.458-20.545C22.29-66.186,13.898-68.2,2.511-68.2H-9.523L0-19.2z M28.831,15.8h-61.055
							c-2.872,0-5.341-2.036-5.889-4.855l-28.328-145.751c-0.342-1.759,0.12-3.578,1.259-4.961c1.14-1.383,2.838-2.183,4.63-2.183
							h31.75c2.873,0,5.342,2.036,5.89,4.855l6.588,33.895H5.925c12.582,0,23.174,1.372,31.479,4.077
							c8.541,2.775,16.399,7.48,23.354,13.984c5.752,5.292,10.49,11.232,14.08,17.657c3.591,6.427,6.171,13.594,7.668,21.302
							c3.715,19.104,0.697,34.402-8.969,45.466C63.965,10.244,48.923,15.8,28.831,15.8 M-16.802-74.2H2.511
							c12.801,0,22.336,2.411,28.601,7.234c6.266,4.824,10.492,12.875,12.688,24.157c2.101,10.832,1.144,18.476-2.871,22.929
							c-4.02,4.453-12.059,6.68-24.121,6.68H-4.946L-16.802-74.2 M28.831,9.8c18.367,0,31.766-4.82,40.188-14.461
							c8.421-9.641,10.957-23.098,7.597-40.375c-1.383-7.117-3.722-13.624-7.015-19.519c-3.297-5.899-7.602-11.293-12.922-16.184
							c-6.34-5.933-13.383-10.161-21.133-12.679C27.796-95.943,17.925-97.2,5.925-97.2h-27.196l-7.531-38.75h-31.75L-32.224,9.8
							H28.831" />
					</g>
					<g id="php_g3492" transform="translate(311.583,116.3066)">
						<path id="php_path3494" d="M0-19.2c-0.896,0-1.745,0.4-2.314,1.092c-0.571,0.691-0.802,1.6-0.631,2.48L9.586,48.861
							c1.192,6.133,0.898,10.535-0.827,12.395C7.703,62.393,4.531,64.3-4.848,64.3H-27.55l-15.755-81.072
							c-0.274-1.41-1.509-2.428-2.945-2.428h-31.5c-0.896,0-1.745,0.4-2.315,1.092c-0.57,0.691-0.801,1.601-0.63,2.48
							l28.328,145.751c0.274,1.409,1.509,2.427,2.945,2.427h31.5c0.896,0,1.745-0.4,2.315-1.091c0.57-0.692,0.801-1.601,0.63-2.481
							L-21.813,93.8H2.609c18.605,0,31.221-3.28,38.569-10.028c7.49-6.884,9.827-17.891,6.947-32.719l-13.18-67.825
							C34.671-18.182,33.437-19.2,32-19.2H0z" />
					</g>
					<g id="php_g3496" transform="translate(293.6611,271.0571)">
						<path id="php_path3498" fill="#FFFFFF" d="M0-19.2h-31.5c-2.873,0-5.342-2.036-5.89-4.855l-28.328-145.751
							c-0.342-1.759,0.12-3.578,1.26-4.961s2.838-2.183,4.63-2.183h31.5c2.872,0,5.342,2.036,5.89,4.855L-7.155-93.45h20.229
							c9.363,0,11.328-2,11.407-2.086c0.568-0.611,1.315-3.441,0.082-9.781l-12.531-64.489c-0.342-1.759,0.12-3.578,1.26-4.961
							s2.838-2.183,4.63-2.183h32c2.872,0,5.342,2.036,5.89,4.855l13.179,67.825c3.093,15.921,0.447,27.864-7.861,35.5
							c-7.928,7.281-21.208,10.82-40.599,10.82H-0.253L5.89-26.345c0.341,1.759-0.12,3.579-1.26,4.961
							C3.49-20.001,1.792-19.2,0-19.2 M0-25.2l-7.531-38.75h28.062c17.657,0,29.836-3.082,36.539-9.238
							c6.703-6.16,8.711-16.141,6.032-29.938l-13.18-67.824h-32l12.531,64.488c1.426,7.336,0.902,12.34-1.574,15.008
							c-2.477,2.668-7.746,4.004-15.805,4.004h-25.176l-16.226-83.5h-31.5L-31.5-25.2H0" />
					</g>
					<g id="php_g3500" transform="translate(409.5498,145.3066)">
						<path id="php_path3502" d="M0-19.2c12.065,0,21.072,2.225,26.771,6.611c5.638,4.34,9.532,11.861,11.574,22.353
							c1.903,9.806,1.178,16.653-2.155,20.348C32.783,33.886,25.417,35.8,14.297,35.8H-4.984l-10.689-55H0z M-63.062-86.95
							c-0.895,0-1.745,0.4-2.314,1.092c-0.57,0.691-0.802,1.601-0.631,2.48l28.328,145.751c0.275,1.409,1.509,2.427,2.946,2.427
							H26.32c19.189,0,33.47-5.21,42.448-15.487c9.025-10.33,11.811-24.771,8.283-42.921c-1.438-7.394-3.907-14.261-7.342-20.409
							c-3.439-6.155-7.984-11.85-13.511-16.93c-6.616-6.192-14.104-10.682-22.236-13.324C25.959-46.878,15.681-48.2,3.414-48.2
							h-24.723l-7.057-36.322c-0.275-1.41-1.509-2.428-2.946-2.428H-63.062z" />
					</g>
					<g id="php_g3504" transform="translate(407.0391,197.3071)">
						<path id="php_path3506" fill="#FFFFFF" d="M0-19.2h16.808c13.421,0,18.083-2.945,19.667-4.7c2.629-2.914,3.125-9.058,1.435-17.766
							c-1.898-9.751-5.417-16.664-10.458-20.546C22.29-66.186,13.898-68.2,2.511-68.2H-9.522L0-19.2z M28.831,15.8h-61.054
							c-2.872,0-5.341-2.036-5.889-4.855L-66.44-134.806c-0.342-1.759,0.12-3.578,1.259-4.961c1.14-1.383,2.838-2.183,4.63-2.183
							h31.75c2.872,0,5.342,2.036,5.89,4.855l6.587,33.895H5.925c12.582,0,23.174,1.372,31.479,4.077
							c8.541,2.775,16.401,7.481,23.356,13.986c5.752,5.291,10.488,11.23,14.078,17.655c3.591,6.427,6.171,13.594,7.668,21.302
							c3.715,19.105,0.697,34.403-8.969,45.467C63.965,10.244,48.924,15.8,28.831,15.8 M-16.801-74.2H2.511
							c12.801,0,22.336,2.411,28.601,7.234c6.267,4.824,10.492,12.875,12.688,24.157c2.102,10.832,1.145,18.476-2.871,22.929
							c-4.02,4.453-12.059,6.68-24.121,6.68H-4.946L-16.801-74.2 M28.831,9.8c18.367,0,31.766-4.82,40.188-14.461
							s10.957-23.098,7.597-40.375c-1.383-7.117-3.722-13.624-7.015-19.519c-3.297-5.899-7.602-11.293-12.922-16.184
							c-6.34-5.933-13.383-10.161-21.133-12.679C27.796-95.943,17.925-97.2,5.925-97.2h-27.196l-7.53-38.75h-31.75L-32.223,9.8
							H28.831" />
					</g>
				</g>
			</g>
		</g>
	</g>
</g>
</symbol><clipPath id="php_SVGID_2_">
					<use xlink:href="#php_SVGID_1_" overflow="visible" />
				</clipPath><radialGradient id="php_path3462_1_" cx="-172.244" cy="-399.6414" r="1" gradientTransform="matrix(567.278 0 0 -567.278 97887.7578 -226470.6875)" gradientUnits="userSpaceOnUse">
								<stop offset="0" style="stop-color:#AEB2D5" />
								<stop offset="0.3" style="stop-color:#AEB2D5" />
								<stop offset="0.75" style="stop-color:#484C89" />
								<stop offset="1" style="stop-color:#484C89" />
							</radialGradient><clipPath id="php_SVGID_4_">
					<use xlink:href="#php_SVGID_3_" overflow="visible" />
				</clipPath><clipPath id="php_SVGID_6_">
					<use xlink:href="#php_SVGID_5_" overflow="visible" />
				</clipPath><symbol viewBox="-11.5 -10.23174 23 20.46348" id="react">
	<title>React Logo</title>
	<circle cx="0" cy="0" r="2.05" fill="#00bdea" />
	<g stroke="#00bdea" stroke-width="1" fill="none">
		<ellipse rx="11" ry="4.2" />
		<ellipse rx="11" ry="4.2" transform="rotate(60)" />
		<ellipse rx="11" ry="4.2" transform="rotate(120)" />
	</g>
</symbol><symbol viewBox="0 0 960 960" id="ts-js">
<g>
	<path fill="#F7DF1E" d="M0,100C0,45,45,0,100,0h760c55,0,100,45,100,100v760c0,55-45,100-100,100H100C45,960,0,915,0,860V100z" />
</g>
<g>
	<path fill="#3178C6" d="M550.711,409.289C511.82,448.18,448.18,511.82,409.289,550.711L70.711,889.289C31.82,928.18,0,915,0,860
		V100C0,45,45,0,100,0h760c55,0,68.18,31.82,29.289,70.711L550.711,409.289z" />
</g>
<path d="M689.594,775.069c15.743,25.704,36.224,44.598,72.448,44.598c30.431,0,49.87-15.209,49.87-36.224
	c0-25.183-19.973-34.103-53.468-48.754l-18.36-7.878c-52.996-22.578-88.203-50.863-88.203-110.657
	c0-55.08,41.968-97.011,107.556-97.011c46.694,0,80.264,16.251,104.454,58.802l-57.189,36.72
	c-12.592-22.578-26.176-31.473-47.265-31.473c-21.511,0-35.145,13.646-35.145,31.473c0,22.032,13.646,30.952,45.156,44.598
	l18.36,7.865c62.4,26.759,97.631,54.038,97.631,115.371c0,66.121-51.942,102.346-121.698,102.346
	c-68.206,0-112.27-32.502-133.831-75.103L689.594,775.069z M430.158,781.433c11.537,20.469,22.032,37.775,47.265,37.775
	c24.129,0,39.35-9.441,39.35-46.148V523.337h73.441v250.715c0,76.046-44.585,110.657-109.665,110.657
	c-58.802,0-92.855-30.431-110.173-67.083L430.158,781.433z" />
<path d="M180.5,360.5" />
<path fill="#FFFFFF" d="M340.597,318.919v67.842c11.028,5.654,24.072,9.893,39.131,12.72c15.059,2.827,30.929,4.24,47.614,4.24
	c16.261,0,31.707-1.554,46.342-4.665c14.635-3.109,27.467-8.233,38.495-15.371c11.029-7.136,19.76-16.465,26.193-27.985
	c6.433-11.519,9.65-25.758,9.65-42.718c0-12.297-1.838-23.073-5.514-32.331s-8.978-17.49-15.907-24.698
	c-6.928-7.208-15.235-13.675-24.921-19.399c-9.685-5.724-20.608-11.13-32.768-16.217c-8.908-3.675-16.896-7.243-23.966-10.706
	c-7.07-3.464-13.079-6.997-18.028-10.6c-4.949-3.605-8.767-7.421-11.453-11.449c-2.686-4.029-4.03-8.586-4.03-13.675
	c0-4.663,1.202-8.868,3.606-12.614s5.797-6.96,10.18-9.646c4.384-2.685,9.756-4.77,16.119-6.254
	c6.364-1.484,13.433-2.225,21.21-2.225c5.655,0,11.629,0.424,17.921,1.271c6.292,0.848,12.619,2.156,18.983,3.922
	c6.363,1.767,12.548,3.994,18.558,6.678c6.009,2.686,11.558,5.795,16.648,9.329v-63.39c-10.321-3.957-21.598-6.89-33.828-8.798
	s-26.265-2.862-42.1-2.862c-16.12,0-31.39,1.732-45.812,5.194c-14.422,3.462-27.112,8.868-38.071,16.217
	c-10.958,7.351-19.618,16.713-25.98,28.092c-6.363,11.377-9.545,24.98-9.545,40.81c0,20.211,5.833,37.455,17.498,51.73
	c11.664,14.274,29.374,26.358,53.129,36.253c9.332,3.816,18.028,7.561,26.087,11.236s15.024,7.491,20.89,11.449
	c5.868,3.957,10.499,8.268,13.893,12.932c3.393,4.663,5.09,9.963,5.09,15.9c0,4.381-1.061,8.444-3.182,12.19
	s-5.338,6.995-9.65,9.752s-9.685,4.911-16.119,6.466c-6.434,1.556-13.962,2.332-22.588,2.332c-14.705,0-29.268-2.579-43.691-7.738
	C366.26,336.975,352.898,329.237,340.597,318.919L340.597,318.919z M226.546,151.768h87.03V96.094H70.998v55.674h86.604v247.887
	h68.944L226.546,151.768L226.546,151.768z" />
</symbol><symbol viewBox="55.745 0 848.51 960" id="webpack">
<path fill="#FFFFFF" d="M480,0l424.255,239.973v480.055L480,960L55.745,720.027V239.973L480,0z" />
<path fill="#8ED6FB" d="M828.503,703.474L494.032,892.689V745.351l208.4-114.669L828.503,703.474L828.503,703.474z M851.415,682.754
	V287.112l-122.343,70.709v254.334L851.415,682.754L851.415,682.754z M130.182,703.474l334.471,189.215V745.351l-208.51-114.669
	L130.182,703.474z M107.27,682.754V287.112l122.343,70.709v254.334L107.27,682.754z M121.631,261.459L464.652,67.42v142.405
	L244.851,330.743l-1.754,0.987C243.097,331.73,121.631,261.459,121.631,261.459z M837.054,261.459L494.032,67.42v142.405
	l219.801,120.808l1.754,0.987L837.054,261.459L837.054,261.459z" />
<path fill="#1C78C0" d="M464.652,711.805L258.993,598.671V374.704l205.659,118.726V711.805z M494.032,711.805l205.66-113.025
	V374.704l-205.66,118.726V711.805z M272.915,348.832l206.427-113.464l206.427,113.464L479.342,467.996L272.915,348.832
	L272.915,348.832z" />
</symbol></defs><use id="apache-usage" xlink:href="#apache" class="sprite-symbol-usage" /><use id="debian-usage" xlink:href="#debian" class="sprite-symbol-usage" /><use id="git-usage" xlink:href="#git" class="sprite-symbol-usage" /><use id="html5-usage" xlink:href="#html5" class="sprite-symbol-usage" /><use id="java-usage" xlink:href="#java" class="sprite-symbol-usage" /><use id="jest-usage" xlink:href="#jest" class="sprite-symbol-usage" /><use id="jquery-usage" xlink:href="#jquery" class="sprite-symbol-usage" /><use id="magento-usage" xlink:href="#magento" class="sprite-symbol-usage" /><use id="mysql-usage" xlink:href="#mysql" class="sprite-symbol-usage" /><use id="nette-usage" xlink:href="#nette" class="sprite-symbol-usage" /><use id="php-usage" xlink:href="#php" class="sprite-symbol-usage" /><use id="react-usage" xlink:href="#react" class="sprite-symbol-usage" /><use id="ts-js-usage" xlink:href="#ts-js" class="sprite-symbol-usage" /><use id="webpack-usage" xlink:href="#webpack" class="sprite-symbol-usage" /></svg>