<svg version="1.1" id="Layer_1"
  xmlns="http://www.w3.org/2000/svg" x="0px" y="0px" viewBox="0 0 147.668 200.222" enable-background="new 0 0 147.668 200.222" xml:space="preserve">
  <g>
    <path fill="#5382A1" d="M47.558,154.842c0,0-7.651,4.449,5.445,5.955c15.865,1.811,23.975,1.551,41.459-1.758
		c0,0,4.597,2.881,11.017,5.378C66.284,181.216,16.772,163.445,47.558,154.842"/>
    <path fill="#5382A1" d="M42.768,132.921c0,0-8.581,6.353,4.524,7.708c16.949,1.749,30.334,1.891,53.494-2.568
		c0,0,3.204,3.248,8.241,5.023C61.637,156.942,8.854,144.178,42.768,132.921"/>
    <path fill="#E76F00" d="M83.145,95.736c9.658,11.119-2.537,21.125-2.537,21.125s24.522-12.659,13.261-28.512
		C83.35,73.565,75.284,66.22,118.952,40.895C118.952,40.895,50.408,58.014,83.145,95.736"/>
    <path fill="#5382A1" d="M134.985,171.056c0,0,5.661,4.666-6.236,8.274c-22.624,6.854-94.164,8.924-114.038,0.273
		c-7.144-3.107,6.253-7.421,10.468-8.326c4.395-0.953,6.906-0.775,6.906-0.775c-7.944-5.596-51.353,10.99-22.049,15.74
		C89.952,199.203,155.714,180.407,134.985,171.056"/>
    <path fill="#5382A1" d="M51.238,110.208c0,0-36.391,8.643-12.887,11.782c9.924,1.329,29.706,1.028,48.134-0.516
		c15.06-1.271,30.182-3.971,30.182-3.971s-5.31,2.274-9.152,4.897c-36.953,9.719-108.34,5.197-87.789-4.744
		C37.106,109.256,51.238,110.208,51.238,110.208"/>
    <path fill="#5382A1" d="M116.516,146.697c37.566-19.52,20.197-38.279,8.073-35.751c-2.971,0.618-4.296,1.154-4.296,1.154
		s1.104-1.728,3.21-2.476c23.982-8.432,42.427,24.868-7.742,38.057C115.762,147.682,116.344,147.162,116.516,146.697"/>
    <path fill="#E76F00" d="M93.869,0c0,0,20.804,20.811-19.732,52.813c-32.505,25.67-7.412,40.307-0.013,57.03
		c-18.975-17.12-32.899-32.189-23.557-46.215C64.278,43.039,102.262,33.057,93.869,0"/>
    <path fill="#5382A1" d="M54.928,199.592c36.058,2.309,91.428-1.281,92.739-18.342c0,0-2.52,6.467-29.8,11.604
		c-30.775,5.792-68.732,5.115-91.246,1.404C26.623,194.258,31.23,198.073,54.928,199.592"/>
  </g>
</svg>
