<svg xmlns="http://www.w3.org/2000/svg" viewBox="0 0 24 23"><path d="M22.29 20.14V9.86Q21.86 10.34 21.36 10.74 17.77 13.5 15.66 15.27 14.97 15.84 14.54 16.17T13.39 16.81 12.01 17.14H12 11.99Q11.34 17.14 10.61 16.81T9.46 16.17 8.34 15.27Q6.23 13.5 2.64 10.74 2.14 10.34 1.71 9.86V20.14Q1.71 20.32 1.84 20.44T2.14 20.57H21.86Q22.03 20.57 22.16 20.44T22.29 20.14ZM22.29 6.07V5.92 5.74T22.28 5.56 22.24 5.4 22.17 5.28 22.04 5.18 21.86 5.14H2.14Q1.97 5.14 1.84 5.27T1.71 5.57Q1.71 7.82 3.68 9.37 6.27 11.41 9.05 13.62 9.13 13.69 9.52 14.02T10.14 14.52 10.73 14.94 11.41 15.31 11.99 15.43H12 12.01Q12.28 15.43 12.59 15.31T13.27 14.94 13.86 14.52 14.48 14.02 14.95 13.62Q17.73 11.41 20.32 9.37 21.04 8.8 21.66 7.83T22.29 6.07ZM24 5.57V20.14Q24 21.03 23.37 21.66T21.86 22.29H2.14Q1.26 22.29 0.63 21.66T0 20.14V5.57Q0 4.69 0.63 4.06T2.14 3.43H21.86Q22.74 3.43 23.37 4.06T24 5.57Z"/></svg>