<svg xmlns="http://www.w3.org/2000/svg" viewBox="0 0 24 24"><path d="M18.86 12.43V16.71Q18.86 18.31 17.73 19.44T15 20.57H3.86Q2.26 20.57 1.13 19.44T0 16.71V5.57Q0 3.98 1.13 2.85T3.86 1.71H13.29Q13.47 1.71 13.59 1.83T13.71 2.14V3Q13.71 3.19 13.59 3.31T13.29 3.43H3.86Q2.97 3.43 2.34 4.06T1.71 5.57V16.71Q1.71 17.6 2.34 18.23T3.86 18.86H15Q15.88 18.86 16.51 18.23T17.14 16.71V12.43Q17.14 12.24 17.26 12.12T17.57 12H18.43Q18.62 12 18.74 12.12T18.86 12.43ZM24 0.86V7.71Q24 8.06 23.75 8.32T23.14 8.57 22.54 8.32L20.18 5.96 11.45 14.69Q11.32 14.83 11.14 14.83T10.83 14.69L9.31 13.17Q9.17 13.03 9.17 12.86T9.31 12.55L18.04 3.82 15.68 1.46Q15.43 1.21 15.43 0.86T15.68 0.25 16.29 0H23.14Q23.49 0 23.75 0.25T24 0.86Z"/></svg>