<?xml version="1.0" encoding="utf-8"?>
<!-- Generator: Adobe Illustrator 17.0.0, SVG Export Plug-In . SVG Version: 6.00 Build 0)  -->
<!DOCTYPE svg PUBLIC "-//W3C//DTD SVG 1.1//EN" "http://www.w3.org/Graphics/SVG/1.1/DTD/svg11.dtd">
<svg version="1.1" id="Vrstva_1" xmlns="http://www.w3.org/2000/svg" xmlns:xlink="http://www.w3.org/1999/xlink" x="0px" y="0px"
	 width="960px" height="960px" viewBox="0 0 960 960" enable-background="new 0 0 960 960" xml:space="preserve">
<g>
	<path fill="#F7DF1E" d="M0,100C0,45,45,0,100,0h760c55,0,100,45,100,100v760c0,55-45,100-100,100H100C45,960,0,915,0,860V100z"/>
</g>
<g>
	<path fill="#3178C6" d="M550.711,409.289C511.82,448.18,448.18,511.82,409.289,550.711L70.711,889.289C31.82,928.18,0,915,0,860
		V100C0,45,45,0,100,0h760c55,0,68.18,31.82,29.289,70.711L550.711,409.289z"/>
</g>
<path d="M689.594,775.069c15.743,25.704,36.224,44.598,72.448,44.598c30.431,0,49.87-15.209,49.87-36.224
	c0-25.183-19.973-34.103-53.468-48.754l-18.36-7.878c-52.996-22.578-88.203-50.863-88.203-110.657
	c0-55.08,41.968-97.011,107.556-97.011c46.694,0,80.264,16.251,104.454,58.802l-57.189,36.72
	c-12.592-22.578-26.176-31.473-47.265-31.473c-21.511,0-35.145,13.646-35.145,31.473c0,22.032,13.646,30.952,45.156,44.598
	l18.36,7.865c62.4,26.759,97.631,54.038,97.631,115.371c0,66.121-51.942,102.346-121.698,102.346
	c-68.206,0-112.27-32.502-133.831-75.103L689.594,775.069z M430.158,781.433c11.537,20.469,22.032,37.775,47.265,37.775
	c24.129,0,39.35-9.441,39.35-46.148V523.337h73.441v250.715c0,76.046-44.585,110.657-109.665,110.657
	c-58.802,0-92.855-30.431-110.173-67.083L430.158,781.433z"/>
<path d="M180.5,360.5"/>
<path fill="#FFFFFF" d="M340.597,318.919v67.842c11.028,5.654,24.072,9.893,39.131,12.72c15.059,2.827,30.929,4.24,47.614,4.24
	c16.261,0,31.707-1.554,46.342-4.665c14.635-3.109,27.467-8.233,38.495-15.371c11.029-7.136,19.76-16.465,26.193-27.985
	c6.433-11.519,9.65-25.758,9.65-42.718c0-12.297-1.838-23.073-5.514-32.331s-8.978-17.49-15.907-24.698
	c-6.928-7.208-15.235-13.675-24.921-19.399c-9.685-5.724-20.608-11.13-32.768-16.217c-8.908-3.675-16.896-7.243-23.966-10.706
	c-7.07-3.464-13.079-6.997-18.028-10.6c-4.949-3.605-8.767-7.421-11.453-11.449c-2.686-4.029-4.03-8.586-4.03-13.675
	c0-4.663,1.202-8.868,3.606-12.614s5.797-6.96,10.18-9.646c4.384-2.685,9.756-4.77,16.119-6.254
	c6.364-1.484,13.433-2.225,21.21-2.225c5.655,0,11.629,0.424,17.921,1.271c6.292,0.848,12.619,2.156,18.983,3.922
	c6.363,1.767,12.548,3.994,18.558,6.678c6.009,2.686,11.558,5.795,16.648,9.329v-63.39c-10.321-3.957-21.598-6.89-33.828-8.798
	s-26.265-2.862-42.1-2.862c-16.12,0-31.39,1.732-45.812,5.194c-14.422,3.462-27.112,8.868-38.071,16.217
	c-10.958,7.351-19.618,16.713-25.98,28.092c-6.363,11.377-9.545,24.98-9.545,40.81c0,20.211,5.833,37.455,17.498,51.73
	c11.664,14.274,29.374,26.358,53.129,36.253c9.332,3.816,18.028,7.561,26.087,11.236s15.024,7.491,20.89,11.449
	c5.868,3.957,10.499,8.268,13.893,12.932c3.393,4.663,5.09,9.963,5.09,15.9c0,4.381-1.061,8.444-3.182,12.19
	s-5.338,6.995-9.65,9.752s-9.685,4.911-16.119,6.466c-6.434,1.556-13.962,2.332-22.588,2.332c-14.705,0-29.268-2.579-43.691-7.738
	C366.26,336.975,352.898,329.237,340.597,318.919L340.597,318.919z M226.546,151.768h87.03V96.094H70.998v55.674h86.604v247.887
	h68.944L226.546,151.768L226.546,151.768z"/>
</svg>
