<?xml version="1.0" encoding="utf-8"?>
<!-- Generator: Adobe Illustrator 17.0.0, SVG Export Plug-In . SVG Version: 6.00 Build 0)  -->
<!DOCTYPE svg PUBLIC "-//W3C//DTD SVG 1.1//EN" "http://www.w3.org/Graphics/SVG/1.1/DTD/svg11.dtd">
<svg version="1.1"
	 id="svg3430" xmlns:rdf="http://www.w3.org/1999/02/22-rdf-syntax-ns#" xmlns:svg="http://www.w3.org/2000/svg" xmlns:dc="http://purl.org/dc/elements/1.1/" xmlns:cc="http://creativecommons.org/ns#"
	 xmlns="http://www.w3.org/2000/svg" xmlns:xlink="http://www.w3.org/1999/xlink" x="0px" y="0px" width="711.201px"
	 height="408.299px" viewBox="0 0 711.201 408.299" enable-background="new 0 0 711.201 408.299" xml:space="preserve">
<g id="g3438" transform="matrix(1.25,0,0,-1.25,-4.4,394.29875)">
	<g id="g3440">
		<g>
			<g>
				<defs>
					<path id="SVGID_1_" d="M11.52,142.8C11.52,62.477,135.307-2.639,288-2.639l0,0c152.693,0,276.481,65.116,276.481,145.439l0,0
						c0,80.322-123.788,145.439-276.481,145.439l0,0C135.307,288.239,11.52,223.122,11.52,142.8"/>
				</defs>
				<clipPath id="SVGID_2_">
					<use xlink:href="#SVGID_1_"  overflow="visible"/>
				</clipPath>
				<g id="g3442" clip-path="url(#SVGID_2_)">
					<g id="g3448">
						<g id="g3450">
							
								<radialGradient id="path3462_1_" cx="-172.244" cy="-399.6414" r="1" gradientTransform="matrix(567.278 0 0 -567.278 97887.7578 -226470.6875)" gradientUnits="userSpaceOnUse">
								<stop  offset="0" style="stop-color:#AEB2D5"/>
								<stop  offset="0.3" style="stop-color:#AEB2D5"/>
								<stop  offset="0.75" style="stop-color:#484C89"/>
								<stop  offset="1" style="stop-color:#484C89"/>
							</radialGradient>
							<path id="path3462" fill="url(#path3462_1_)" d="M11.52,142.8C11.52,62.477,135.307-2.639,288-2.639l0,0
								c152.693,0,276.481,65.116,276.481,145.439l0,0c0,80.322-123.788,145.439-276.481,145.439l0,0
								C135.307,288.239,11.52,223.122,11.52,142.8"/>
						</g>
					</g>
				</g>
			</g>
		</g>
	</g>
	<g id="g3464">
		<g>
			<g>
				<defs>
					<rect id="SVGID_3_" x="-162" y="-110.325" width="900" height="506.25"/>
				</defs>
				<clipPath id="SVGID_4_">
					<use xlink:href="#SVGID_3_"  overflow="visible"/>
				</clipPath>
				<g id="g3466" clip-path="url(#SVGID_4_)">
					<g id="g3472" transform="translate(288,27.3594)">
						<path id="path3474" fill="#777BB3" d="M0-19.2c146.729,0,265.68,60.281,265.68,134.641
							C265.68,189.8,146.729,250.082,0,250.082S-265.68,189.8-265.68,115.441C-265.68,41.081-146.729-19.2,0-19.2"/>
					</g>
				</g>
			</g>
		</g>
	</g>
	<g id="g3476">
		<g>
			<g>
				<defs>
					<rect id="SVGID_5_" x="-162" y="-110.325" width="900" height="506.25"/>
				</defs>
				<clipPath id="SVGID_6_">
					<use xlink:href="#SVGID_5_"  overflow="visible"/>
				</clipPath>
				<g id="g3478" clip-path="url(#SVGID_6_)">
					<g id="g3484" transform="translate(161.7344,145.3066)">
						<path id="path3486" d="M0-19.2c12.065,0,21.072,2.225,26.771,6.611c5.638,4.341,9.532,11.862,11.573,22.353
							c1.903,9.806,1.178,16.653-2.154,20.348C32.783,33.886,25.417,35.8,14.297,35.8H-4.984l-10.689-55H0z M-63.063-86.95
							c-0.895,0-1.745,0.4-2.314,1.092c-0.57,0.691-0.801,1.601-0.63,2.48l28.328,145.751c0.274,1.409,1.509,2.427,2.945,2.427
							H26.32c19.188,0,33.47-5.21,42.447-15.487c9.025-10.331,11.812-24.772,8.283-42.921c-1.436-7.394-3.906-14.261-7.341-20.409
							c-3.439-6.155-7.984-11.85-13.511-16.93c-6.616-6.192-14.104-10.682-22.236-13.324C25.959-46.878,15.681-48.2,3.414-48.2
							h-24.722l-7.06-36.322c-0.274-1.41-1.508-2.428-2.944-2.428H-63.063z"/>
					</g>
					<g id="g3488" transform="translate(159.2236,197.3071)">
						<path id="path3490" fill="#FFFFFF" d="M0-19.2h16.808c13.421,0,18.083-2.945,19.667-4.7c2.628-2.914,3.124-9.058,1.435-17.767
							c-1.898-9.75-5.416-16.663-10.458-20.545C22.29-66.186,13.898-68.2,2.511-68.2H-9.523L0-19.2z M28.831,15.8h-61.055
							c-2.872,0-5.341-2.036-5.889-4.855l-28.328-145.751c-0.342-1.759,0.12-3.578,1.259-4.961c1.14-1.383,2.838-2.183,4.63-2.183
							h31.75c2.873,0,5.342,2.036,5.89,4.855l6.588,33.895H5.925c12.582,0,23.174,1.372,31.479,4.077
							c8.541,2.775,16.399,7.48,23.354,13.984c5.752,5.292,10.49,11.232,14.08,17.657c3.591,6.427,6.171,13.594,7.668,21.302
							c3.715,19.104,0.697,34.402-8.969,45.466C63.965,10.244,48.923,15.8,28.831,15.8 M-16.802-74.2H2.511
							c12.801,0,22.336,2.411,28.601,7.234c6.266,4.824,10.492,12.875,12.688,24.157c2.101,10.832,1.144,18.476-2.871,22.929
							c-4.02,4.453-12.059,6.68-24.121,6.68H-4.946L-16.802-74.2 M28.831,9.8c18.367,0,31.766-4.82,40.188-14.461
							c8.421-9.641,10.957-23.098,7.597-40.375c-1.383-7.117-3.722-13.624-7.015-19.519c-3.297-5.899-7.602-11.293-12.922-16.184
							c-6.34-5.933-13.383-10.161-21.133-12.679C27.796-95.943,17.925-97.2,5.925-97.2h-27.196l-7.531-38.75h-31.75L-32.224,9.8
							H28.831"/>
					</g>
					<g id="g3492" transform="translate(311.583,116.3066)">
						<path id="path3494" d="M0-19.2c-0.896,0-1.745,0.4-2.314,1.092c-0.571,0.691-0.802,1.6-0.631,2.48L9.586,48.861
							c1.192,6.133,0.898,10.535-0.827,12.395C7.703,62.393,4.531,64.3-4.848,64.3H-27.55l-15.755-81.072
							c-0.274-1.41-1.509-2.428-2.945-2.428h-31.5c-0.896,0-1.745,0.4-2.315,1.092c-0.57,0.691-0.801,1.601-0.63,2.48
							l28.328,145.751c0.274,1.409,1.509,2.427,2.945,2.427h31.5c0.896,0,1.745-0.4,2.315-1.091c0.57-0.692,0.801-1.601,0.63-2.481
							L-21.813,93.8H2.609c18.605,0,31.221-3.28,38.569-10.028c7.49-6.884,9.827-17.891,6.947-32.719l-13.18-67.825
							C34.671-18.182,33.437-19.2,32-19.2H0z"/>
					</g>
					<g id="g3496" transform="translate(293.6611,271.0571)">
						<path id="path3498" fill="#FFFFFF" d="M0-19.2h-31.5c-2.873,0-5.342-2.036-5.89-4.855l-28.328-145.751
							c-0.342-1.759,0.12-3.578,1.26-4.961s2.838-2.183,4.63-2.183h31.5c2.872,0,5.342,2.036,5.89,4.855L-7.155-93.45h20.229
							c9.363,0,11.328-2,11.407-2.086c0.568-0.611,1.315-3.441,0.082-9.781l-12.531-64.489c-0.342-1.759,0.12-3.578,1.26-4.961
							s2.838-2.183,4.63-2.183h32c2.872,0,5.342,2.036,5.89,4.855l13.179,67.825c3.093,15.921,0.447,27.864-7.861,35.5
							c-7.928,7.281-21.208,10.82-40.599,10.82H-0.253L5.89-26.345c0.341,1.759-0.12,3.579-1.26,4.961
							C3.49-20.001,1.792-19.2,0-19.2 M0-25.2l-7.531-38.75h28.062c17.657,0,29.836-3.082,36.539-9.238
							c6.703-6.16,8.711-16.141,6.032-29.938l-13.18-67.824h-32l12.531,64.488c1.426,7.336,0.902,12.34-1.574,15.008
							c-2.477,2.668-7.746,4.004-15.805,4.004h-25.176l-16.226-83.5h-31.5L-31.5-25.2H0"/>
					</g>
					<g id="g3500" transform="translate(409.5498,145.3066)">
						<path id="path3502" d="M0-19.2c12.065,0,21.072,2.225,26.771,6.611c5.638,4.34,9.532,11.861,11.574,22.353
							c1.903,9.806,1.178,16.653-2.155,20.348C32.783,33.886,25.417,35.8,14.297,35.8H-4.984l-10.689-55H0z M-63.062-86.95
							c-0.895,0-1.745,0.4-2.314,1.092c-0.57,0.691-0.802,1.601-0.631,2.48l28.328,145.751c0.275,1.409,1.509,2.427,2.946,2.427
							H26.32c19.189,0,33.47-5.21,42.448-15.487c9.025-10.33,11.811-24.771,8.283-42.921c-1.438-7.394-3.907-14.261-7.342-20.409
							c-3.439-6.155-7.984-11.85-13.511-16.93c-6.616-6.192-14.104-10.682-22.236-13.324C25.959-46.878,15.681-48.2,3.414-48.2
							h-24.723l-7.057-36.322c-0.275-1.41-1.509-2.428-2.946-2.428H-63.062z"/>
					</g>
					<g id="g3504" transform="translate(407.0391,197.3071)">
						<path id="path3506" fill="#FFFFFF" d="M0-19.2h16.808c13.421,0,18.083-2.945,19.667-4.7c2.629-2.914,3.125-9.058,1.435-17.766
							c-1.898-9.751-5.417-16.664-10.458-20.546C22.29-66.186,13.898-68.2,2.511-68.2H-9.522L0-19.2z M28.831,15.8h-61.054
							c-2.872,0-5.341-2.036-5.889-4.855L-66.44-134.806c-0.342-1.759,0.12-3.578,1.259-4.961c1.14-1.383,2.838-2.183,4.63-2.183
							h31.75c2.872,0,5.342,2.036,5.89,4.855l6.587,33.895H5.925c12.582,0,23.174,1.372,31.479,4.077
							c8.541,2.775,16.401,7.481,23.356,13.986c5.752,5.291,10.488,11.23,14.078,17.655c3.591,6.427,6.171,13.594,7.668,21.302
							c3.715,19.105,0.697,34.403-8.969,45.467C63.965,10.244,48.924,15.8,28.831,15.8 M-16.801-74.2H2.511
							c12.801,0,22.336,2.411,28.601,7.234c6.267,4.824,10.492,12.875,12.688,24.157c2.102,10.832,1.145,18.476-2.871,22.929
							c-4.02,4.453-12.059,6.68-24.121,6.68H-4.946L-16.801-74.2 M28.831,9.8c18.367,0,31.766-4.82,40.188-14.461
							s10.957-23.098,7.597-40.375c-1.383-7.117-3.722-13.624-7.015-19.519c-3.297-5.899-7.602-11.293-12.922-16.184
							c-6.34-5.933-13.383-10.161-21.133-12.679C27.796-95.943,17.925-97.2,5.925-97.2h-27.196l-7.53-38.75h-31.75L-32.223,9.8
							H28.831"/>
					</g>
				</g>
			</g>
		</g>
	</g>
</g>
</svg>
