<svg version="1.1" xmlns="http://www.w3.org/2000/svg" x="0px" y="0px"
	 width="680.126px" height="960px" viewBox="139.937 0 680.126 960" enable-background="new 139.937 0 680.126 960"
	 xml:space="preserve">
<polygon fill="#E44D26" points="201.832,882.894 139.937,188.663 820.063,188.663 758.102,882.786 479.584,960 "/>
<polygon fill="#F16529" points="480,900.981 705.056,838.586 758.006,245.426 480,245.426 "/>
<polygon fill="#EBEBEB" points="480,502.907 367.331,502.907 359.55,415.717 480,415.717 480,330.572 479.706,330.572 
	266.497,330.572 268.536,353.415 289.462,588.051 480,588.051 "/>
<polygon fill="#EBEBEB" points="480,724.037 479.627,724.136 384.801,698.531 378.739,630.624 332.661,630.624 293.267,630.624 
	305.196,764.314 479.608,812.732 480,812.623 "/>
<path d="M203.216,0h43.269v42.75h39.581V0h43.271v129.458h-43.269v-43.35h-39.581v43.35h-43.269V0H203.216z"/>
<path d="M386.239,42.93h-38.092V0h119.475v42.93h-38.109v86.528h-43.271V42.93H386.239z"/>
<path d="M486.583,0h45.118l27.754,45.487L587.181,0h45.135v129.458h-43.091V65.291l-29.769,46.029h-0.744l-29.79-46.029v64.166
	h-42.337V0z"/>
<path d="M653.85,0h43.283v86.666h60.849v42.791H653.85V0z"/>
<polygon fill="#FFFFFF" points="479.706,502.907 479.706,588.051 584.552,588.051 574.669,698.477 479.706,724.108 479.706,812.691 
	654.257,764.314 655.537,749.929 675.546,525.771 677.623,502.907 654.679,502.907 "/>
<polygon fill="#FFFFFF" points="479.706,330.572 479.706,383.454 479.706,415.509 479.706,415.717 685.097,415.717 685.097,415.717 
	685.371,415.717 687.079,396.579 690.958,353.415 692.994,330.572 "/>
</svg>
