<svg version="1.1" xmlns="http://www.w3.org/2000/svg" x="0px" y="0px"
	 width="190.55px" height="198.613px" viewBox="89.995 -1.575 190.55 198.613"
	 enable-background="new 89.995 -1.575 190.55 198.613" xml:space="preserve">
<g>
	<g>
		<path fill="#131B28" d="M144.439,164.327l0-0.002l-1.522,5.395L144.439,164.327L144.439,164.327z"/>
		<path fill="#131B28" d="M152.269,176.039l-1.678-0.01L152.269,176.039z"/>
		<path fill="#131B28" d="M151.837,184.096h0.002l-10.051,0.037L151.837,184.096L151.837,184.096z"/>
		<path fill="#131B28" d="M153.944,176.049l-1.678-0.01L153.944,176.049z"/>
		<path fill="#131B28" d="M152.718,183.411l1.751-6.677l-1.751,6.678V183.411L152.718,183.411z"/>
		<path fill="#131B28" d="M189.722,152.664l-3.261,15.332C186.461,167.996,189.722,152.664,189.722,152.664z"/>
		<path fill="#131B28" d="M181.338,152.664l-2.476,11.454L181.338,152.664L181.338,152.664z"/>
		<path fill="#131B28" d="M189.163,151.974h-6.974c-0.387,0-0.771,0.31-0.854,0.689l-2.476,11.454l-2.476,11.454
			c-0.082,0.378-0.466,0.687-0.853,0.687H171.3h-0.705c-4.883,0-4.319-3.377-3.318-8.005c0.01-0.047,0.02-0.092,0.03-0.14
			l0.11-0.583c0.007-0.038,0.014-0.075,0.02-0.11l0.223-1.188l0.239-1.273c0.073-0.384,0.183-0.945,0.255-1.297l1.125-5.499
			l1.126-5.499c0.078-0.379-0.176-0.691-0.563-0.691h-7.158c-0.387,0-0.77,0.312-0.849,0.69l-1.539,7.302l-1.539,7.301
			c-0.001,0.003-0.002,0.008-0.002,0.011l-0.143,0.679c-1.773,8.094-1.303,15.812,8.332,16.054c0.157,0.005,0.279,0.006,0.279,0.006
			h15.124c0.387,0,0.77-0.31,0.851-0.69l3.261-15.331l3.261-15.332C189.801,152.285,189.55,151.974,189.163,151.974L189.163,151.974
			z"/>
		<path fill="#131B28" d="M216.984,176.339c0.388,0,0.641,0.31,0.563,0.69l-0.677,3.31"/>
		<path fill="#131B28" d="M216.194,183.649l0.677-3.312l-0.677,3.313C216.193,183.65,216.194,183.65,216.194,183.649
			L216.194,183.649z"/>
		<path fill="#131B28" d="M215.345,184.346c0.001,0,0.002-0.001,0.003-0.001c-2.052,0.017-8.22,0.063-12.855,0.063
			C208.134,184.408,215.344,184.346,215.345,184.346L215.345,184.346z"/>
		<path fill="#131B28" d="M198.333,172.076c-0.006-0.363,0.407-0.987,0.794-0.987l-0.871-0.014
			C197.864,175.022,198.333,172.076,198.333,172.076L198.333,172.076z"/>
		<path fill="#131B28" d="M203.128,184.407c-0.044,0-0.09,0-0.134,0.001C203.038,184.407,203.084,184.407,203.128,184.407z"/>
		<path fill="#131B28" d="M216.984,176.339c0.388,0,0.641,0.31,0.563,0.69l-0.677,3.31l-0.11,0.54"/>
		<path fill="#131B28" d="M206.43,184.399h-0.028H206.43z"/>
		<path fill="#131B28" d="M204.718,184.405h-0.099H204.718z"/>
		<path fill="#131B28" d="M204.196,184.406c-0.055,0-0.11,0-0.164,0.001C204.086,184.406,204.14,184.406,204.196,184.406z"/>
		<path fill="#131B28" d="M203.664,184.407h-0.144H203.664z"/>
		<path fill="#131B28" d="M204.618,184.405c-0.141,0-0.283,0.001-0.422,0.001C204.335,184.406,204.477,184.405,204.618,184.405z"/>
		<path fill="#131B28" d="M206.403,184.399c-0.564,0.002-1.128,0.005-1.683,0.006C205.275,184.404,205.839,184.402,206.403,184.399z
			"/>
		<path fill="#131B28" d="M215.349,184.345L215.349,184.345c-1.504,0.012-5.218,0.04-8.922,0.054
			C210.13,184.386,213.845,184.357,215.349,184.345z"/>
		<path fill="#131B28" d="M216.194,183.651l0.567-2.773l-0.568,2.775C216.193,183.652,216.194,183.652,216.194,183.651
			L216.194,183.651z"/>
		<path fill="#131B28" d="M204.032,184.407h-0.368H204.032z"/>
		<path fill="#131B28" d="M202.992,184.408h-0.498H202.992z"/>
		<path fill="#131B28" d="M203.519,184.407h-0.393H203.519z"/>
		<path fill="#131B28" d="M101.504,172.159l1.083-4.802l-1.238,5.489l-1.189,5.591l1.042-4.902
			C101.283,173.156,101.419,172.537,101.504,172.159L101.504,172.159z"/>
		<path fill="#131B28" d="M114.47,151.893h-7.659c-0.388,0-0.774,0.309-0.86,0.686l-0.726,3.205l-0.726,3.207
			c-0.085,0.377,0.161,0.686,0.549,0.686h7.718c0.387,0,0.772-0.309,0.855-0.687l0.702-3.205l0.702-3.203v-0.001
			C115.107,152.202,114.858,151.893,114.47,151.893L114.47,151.893z"/>
		<path fill="#131B28" d="M112.804,162.556L112.804,162.556l-2.246,10.391L112.804,162.556z"/>
		<path fill="#131B28" d="M103.671,162.554l-1.084,4.802L103.671,162.554z"/>
		<path fill="#131B28" d="M112.249,161.867h-7.719c-0.387,0-0.774,0.309-0.859,0.687l-1.084,4.802l-1.083,4.802
			c-0.085,0.378-0.222,0.998-0.302,1.377l-1.042,4.902l-1.041,4.902c-0.081,0.378-0.247,0.989-0.371,1.356
			c0,0-1.442,4.291-3.866,4.242c-0.103-0.002-0.203-0.003-0.303-0.006c-1.175-0.022-2.098-0.039-2.098-0.039h-0.002
			c-0.386-0.006-0.775,0.296-0.865,0.672l-0.801,3.365l-0.799,3.364c-0.09,0.376,0.153,0.686,0.538,0.693
			c1.375,0.017,4.454,0.051,6.318,0.051c6.056,0,9.248-3.355,11.294-13.01l2.395-11.081l2.246-10.392
			C112.886,162.177,112.636,161.867,112.249,161.867L112.249,161.867z"/>
		<path fill="#131B28" d="M221.903,184.015c-0.387,0-0.638-0.31-0.557-0.69l5.807-27.199"/>
		<path fill="#131B28" d="M229.973,183.325l2.348-11.609L229.973,183.325z"/>
		<path fill="#131B28" d="M221.43,183.671c-0.047-0.19-0.019-0.654,0.063-1.033l2.756-12.91l-2.903,13.599
			c-0.081,0.379,0.17,0.69,0.557,0.69h0.705C222.22,184.016,221.477,183.86,221.43,183.671L221.43,183.671z"/>
		<path fill="#131B28" d="M229.514,183.86c-0.211,0.085-0.701,0.155-1.088,0.155h0.705c0.387,0,0.767-0.31,0.844-0.691l0.14-0.69
			C230.037,183.014,229.725,183.775,229.514,183.86L229.514,183.86z"/>
		<path fill="#131B28" d="M231.149,177.52l1.037-5.124c0,0.003-0.001,0.008-0.002,0.01L231.149,177.52L231.149,177.52z"/>
		<path fill="#131B28" d="M254.061,157.949l0.32,1.322c0.088,0.378-0.156,0.685-0.543,0.686"/>
		<path fill="#131B28" d="M230.114,182.635l1.034-5.115L230.114,182.635z"/>
		<path fill="#131B28" d="M253.743,156.595l0.317,1.354L253.743,156.595z"/>
		<path fill="#131B28" d="M232.184,172.397c0.077-0.379,0.205-0.993,0.285-1.369l1.107-5.187l-1.254,5.875L232.184,172.397
			L232.184,172.397z"/>
		<path fill="#131B28" d="M227.248,155.681c-0.077,0.366-0.176,0.828-0.241,1.134l-2.756,12.911l2.903-13.6L227.248,155.681
			L227.248,155.681z"/>
		<path fill="#131B28" d="M254.378,159.271l-0.32-1.322l-0.317-1.354l-0.16-0.685c-0.627-2.436-2.468-3.842-6.464-3.842
			l-6.222-0.007l-5.73-0.007h-0.492h-5.956c-0.387,0-0.77,0.309-0.85,0.689h0l-0.285,1.347l-0.337,1.591l-0.094,0.446l-2.903,13.6
			l-2.756,12.91c-0.082,0.379-0.11,0.844-0.063,1.033c0.047,0.19,0.789,0.345,1.177,0.345h5.817c0.388,0,0.878-0.07,1.088-0.155
			c0.211-0.085,0.523-0.846,0.6-1.225l1.034-5.115l1.035-5.114c0-0.002,0.001-0.007,0.002-0.01l0.138-0.681l1.254-5.875l1.108-5.189
			c0.082-0.377,0.463-0.685,0.85-0.686l18.302-0.009C254.223,159.956,254.467,159.648,254.378,159.271L254.378,159.271z"/>
		<path fill="#131B28" d="M277.939,147.32c-0.388,0.003-1.021,0.005-1.409,0.005h-5.858c-0.388,0-0.884,0.262-1.102,0.582
			l-12.954,18.977c-0.219,0.32-0.468,0.273-0.554-0.104l-0.953-4.181c-0.086-0.378-0.474-0.686-0.861-0.686h-8.328
			c-0.388,0-0.617,0.304-0.511,0.676l3.732,13.072c0.106,0.373,0.114,0.985,0.018,1.359l-1.627,6.327
			c-0.096,0.376,0.142,0.683,0.529,0.683h8.23c0.387,0,0.783-0.307,0.879-0.683l1.627-6.327c0.096-0.375,0.365-0.936,0.599-1.245
			l21.03-27.911c0.233-0.309,0.107-0.561-0.28-0.558L277.939,147.32L277.939,147.32z"/>
		<path fill="#131B28" d="M211.78,163.692l0-0.008c-0.049,0.42-0.436,0.728-0.823,0.728h-10.558c-0.365,0-0.551-0.248-0.497-0.554
			c0.003-0.009,0.005-0.017,0.01-0.024c0,0-0.004,0.001-0.007,0.003c0.002-0.012,0.002-0.023,0.006-0.035c0,0,0.02-0.074,0.048-0.18
			c1.008-2.681,3.062-4.441,6.923-4.441C211.227,159.182,212.075,161.305,211.78,163.692L211.78,163.692z M208.682,151.506
			c-13.552,0-16.763,8.226-18.565,16.528c-1.802,8.462-1.646,16.374,12.377,16.374h0.498c0.044-0.001,0.09-0.001,0.134-0.001h0.392
			h0.144h0.368c0.054-0.001,0.109-0.001,0.164-0.001c0.14,0,0.281-0.001,0.422-0.001h0.099c0.555-0.001,1.118-0.004,1.683-0.006
			h0.028c3.704-0.014,7.418-0.042,8.923-0.054c0.385-0.006,0.761-0.316,0.84-0.692l0.568-2.775l0.11-0.54l0.677-3.31
			c0.078-0.379-0.176-0.69-0.563-0.69h-12.607c-5.014,0-6.503-1.333-5.955-5.25h20.154l-0.002,0.002
			c0.005,0,0.009-0.002,0.014-0.002c0.32-0.006,0.616-0.226,0.734-0.52c0.022-0.057,0.041-0.115,0.049-0.176l-0.002,0.002
			C222.359,159.108,221.501,151.506,208.682,151.506L208.682,151.506z"/>
		<path fill="#131B28" d="M144.63,163.649l-0.191,0.675c0,0.002,0,0.002,0,0.002l-1.522,5.393l-1.521,5.392
			c-0.105,0.373-0.508,0.677-0.896,0.677h-8.055c-6.11,0-7.597-4.779-6.11-11.827c1.487-7.209,4.404-11.691,10.417-12.144
			C144.97,151.198,146.614,156.978,144.63,163.649L144.63,163.649z M150.154,175.374c0,0,3.797-9.22,4.66-14.547
			c1.176-7.13-2.393-17.469-16.181-17.469c-13.709,0-19.662,9.872-21.934,20.603c-2.271,10.809,0.705,20.289,14.336,20.211
			l10.754-0.04l10.051-0.037c0.387-0.003,0.783-0.31,0.881-0.684l1.751-6.678c0.098-0.375-0.139-0.683-0.526-0.685l-1.678-0.01
			l-1.678-0.01c-0.329-0.002-0.518-0.215-0.478-0.498c0.007-0.051,0.019-0.103,0.041-0.157L150.154,175.374z"/>
		<path fill="#131B28" d="M218.02,169.203c0,0.255-0.207,0.462-0.462,0.462c-0.255,0-0.462-0.207-0.462-0.462
			c0-0.255,0.207-0.461,0.462-0.461C217.813,168.741,218.02,168.948,218.02,169.203z"/>
	</g>
	<g>
		<path fill="#0868AC" d="M127.452,28.095c-11.61,16.687-10.165,38.397-1.296,56.128c0.211,0.425,0.432,0.843,0.65,1.262
			c0.139,0.265,0.27,0.537,0.415,0.799c0.082,0.156,0.173,0.309,0.258,0.459c0.151,0.282,0.306,0.551,0.462,0.826
			c0.275,0.486,0.558,0.969,0.847,1.452c0.16,0.265,0.318,0.53,0.483,0.796c0.32,0.517,0.648,1.027,0.983,1.537
			c0.139,0.218,0.275,0.435,0.418,0.646c0.463,0.69,0.935,1.377,1.423,2.054c0.012,0.017,0.025,0.037,0.041,0.054
			c0.077,0.109,0.162,0.214,0.24,0.323c0.422,0.582,0.857,1.156,1.297,1.724c0.162,0.207,0.325,0.415,0.488,0.622
			c0.393,0.493,0.792,0.983,1.199,1.472c0.151,0.184,0.304,0.367,0.457,0.548c0.546,0.643,1.102,1.282,1.67,1.908
			c0.01,0.01,0.024,0.024,0.034,0.034c0.024,0.027,0.044,0.044,0.065,0.071c0.554,0.605,1.122,1.197,1.697,1.789
			c0.179,0.184,0.36,0.367,0.544,0.548c0.445,0.449,0.898,0.891,1.355,1.33c0.185,0.177,0.369,0.357,0.554,0.527
			c0.61,0.575,1.228,1.139,1.857,1.69c0.01,0.01,0.019,0.017,0.029,0.024c0.107,0.095,0.218,0.184,0.323,0.275
			c0.554,0.479,1.119,0.956,1.687,1.425c0.231,0.187,0.466,0.371,0.699,0.558c0.464,0.371,0.933,0.738,1.406,1.098
			c0.25,0.19,0.5,0.381,0.752,0.571c0.522,0.384,1.047,0.762,1.578,1.132c0.194,0.139,0.381,0.275,0.575,0.408
			c0.054,0.037,0.104,0.075,0.158,0.112c0.503,0.347,1.018,0.68,1.532,1.013c0.221,0.146,0.44,0.299,0.663,0.442
			c0.789,0.5,1.59,0.993,2.399,1.469c0.219,0.126,0.442,0.248,0.663,0.374c0.595,0.343,1.194,0.68,1.801,1.01
			c0.328,0.177,0.665,0.343,0.996,0.514c0.428,0.224,0.854,0.452,1.289,0.67c0.099,0.048,0.201,0.095,0.298,0.143
			c0.175,0.085,0.352,0.167,0.527,0.255c0.675,0.323,1.355,0.639,2.042,0.945c0.146,0.065,0.287,0.129,0.432,0.194
			c0.787,0.343,1.581,0.673,2.382,0.99c0.192,0.078,0.386,0.153,0.58,0.228c0.741,0.286,1.493,0.568,2.248,0.833
			c0.095,0.034,0.187,0.065,0.282,0.098c0.828,0.289,1.665,0.558,2.506,0.82c0.201,0.058,0.403,0.122,0.605,0.18
			c0.857,0.258,1.704,0.568,2.588,0.731c56.149,10.239,72.458-33.742,72.458-33.742c-13.698,17.846-38.013,22.553-61.05,17.313
			c-0.872-0.197-1.719-0.469-2.571-0.721c-0.216-0.065-0.428-0.129-0.641-0.194c-0.831-0.255-1.656-0.524-2.476-0.806
			c-0.112-0.041-0.226-0.082-0.34-0.122c-0.735-0.258-1.461-0.531-2.183-0.809c-0.204-0.082-0.408-0.16-0.612-0.241
			c-0.792-0.313-1.58-0.639-2.357-0.979c-0.16-0.068-0.313-0.139-0.471-0.207c-0.668-0.303-1.33-0.609-1.988-0.925
			c-0.19-0.092-0.381-0.18-0.575-0.275c-0.517-0.252-1.028-0.521-1.538-0.783c-0.341-0.18-0.688-0.35-1.027-0.538
			c-0.623-0.333-1.234-0.68-1.843-1.034c-0.206-0.116-0.415-0.227-0.623-0.347c-0.809-0.476-1.609-0.969-2.4-1.47
			c-0.219-0.139-0.432-0.288-0.648-0.432c-0.574-0.371-1.145-0.748-1.708-1.135c-0.187-0.127-0.366-0.262-0.55-0.387
			c-0.543-0.384-1.081-0.773-1.614-1.167c-0.242-0.18-0.481-0.361-0.716-0.54c-0.489-0.375-0.975-0.752-1.457-1.139
			c-0.218-0.173-0.435-0.347-0.65-0.52c-0.612-0.503-1.217-1.01-1.814-1.53c-0.063-0.054-0.131-0.109-0.199-0.167
			c-0.646-0.568-1.28-1.149-1.908-1.734c-0.182-0.173-0.359-0.343-0.537-0.517c-0.464-0.442-0.922-0.888-1.37-1.343
			c-0.18-0.18-0.36-0.357-0.537-0.537c-0.571-0.585-1.132-1.177-1.682-1.778c-0.027-0.031-0.056-0.058-0.083-0.088
			c-0.582-0.636-1.149-1.285-1.705-1.942c-0.151-0.18-0.298-0.354-0.447-0.53c-0.415-0.5-0.826-1.007-1.228-1.517
			c-0.15-0.184-0.301-0.372-0.45-0.561c-0.483-0.627-0.956-1.252-1.418-1.887c-12.79-17.446-17.385-41.509-7.162-61.27"/>
		<path fill="#0868AC" d="M163.491,14.036c-8.396,12.083-7.941,28.257-1.391,41.035c1.098,2.142,2.333,4.22,3.714,6.199
			c1.258,1.802,2.653,3.948,4.322,5.397c0.605,0.667,1.238,1.316,1.884,1.955c0.163,0.167,0.33,0.326,0.497,0.49
			c0.627,0.609,1.265,1.207,1.925,1.789c0.027,0.02,0.051,0.047,0.078,0.068c0.007,0.007,0.014,0.01,0.019,0.017
			c0.729,0.639,1.483,1.255,2.248,1.86c0.17,0.129,0.338,0.265,0.51,0.398c0.767,0.588,1.549,1.166,2.352,1.717
			c0.024,0.017,0.044,0.034,0.068,0.051c0.354,0.245,0.714,0.473,1.073,0.707c0.172,0.112,0.335,0.231,0.508,0.337
			c0.573,0.367,1.153,0.724,1.743,1.068c0.083,0.051,0.165,0.095,0.247,0.143c0.508,0.292,1.024,0.582,1.541,0.86
			c0.18,0.102,0.364,0.19,0.548,0.286c0.357,0.187,0.714,0.377,1.078,0.558c0.054,0.027,0.111,0.051,0.163,0.075
			c0.74,0.364,1.486,0.714,2.248,1.047c0.163,0.071,0.332,0.136,0.496,0.204c0.609,0.258,1.224,0.51,1.843,0.748
			c0.262,0.099,0.527,0.194,0.789,0.289c0.561,0.207,1.124,0.398,1.692,0.588c0.257,0.082,0.508,0.167,0.765,0.245
			c0.808,0.252,1.605,0.568,2.447,0.707c43.352,7.182,53.36-26.195,53.36-26.195c-9.022,12.994-26.493,19.193-45.138,14.354
			c-0.828-0.218-1.644-0.456-2.455-0.711c-0.248-0.075-0.491-0.156-0.738-0.238c-0.576-0.187-1.149-0.384-1.717-0.592
			c-0.26-0.095-0.52-0.19-0.775-0.289c-0.622-0.238-1.238-0.486-1.848-0.745c-0.167-0.071-0.335-0.136-0.498-0.211
			c-0.765-0.333-1.518-0.684-2.261-1.051c-0.383-0.187-0.758-0.384-1.134-0.578c-0.218-0.112-0.437-0.224-0.655-0.337
			c-0.483-0.262-0.962-0.534-1.435-0.809c-0.112-0.065-0.23-0.126-0.343-0.194c-0.587-0.343-1.165-0.697-1.738-1.061
			c-0.177-0.112-0.347-0.235-0.524-0.35c-0.377-0.245-0.755-0.493-1.126-0.745c-0.799-0.551-1.576-1.129-2.343-1.714
			c-0.177-0.139-0.354-0.275-0.527-0.415c-8.161-6.444-14.63-15.248-17.705-25.233c-3.223-10.355-2.528-21.979,3.056-31.412"/>
		<path fill="#0868AC" d="M193.803,3.532c-4.95,7.284-5.436,16.331-2.001,24.376c3.622,8.539,11.044,15.239,19.706,18.414
			c0.357,0.133,0.714,0.252,1.076,0.374c0.158,0.048,0.315,0.102,0.474,0.15c0.51,0.16,1.017,0.347,1.544,0.445
			c23.937,4.625,30.43-12.283,32.158-14.772c-5.688,8.189-15.246,10.154-26.973,7.308c-0.926-0.226-1.945-0.56-2.837-0.876
			c-1.145-0.408-2.273-0.873-3.369-1.4c-2.082-1-4.067-2.215-5.907-3.605c-10.494-7.962-17.013-23.152-10.166-35.522"/>
	</g>
</g>
</svg>
