<?xml version="1.0" encoding="utf-8"?>
<!-- Generator: Adobe Illustrator 17.0.0, SVG Export Plug-In . SVG Version: 6.00 Build 0)  -->
<!DOCTYPE svg PUBLIC "-//W3C//DTD SVG 1.1//EN" "http://www.w3.org/Graphics/SVG/1.1/DTD/svg11.dtd">
<svg version="1.1" id="Vrstva_1" xmlns="http://www.w3.org/2000/svg" xmlns:xlink="http://www.w3.org/1999/xlink" x="0px" y="0px"
	 width="257.024px" height="149.027px" viewBox="0 0 257.024 149.027" enable-background="new 0 0 257.024 149.027"
	 xml:space="preserve">
<g>
	<path fill="#3484D2" d="M66.861,102.719c-3.65,2.6-5.965,4.179-6.944,4.738c-5.232,3.119-10.011,4.678-14.337,4.678
		c-2.415,0-4.779-0.554-7.093-1.66c-2.314-1.107-4.05-2.541-5.207-4.302s-1.736-3.748-1.736-5.961c0-3.119,1.056-7.093,3.169-11.923
		c3.018-7.043,4.628-10.816,4.83-11.319c-0.101-0.403-0.151-0.856-0.151-1.359c-1.408,0.604-2.364,1.057-2.867,1.359
		c-2.817,1.812-5.585,3.874-8.301,6.188c-2.113,1.912-4.578,4.327-7.395,7.245c-0.604,3.622-0.906,7.194-0.906,10.716
		c0,2.717,0.151,5.433,0.453,8.15l-18.263,2.867C0.704,106.502,0,101.119,0,95.987c0-3.119,0.302-6.288,0.906-9.508
		s1.711-6.842,3.32-10.867c1.107-2.817,2.667-6.338,4.678-10.564l20.979-3.471c-1.308,3.22-2.265,5.635-2.868,7.245
		c-1.107,2.717-2.012,5.181-2.717,7.395c5.031-4.628,10.062-8.2,15.093-10.715c4.025-2.012,7.647-3.019,10.866-3.019
		c1.811,0,3.673,0.352,5.585,1.057c1.911,0.704,3.295,1.811,4.15,3.321c0.855,1.509,1.283,3.32,1.283,5.433
		c0,3.018-0.855,6.741-2.566,11.169c-2.012,5.031-3.974,10.062-5.885,15.092c0,0.704,0.251,1.132,0.754,1.283
		c0.503,0.151,1.007,0.226,1.51,0.226c2.019,0,5.022-1.054,9.009-3.164c-0.372-1.452-0.558-2.963-0.558-4.533
		c0-2.415,0.352-4.728,1.057-6.942c0.704-2.213,1.761-4.528,3.169-6.942c2.515-4.125,6.037-7.647,10.564-10.565
		c4.528-2.918,9.307-4.779,14.338-5.584c1.811-0.201,3.22-0.302,4.226-0.302c3.32,0,6.288,0.554,8.904,1.66
		c2.616,1.107,4.779,2.918,6.49,5.434c1.007,1.609,1.51,3.219,1.51,4.829c0,2.516-1.258,4.98-3.773,7.396
		c-1.811,1.71-4.251,3.321-7.319,4.83c-3.069,1.509-6.113,2.766-9.132,3.772c-2.214,0.704-5.332,1.56-9.357,2.566
		c1.308,2.717,3.17,4.905,5.584,6.565c2.415,1.66,4.981,2.491,7.697,2.491c4.126,0,8.251-1.057,12.376-3.17
		c0.193-0.096,3.343-2.088,9.452-5.974c0.035-0.483,0.078-0.982,0.132-1.497c0.151-1.459,0.452-3.245,0.906-5.357
		c0.179-0.833,0.345-1.596,0.5-2.289l21.794-1.301c-0.521,1.821-1.06,3.696-1.618,5.628c-0.654,2.263-0.981,4.15-0.981,5.659
		c0,2.415,0.478,4.1,1.434,5.056c0.956,0.956,2.339,1.434,4.151,1.434c2.616,0,6.037-1.107,10.262-3.321
		c2.012-1.217,3.633-2.195,4.862-2.932c0.036-0.81,0.1-1.669,0.194-2.577c0.151-1.459,0.453-3.245,0.906-5.357
		c0.178-0.831,0.344-1.591,0.499-2.282l21.794-1.301c-0.52,1.818-1.059,3.692-1.616,5.621c-0.654,2.263-0.981,4.15-0.981,5.659
		c0,2.415,0.478,4.1,1.434,5.056c0.956,0.956,2.339,1.434,4.15,1.434c2.616,0,6.038-1.107,10.263-3.321l3.142-1.898
		c-0.082-0.713-0.124-1.439-0.124-2.178c0-2.415,0.352-4.728,1.056-6.942c0.704-2.213,1.761-4.527,3.169-6.942
		c2.515-4.125,6.037-7.647,10.565-10.565c4.527-2.918,9.307-4.779,14.337-5.584c1.811-0.201,3.22-0.302,4.226-0.302
		c3.321,0,6.288,0.554,8.904,1.66c2.616,1.107,4.779,2.918,6.489,5.434c1.006,1.609,1.509,3.219,1.509,4.829
		c0,2.516-1.258,4.98-3.773,7.396c-1.811,1.71-4.251,3.321-7.32,4.83c-3.069,1.509-6.113,2.766-9.131,3.772
		c-2.214,0.704-5.333,1.56-9.358,2.566c1.308,2.717,3.169,4.905,5.585,6.565c2.415,1.66,4.98,2.491,7.697,2.491
		c4.126,0,8.251-1.057,12.376-3.17c0.201-0.101,3.622-2.264,10.263-6.489v6.792c-0.603,0.402-3.019,2.113-7.244,5.132
		c-3.119,2.213-5.685,3.773-7.697,4.678c-5.031,2.214-10.565,3.321-16.602,3.321c-4.025,0-7.596-0.478-10.715-1.433
		c-3.119-0.956-5.987-2.642-8.603-5.056c-1.617-1.447-2.892-3.073-3.825-4.88c-4.436,3.207-7.84,5.487-10.211,6.842
		c-5.333,3.018-10.162,4.528-14.488,4.528c-2.428,0-4.389-0.156-6.641-1.207c-3.823-1.61-6.489-3.698-7.999-6.263
		c-0.748-1.272-1.311-2.688-1.689-4.244c-4.67,3.389-8.232,5.784-10.687,7.187c-5.333,3.018-10.162,4.528-14.488,4.528
		c-2.429,0-4.388-0.156-6.641-1.207c-3.823-1.61-6.489-3.698-7.999-6.263c-0.911-1.549-1.547-3.31-1.908-5.282
		c-1.051,0.732-3.282,2.316-6.694,4.753c-3.119,2.213-5.685,3.773-7.697,4.678c-5.031,2.214-10.564,3.321-16.601,3.321
		c-4.024,0-7.597-0.478-10.715-1.433c-3.12-0.956-5.987-2.642-8.603-5.056C68.361,104.527,67.556,103.652,66.861,102.719
		L66.861,102.719z M97.195,75.16c0.1-0.402,0.15-1.006,0.15-1.811c0-2.616-1.107-3.924-3.32-3.924c-0.302,0-0.855,0.101-1.661,0.301
		c-3.019,0.705-5.383,2.616-7.093,5.735c-1.711,3.119-2.566,6.389-2.566,9.81c4.226-1.107,7.295-2.214,9.206-3.321
		C95.032,80.241,96.793,77.977,97.195,75.16L97.195,75.16z M118.023,75.612l3.018-11.923l6.188-0.301l5.886-16.149l22.337-3.924
		l-6.339,19.016l10.112-0.452l-2.717,11.319C143.684,74.064,130.854,74.858,118.023,75.612L118.023,75.612z M159.527,75.612
		l3.019-11.923l6.187-0.301l5.887-16.149l22.335-3.924l-6.339,19.016l10.112-0.452l-2.717,11.319
		C185.146,74.067,172.225,74.866,159.527,75.612z M234.082,75.16c0.101-0.402,0.152-1.006,0.152-1.811
		c0-2.616-1.107-3.924-3.321-3.924c-0.302,0-0.855,0.101-1.66,0.301c-3.018,0.705-5.383,2.616-7.094,5.735
		c-1.71,3.119-2.566,6.389-2.566,9.81c4.226-1.107,7.295-2.214,9.207-3.321C231.92,80.241,233.68,77.977,234.082,75.16
		L234.082,75.16z"/>
	<path fill="#3484D2" d="M13.041,148.078h2.326v-8.062h6.714v-1.903h-6.714v-5.921h7.269v-1.93h-9.595
		C13.041,130.263,13.041,148.078,13.041,148.078z M36.587,148.078h2.3v-7.718h2.167c0.692,0.022,1.273,0.15,1.744,0.388
		c0.467,0.234,0.85,0.603,1.15,1.101c0.295,0.502,0.529,1.159,0.7,1.974c0.238,1.115,0.458,2.035,0.652,2.762
		c0.194,0.727,0.366,1.225,0.511,1.494h2.379c-0.181-0.348-0.383-0.938-0.608-1.771c-0.221-0.833-0.476-1.872-0.767-3.119
		c-0.207-0.929-0.524-1.701-0.947-2.313c-0.423-0.613-0.974-1.04-1.643-1.282v-0.079c0.626-0.211,1.185-0.524,1.687-0.938
		c0.498-0.41,0.899-0.916,1.189-1.515c0.295-0.603,0.445-1.291,0.454-2.066c-0.004-0.705-0.128-1.348-0.374-1.934
		c-0.242-0.581-0.586-1.075-1.026-1.476c-0.533-0.489-1.22-0.855-2.062-1.093c-0.837-0.242-1.868-0.361-3.093-0.361
		c-0.524,0-1.049,0.018-1.577,0.048c-0.529,0.031-1.04,0.075-1.524,0.132c-0.484,0.053-0.921,0.119-1.313,0.189L36.587,148.078
		L36.587,148.078z M38.887,132.113c0.198-0.053,0.489-0.097,0.868-0.132c0.383-0.035,0.85-0.053,1.405-0.053
		c0.815-0.005,1.529,0.115,2.146,0.344c0.612,0.234,1.088,0.595,1.432,1.079c0.339,0.489,0.515,1.115,0.52,1.881
		c-0.005,0.683-0.168,1.278-0.494,1.78c-0.326,0.507-0.789,0.899-1.388,1.181c-0.603,0.278-1.313,0.418-2.136,0.423h-2.352
		C38.887,138.615,38.887,132.113,38.887,132.113z M70.786,142.475l1.903,5.604h2.458l-6.08-17.816h-2.749l-6.079,17.816h2.379
		l1.85-5.604H70.786z M64.944,140.677l1.744-5.154c0.185-0.546,0.348-1.088,0.489-1.634c0.145-0.542,0.282-1.075,0.41-1.591h0.053
		c0.128,0.511,0.269,1.04,0.414,1.577c0.145,0.537,0.317,1.092,0.511,1.674l1.771,5.128H64.944L64.944,140.677z M103.742,148.078
		h2.273l-1.11-17.816h-2.934l-3.172,8.617c-0.397,1.119-0.753,2.176-1.071,3.168c-0.317,0.991-0.595,1.938-0.833,2.833h-0.053
		c-0.238-0.921-0.502-1.881-0.797-2.872c-0.299-0.991-0.63-2.035-1-3.128l-3.04-8.617h-2.934l-1.242,17.816h2.194l0.476-7.639
		c0.053-0.908,0.101-1.82,0.15-2.749c0.044-0.925,0.084-1.824,0.119-2.701c0.031-0.872,0.057-1.683,0.075-2.427h0.053
		c0.251,1.053,0.546,2.154,0.89,3.304c0.339,1.145,0.723,2.352,1.145,3.621l2.908,8.485h1.744l3.146-8.643
		c0.449-1.229,0.855-2.405,1.225-3.533c0.366-1.128,0.71-2.203,1.022-3.233h0.053c0,0.551,0.009,1.145,0.026,1.775
		c0.018,0.634,0.04,1.286,0.071,1.96c0.026,0.674,0.057,1.344,0.092,2.013c0.035,0.67,0.066,1.317,0.101,1.943L103.742,148.078
		L103.742,148.078z M129.403,137.822h-6.899v-5.63h7.322v-1.93h-9.648v17.816h10.044v-1.93h-7.718v-6.423h6.899V137.822
		L129.403,137.822z M149.407,148.078l2.538-9.278c0.22-0.762,0.414-1.476,0.586-2.137c0.172-0.661,0.321-1.295,0.449-1.894
		c0.132-0.603,0.242-1.198,0.339-1.784h0.053c0.079,0.595,0.172,1.194,0.287,1.802c0.11,0.603,0.238,1.238,0.383,1.894
		c0.145,0.657,0.308,1.366,0.493,2.119l2.247,9.278h2.405l5.049-17.816h-2.353l-2.352,8.987c-0.278,1.106-0.542,2.163-0.784,3.181
		c-0.242,1.013-0.458,2.004-0.643,2.978h-0.053c-0.136-0.943-0.313-1.93-0.533-2.965c-0.216-1.031-0.454-2.079-0.709-3.141
		l-2.168-9.04h-2.405l-2.379,8.987c-0.308,1.154-0.59,2.251-0.846,3.291c-0.255,1.04-0.458,2.005-0.608,2.894h-0.053
		c-0.106-0.577-0.229-1.198-0.366-1.868s-0.286-1.366-0.449-2.088c-0.159-0.727-0.331-1.458-0.507-2.203l-2.115-9.014h-2.432
		l4.52,17.816L149.407,148.078L149.407,148.078z M184.294,129.945c-1.194,0.005-2.295,0.225-3.295,0.665
		c-1.005,0.441-1.873,1.071-2.612,1.89c-0.74,0.824-1.313,1.806-1.718,2.952c-0.41,1.15-0.617,2.432-0.621,3.85
		c0.005,1.353,0.198,2.582,0.586,3.692c0.388,1.106,0.934,2.062,1.643,2.864s1.555,1.418,2.533,1.855
		c0.978,0.432,2.057,0.652,3.247,0.657c0.912,0,1.784-0.132,2.608-0.392c0.824-0.256,1.581-0.643,2.269-1.154
		c0.687-0.511,1.286-1.141,1.793-1.899c0.507-0.753,0.903-1.626,1.181-2.617s0.419-2.102,0.423-3.322
		c-0.004-1.335-0.194-2.551-0.568-3.652c-0.374-1.106-0.912-2.057-1.617-2.859c-0.7-0.806-1.546-1.427-2.533-1.864
		C186.629,130.174,185.518,129.95,184.294,129.945z M184.214,131.822c0.766,0.004,1.454,0.141,2.062,0.414
		c0.613,0.269,1.141,0.643,1.595,1.115c0.454,0.476,0.833,1.022,1.132,1.639c0.299,0.617,0.524,1.278,0.674,1.974
		c0.145,0.7,0.22,1.41,0.22,2.128c0,1.018-0.128,1.974-0.379,2.864c-0.251,0.89-0.621,1.674-1.106,2.352
		c-0.489,0.679-1.084,1.212-1.793,1.599c-0.71,0.383-1.52,0.577-2.432,0.586c-0.731-0.004-1.397-0.132-1.996-0.383
		c-0.599-0.255-1.128-0.608-1.59-1.062c-0.463-0.454-0.85-0.987-1.163-1.59c-0.317-0.608-0.555-1.269-0.718-1.983
		c-0.159-0.713-0.242-1.454-0.242-2.225c0-0.78,0.075-1.538,0.229-2.264c0.15-0.727,0.379-1.405,0.687-2.031
		c0.304-0.621,0.687-1.168,1.145-1.639c0.458-0.467,0.996-0.833,1.608-1.092C182.76,131.959,183.448,131.826,184.214,131.822
		L184.214,131.822z M205.963,148.078h2.3v-7.718h2.167c0.692,0.022,1.273,0.15,1.744,0.388c0.467,0.234,0.85,0.603,1.15,1.101
		c0.295,0.502,0.529,1.159,0.7,1.974c0.238,1.115,0.458,2.035,0.652,2.762c0.194,0.727,0.366,1.225,0.511,1.494h2.379
		c-0.181-0.348-0.383-0.938-0.608-1.771c-0.221-0.833-0.476-1.872-0.767-3.119c-0.207-0.929-0.524-1.701-0.947-2.313
		c-0.423-0.613-0.974-1.04-1.643-1.282v-0.079c0.626-0.211,1.185-0.524,1.687-0.938c0.498-0.41,0.899-0.916,1.189-1.515
		c0.295-0.603,0.445-1.291,0.454-2.066c-0.004-0.705-0.128-1.348-0.374-1.934c-0.242-0.581-0.586-1.075-1.026-1.476
		c-0.533-0.489-1.22-0.855-2.062-1.093c-0.837-0.242-1.868-0.361-3.093-0.361c-0.524,0-1.049,0.018-1.577,0.048
		c-0.529,0.031-1.04,0.075-1.524,0.132c-0.484,0.053-0.921,0.119-1.313,0.189L205.963,148.078L205.963,148.078z M208.263,132.113
		c0.198-0.053,0.489-0.097,0.868-0.132c0.383-0.035,0.85-0.053,1.405-0.053c0.815-0.005,1.529,0.115,2.146,0.344
		c0.612,0.234,1.088,0.595,1.432,1.079c0.339,0.489,0.515,1.115,0.52,1.881c-0.005,0.683-0.168,1.278-0.494,1.78
		c-0.326,0.507-0.789,0.899-1.388,1.181c-0.604,0.278-1.313,0.418-2.136,0.423h-2.352L208.263,132.113L208.263,132.113z
		 M230.831,148.078h2.3v-6.793l1.718-1.956l5.842,8.749h2.722l-6.952-10.256l6.45-7.56h-2.855l-5.445,6.688
		c-0.225,0.291-0.454,0.595-0.692,0.912c-0.234,0.317-0.471,0.648-0.71,0.991h-0.079v-8.591h-2.3v17.816H230.831z"/>
</g>
</svg>
