<svg version="1.1"
	 id="svg3430" xmlns:dc="http://purl.org/dc/elements/1.1/" xmlns:cc="http://creativecommons.org/ns#" xmlns:rdf="http://www.w3.org/1999/02/22-rdf-syntax-ns#" xmlns:svg="http://www.w3.org/2000/svg"
	 xmlns="http://www.w3.org/2000/svg" x="0px" y="0px" width="711.201px"
	 height="383.598px" viewBox="0 0 711.201 383.598" enable-background="new 0 0 711.201 383.598" xml:space="preserve">
<g id="g3438" transform="matrix(1.25,0,0,-1.25,-4.4,394.29875)">
	<g id="g3440">
		<g>
			<defs>
				<path id="SVGID_1_" d="M11.52,162C11.52,81.677,135.307,16.561,288,16.561l0,0c152.693,0,276.481,65.116,276.481,145.439l0,0
					c0,80.322-123.788,145.439-276.481,145.439l0,0C135.307,307.439,11.52,242.322,11.52,162"/>
			</defs>
			<clipPath id="SVGID_2_">
				<use xlink:href="#SVGID_1_"  overflow="visible"/>
			</clipPath>
			<g id="g3442" clip-path="url(#SVGID_2_)">
				<g id="g3448">
					<g id="g3450">
						
							<radialGradient id="path3462_1_" cx="-95.7025" cy="-221.9969" r="1" gradientTransform="matrix(453.8224 0 0 -453.8224 43609.4609 -100490.8672)" gradientUnits="userSpaceOnUse">
							<stop  offset="0" style="stop-color:#AEB2D5"/>
							<stop  offset="0.3" style="stop-color:#AEB2D5"/>
							<stop  offset="0.75" style="stop-color:#484C89"/>
							<stop  offset="1" style="stop-color:#484C89"/>
						</radialGradient>
						<path id="path3462" fill="url(#path3462_1_)" d="M11.52,162C11.52,81.677,135.307,16.561,288,16.561l0,0
							c152.693,0,276.481,65.116,276.481,145.439l0,0c0,80.322-123.788,145.439-276.481,145.439l0,0
							C135.307,307.439,11.52,242.322,11.52,162"/>
					</g>
				</g>
			</g>
		</g>
	</g>
	<g id="g3464">
		<g>
			<defs>
				<rect id="SVGID_3_" x="-72" y="-40.5" width="720" height="405"/>
			</defs>
			<clipPath id="SVGID_4_">
				<use xlink:href="#SVGID_3_"  overflow="visible"/>
			</clipPath>
			<g id="g3466" clip-path="url(#SVGID_4_)">
				<g id="g3472" transform="translate(288,27.3594)">
					<path id="path3474" fill="#777BB3" d="M0,0c146.729,0,265.68,60.281,265.68,134.641C265.68,209,146.729,269.282,0,269.282
						S-265.68,209-265.68,134.641C-265.68,60.281-146.729,0,0,0"/>
				</g>
			</g>
		</g>
	</g>
	<g id="g3476">
		<g>
			<defs>
				<rect id="SVGID_5_" x="-72" y="-40.5" width="720" height="405"/>
			</defs>
			<clipPath id="SVGID_6_">
				<use xlink:href="#SVGID_5_"  overflow="visible"/>
			</clipPath>
			<g id="g3478" clip-path="url(#SVGID_6_)">
				<g id="g3484" transform="translate(161.7344,145.3066)">
					<path id="path3486" d="M0,0c12.065,0,21.072,2.225,26.771,6.611c5.638,4.341,9.532,11.862,11.573,22.353
						c1.903,9.806,1.178,16.653-2.154,20.348C32.783,53.086,25.417,55,14.297,55H-4.984L-15.673,0H0z M-63.063-67.75
						c-0.895,0-1.745,0.4-2.314,1.092c-0.57,0.691-0.801,1.601-0.63,2.48l28.328,145.751C-37.405,82.982-36.17,84-34.734,84H26.32
						c19.188,0,33.47-5.21,42.447-15.487c9.025-10.331,11.812-24.772,8.283-42.921c-1.436-7.394-3.906-14.261-7.341-20.409
						c-3.439-6.155-7.984-11.85-13.511-16.93c-6.616-6.192-14.104-10.682-22.236-13.324C25.959-27.678,15.681-29,3.414-29h-24.722
						l-7.06-36.322c-0.274-1.41-1.508-2.428-2.944-2.428H-63.063z"/>
				</g>
				<g id="g3488" transform="translate(159.2236,197.3071)">
					<path id="path3490" fill="#FFFFFF" d="M0,0h16.808c13.421,0,18.083-2.945,19.667-4.7c2.628-2.914,3.124-9.058,1.435-17.767
						c-1.898-9.75-5.416-16.663-10.458-20.545C22.29-46.986,13.898-49,2.511-49H-9.523L0,0z M28.831,35h-61.055
						c-2.872,0-5.341-2.036-5.889-4.855l-28.328-145.751c-0.342-1.759,0.12-3.578,1.259-4.961c1.14-1.383,2.838-2.183,4.63-2.183
						h31.75c2.873,0,5.342,2.036,5.89,4.855L-16.324-84H5.925c12.582,0,23.174,1.372,31.479,4.077
						c8.541,2.775,16.399,7.48,23.354,13.984c5.752,5.292,10.49,11.232,14.08,17.657c3.591,6.427,6.171,13.594,7.668,21.302
						c3.715,19.104,0.697,34.402-8.969,45.466C63.965,29.444,48.923,35,28.831,35 M-16.802-55H2.511
						c12.801,0,22.336,2.411,28.601,7.234c6.266,4.824,10.492,12.875,12.688,24.157c2.101,10.832,1.144,18.476-2.871,22.929
						C36.909,3.773,28.87,6,16.808,6H-4.946L-16.802-55 M28.831,29c18.367,0,31.766-4.82,40.188-14.461
						c8.421-9.641,10.957-23.098,7.597-40.375c-1.383-7.117-3.722-13.624-7.015-19.519c-3.297-5.899-7.602-11.293-12.922-16.184
						c-6.34-5.933-13.383-10.161-21.133-12.679C27.796-76.743,17.925-78,5.925-78h-27.196l-7.531-38.75h-31.75L-32.224,29H28.831"/>
				</g>
				<g id="g3492" transform="translate(311.583,116.3066)">
					<path id="path3494" d="M0,0c-0.896,0-1.745,0.4-2.314,1.092c-0.571,0.691-0.802,1.6-0.631,2.48L9.586,68.061
						c1.192,6.133,0.898,10.535-0.827,12.395C7.703,81.593,4.531,83.5-4.848,83.5H-27.55L-43.305,2.428
						C-43.579,1.018-44.814,0-46.25,0h-31.5c-0.896,0-1.745,0.4-2.315,1.092c-0.57,0.691-0.801,1.601-0.63,2.48l28.328,145.751
						c0.274,1.409,1.509,2.427,2.945,2.427h31.5c0.896,0,1.745-0.4,2.315-1.091c0.57-0.692,0.801-1.601,0.63-2.481L-21.813,113
						H2.609c18.605,0,31.221-3.28,38.569-10.028c7.49-6.884,9.827-17.891,6.947-32.719L34.945,2.428C34.671,1.018,33.437,0,32,0H0z"
						/>
				</g>
				<g id="g3496" transform="translate(293.6611,271.0571)">
					<path id="path3498" fill="#FFFFFF" d="M0,0h-31.5c-2.873,0-5.342-2.036-5.89-4.855l-28.328-145.751
						c-0.342-1.759,0.12-3.578,1.26-4.961s2.838-2.183,4.63-2.183h31.5c2.872,0,5.342,2.036,5.89,4.855L-7.155-74.25h20.229
						c9.363,0,11.328-2,11.407-2.086c0.568-0.611,1.315-3.441,0.082-9.781l-12.531-64.489c-0.342-1.759,0.12-3.578,1.26-4.961
						s2.838-2.183,4.63-2.183h32c2.872,0,5.342,2.036,5.89,4.855L68.991-85.07c3.093,15.921,0.447,27.864-7.861,35.5
						c-7.928,7.281-21.208,10.82-40.599,10.82H-0.253L5.89-7.145c0.341,1.759-0.12,3.579-1.26,4.961C3.49-0.801,1.792,0,0,0 M0-6
						l-7.531-38.75h28.062c17.657,0,29.836-3.082,36.539-9.238c6.703-6.16,8.711-16.141,6.032-29.938l-13.18-67.824h-32
						l12.531,64.488c1.426,7.336,0.902,12.34-1.574,15.008c-2.477,2.668-7.746,4.004-15.805,4.004h-25.176l-16.226-83.5h-31.5
						L-31.5-6H0"/>
				</g>
				<g id="g3500" transform="translate(409.5498,145.3066)">
					<path id="path3502" d="M0,0c12.065,0,21.072,2.225,26.771,6.611c5.638,4.34,9.532,11.861,11.574,22.353
						c1.903,9.806,1.178,16.653-2.155,20.348C32.783,53.086,25.417,55,14.297,55H-4.984L-15.673,0H0z M-63.062-67.75
						c-0.895,0-1.745,0.4-2.314,1.092c-0.57,0.691-0.802,1.601-0.631,2.48l28.328,145.751C-37.404,82.982-36.17,84-34.733,84H26.32
						c19.189,0,33.47-5.21,42.448-15.487c9.025-10.33,11.811-24.771,8.283-42.921c-1.438-7.394-3.907-14.261-7.342-20.409
						c-3.439-6.155-7.984-11.85-13.511-16.93c-6.616-6.192-14.104-10.682-22.236-13.324C25.959-27.678,15.681-29,3.414-29h-24.723
						l-7.057-36.322c-0.275-1.41-1.509-2.428-2.946-2.428H-63.062z"/>
				</g>
				<g id="g3504" transform="translate(407.0391,197.3071)">
					<path id="path3506" fill="#FFFFFF" d="M0,0h16.808c13.421,0,18.083-2.945,19.667-4.7c2.629-2.914,3.125-9.058,1.435-17.766
						c-1.898-9.751-5.417-16.664-10.458-20.546C22.29-46.986,13.898-49,2.511-49H-9.522L0,0z M28.831,35h-61.054
						c-2.872,0-5.341-2.036-5.889-4.855L-66.44-115.606c-0.342-1.759,0.12-3.578,1.259-4.961c1.14-1.383,2.838-2.183,4.63-2.183
						h31.75c2.872,0,5.342,2.036,5.89,4.855L-16.324-84H5.925c12.582,0,23.174,1.372,31.479,4.077
						c8.541,2.775,16.401,7.481,23.356,13.986c5.752,5.291,10.488,11.23,14.078,17.655c3.591,6.427,6.171,13.594,7.668,21.302
						c3.715,19.105,0.697,34.403-8.969,45.467C63.965,29.444,48.924,35,28.831,35 M-16.801-55H2.511
						c12.801,0,22.336,2.411,28.601,7.234c6.267,4.824,10.492,12.875,12.688,24.157c2.102,10.832,1.145,18.476-2.871,22.929
						C36.909,3.773,28.87,6,16.808,6H-4.946L-16.801-55 M28.831,29c18.367,0,31.766-4.82,40.188-14.461s10.957-23.098,7.597-40.375
						c-1.383-7.117-3.722-13.624-7.015-19.519c-3.297-5.899-7.602-11.293-12.922-16.184c-6.34-5.933-13.383-10.161-21.133-12.679
						C27.796-76.743,17.925-78,5.925-78h-27.196l-7.53-38.75h-31.75L-32.223,29H28.831"/>
				</g>
			</g>
		</g>
	</g>
</g>
</svg>
