<svg version="1.1" xmlns="http://www.w3.org/2000/svg" x="0px" y="0px"
	 width="848.51px" height="960px" viewBox="55.745 0 848.51 960" enable-background="new 55.745 0 848.51 960" xml:space="preserve"
	>
<path fill="#FFFFFF" d="M480,0l424.255,239.973v480.055L480,960L55.745,720.027V239.973L480,0z"/>
<path fill="#8ED6FB" d="M828.503,703.474L494.032,892.689V745.351l208.4-114.669L828.503,703.474L828.503,703.474z M851.415,682.754
	V287.112l-122.343,70.709v254.334L851.415,682.754L851.415,682.754z M130.182,703.474l334.471,189.215V745.351l-208.51-114.669
	L130.182,703.474z M107.27,682.754V287.112l122.343,70.709v254.334L107.27,682.754z M121.631,261.459L464.652,67.42v142.405
	L244.851,330.743l-1.754,0.987C243.097,331.73,121.631,261.459,121.631,261.459z M837.054,261.459L494.032,67.42v142.405
	l219.801,120.808l1.754,0.987L837.054,261.459L837.054,261.459z"/>
<path fill="#1C78C0" d="M464.652,711.805L258.993,598.671V374.704l205.659,118.726V711.805z M494.032,711.805l205.66-113.025
	V374.704l-205.66,118.726V711.805z M272.915,348.832l206.427-113.464l206.427,113.464L479.342,467.996L272.915,348.832
	L272.915,348.832z"/>
</svg>
